G04 ================== begin FILE IDENTIFICATION RECORD ==================*
G04 Layout Name:  byggernnode1.brd*
G04 Film Name:    1_TOP*
G04 File Format:  Gerber RS274X*
G04 File Origin:  Cadence Allegro 24.1-P001*
G04 Origin Date:  Wed Nov  6 06:11:47 2024*
G04 *
G04 Layer:  VIA CLASS/TOP*
G04 Layer:  PIN/TOP*
G04 Layer:  ETCH/TOP*
G04 *
G04 Offset:    (0.0000 0.0000)*
G04 Mirror:    No*
G04 Mode:      Positive*
G04 Rotation:  0*
G04 FullContactRelief:  No*
G04 UndefLineWidth:     0.1500*
G04 ================== end FILE IDENTIFICATION RECORD ====================*
%FSAX35Y35*MOMM*%
%IR0*IPPOS*OFA0.00000B0.00000*MIA0B0*SFA1.00000B1.00000*%
%ADD15C,.45*%
%ADD21R,1.4X.8999*%
%ADD25R,.8999X1.4*%
%ADD26O,2.X1.6*%
%ADD28R,2.1001X4.4*%
%ADD14C,1.4*%
%ADD13C,1.5*%
%ADD17C,1.5001*%
%ADD20R,2.05X4.65*%
%ADD19C,7.4*%
%ADD30C,1.524*%
%ADD18R,1.4X1.4*%
%ADD16C,4.8*%
%ADD10C,1.4224*%
%ADD22R,1.5001X1.5001*%
%ADD27R,1.8X1.8*%
%ADD29R,3.1999X1.*%
%ADD23C,1.935*%
%ADD11R,1.4224X1.4224*%
%ADD12C,1.6764*%
%ADD24R,1.935X1.935*%
%ADD31C,.25*%
%ADD32C,2.*%
G75*
%LPD*%
G75*
G54D10*
X12446000Y21082000D03*
X12446000Y21336000D03*
X12446000Y22225000D03*
X12446000Y22479000D03*
G54D11*
X12446000Y20828000D03*
X12446000Y21971000D03*
G54D20*
X14490000Y16073000D03*
X14490000Y16943000D03*
G54D12*
X12446000Y23241000D03*
X12446000Y23495000D03*
X12446000Y24003000D03*
X12446000Y23749000D03*
X18351500Y20066000D03*
X18351500Y20574000D03*
X18351500Y20320000D03*
X18351500Y21082000D03*
X18351500Y20828000D03*
X18351500Y21590000D03*
X18351500Y21336000D03*
X18351500Y21844000D03*
X18351500Y22352000D03*
X18351500Y22098000D03*
X18351500Y22860000D03*
X18351500Y22606000D03*
G54D30*
X18351500Y18034000D03*
X18351500Y18542000D03*
X18351500Y18288000D03*
X18351500Y18796000D03*
X18351500Y19050000D03*
X18605500Y18034000D03*
X18605500Y18542000D03*
X18605500Y18288000D03*
X18605500Y18796000D03*
X18605500Y19050000D03*
G54D21*
X14478000Y18447000D03*
X14478000Y18955000D03*
X14478000Y18637000D03*
X14478000Y19145000D03*
G54D31*
G01X13906500Y22479000D02*
X12446000Y22479000D01*
G01X12446000Y23495000D02*
X13017500Y23495000D01*
X13970000Y22542500D01*
G01X12446000Y24003000D02*
X12636500Y24003000D01*
X14033500Y22606000D01*
G01X13157250Y24142750D02*
X13081000Y24066500D01*
X13081000Y23650000D01*
G01X13716000Y20828000D02*
X13498430Y21045570D01*
X13498430Y21689930D01*
X14414500Y22606000D01*
X14605000Y22606000D01*
G01X13716000Y21590000D02*
X13843000Y21590000D01*
X14605000Y22352000D01*
G01X14478000Y18637000D02*
X13915000Y18637000D01*
X13843000Y18565000D01*
G01X14478000Y18955000D02*
X13956000Y18955000D01*
X13843000Y18842000D01*
G01X14650000Y15900000D02*
X14550000Y15900000D01*
X14490000Y15960000D01*
G01X14350000Y15900000D02*
X14450000Y15900000D01*
X14490000Y15940000D01*
X14490000Y15960000D01*
G01X14350000Y16000000D02*
X14417000Y16000000D01*
X14490000Y16073000D01*
G01X14350000Y16100000D02*
X14463000Y16100000D01*
X14490000Y16073000D01*
G01X14490000Y16073000D02*
X14517000Y16100000D01*
X14650000Y16100000D01*
G01X14490000Y16025000D02*
X14515000Y16000000D01*
X14650000Y16000000D01*
G01X14490000Y16025000D02*
X14490000Y16073000D01*
G01X14490000Y15960000D02*
X14490000Y16025000D01*
G01X14478000Y18447000D02*
X14478000Y18288000D01*
G01X14859000Y19304000D02*
X14732000Y19177000D01*
X14732000Y18866000D01*
X14503000Y18637000D01*
X14478000Y18637000D01*
G01X14859000Y18796000D02*
X15049500Y18986500D01*
X15049500Y19304000D01*
X14922500Y19431000D01*
X14795500Y19431000D01*
X14668500Y19304000D01*
X14668500Y19050000D01*
X14573500Y18955000D01*
X14478000Y18955000D01*
G01X14478000Y19145000D02*
X14478000Y19304000D01*
G01X15621000Y18796000D02*
X15240000Y18415000D01*
X15240000Y17907000D01*
X14859000Y17526000D01*
G01X14859000Y19558000D02*
X15240000Y19939000D01*
X16002000Y19939000D01*
X16129000Y19812000D01*
G01X17673000Y20320000D02*
X16276000Y21717000D01*
X15938500Y21717000D01*
X15494000Y22161500D01*
X15494000Y22415500D01*
X15430500Y22479000D01*
X15240000Y22479000D01*
X14668500Y23050500D01*
X14668500Y23876000D01*
X14922500Y24130000D01*
X15367000Y24130000D01*
X15494000Y24003000D01*
G01X17673000Y20828000D02*
X17653000Y20828000D01*
X16764000Y21717000D01*
X16764000Y22352000D01*
X16319500Y22796500D01*
X15430500Y22796500D01*
X14986000Y23241000D01*
G01X17673000Y20574000D02*
X17653000Y20574000D01*
X16637000Y21590000D01*
X16637000Y22288510D01*
X16192510Y22733000D01*
X15303500Y22733000D01*
X14859000Y23177500D01*
X14859000Y23685500D01*
X15116250Y23942750D01*
X15179750Y23942750D01*
X15240000Y24003000D01*
G01X17526000Y24003000D02*
X17526000Y24130000D01*
X17399000Y24257000D01*
X16256000Y24257000D01*
X16129000Y24130000D01*
X16129000Y23685500D01*
X15938500Y23495000D01*
X15049500Y23495000D01*
G01X15621000Y18542000D02*
X15494000Y18415000D01*
X15494000Y17653000D01*
X15621000Y17526000D01*
G01X15367000Y20066000D02*
X16129000Y20066000D01*
G01X16129000Y20320000D02*
X15430500Y20320000D01*
X15113000Y20637500D01*
X15113000Y22098000D01*
X15367000Y22352000D01*
G01X16129000Y21336000D02*
X15367000Y22098000D01*
G01X17673000Y21082000D02*
X17653000Y21082000D01*
X16891000Y21844000D01*
X16891000Y22415500D01*
X16446500Y22860000D01*
X15621000Y22860000D01*
X15240000Y23241000D01*
G01X17780000Y24003000D02*
X17462500Y24320500D01*
X15875000Y24320500D01*
X15621000Y24066500D01*
X15621000Y23939500D01*
X15303500Y23622000D01*
X15176500Y23622000D01*
G01X17673000Y21336000D02*
X17547800Y21336000D01*
X17018000Y21865800D01*
X17018000Y22415500D01*
X16510000Y22923500D01*
X15811500Y22923500D01*
X15494000Y23241000D01*
G01X15621000Y19050000D02*
X15811500Y18859500D01*
X15811500Y17970500D01*
X15621000Y17780000D01*
G01X15843000Y22225000D02*
X15843000Y22250000D01*
X15945000Y22352000D01*
X16129000Y22352000D01*
G01X15653000Y22415500D02*
X15653000Y22225000D01*
G01X17673000Y21590000D02*
X17649040Y21590000D01*
X17145000Y22094040D01*
X17145000Y22479000D01*
X16938700Y22685300D01*
X16934740Y22685300D01*
X16906800Y22713240D01*
X16906800Y22717200D01*
X16637000Y22987000D01*
X16002000Y22987000D01*
X15748000Y23241000D01*
G01X18034000Y16510000D02*
X16764000Y17780000D01*
X16764000Y19685000D01*
X16129000Y20320000D01*
G01X17673000Y21844000D02*
X17272000Y22245000D01*
X17272000Y22542500D01*
X16764000Y23050500D01*
X16192500Y23050500D01*
X16002000Y23241000D01*
G01X16256000Y23241000D02*
X16383000Y23114000D01*
X16891000Y23114000D01*
X16970300Y23034700D01*
X16974260Y23034700D01*
X17002200Y23006760D01*
X17002200Y23002800D01*
X17399000Y22606000D01*
X17399000Y22372000D01*
X17673000Y22098000D01*
G01X16256000Y24003000D02*
X16383000Y24130000D01*
X17335500Y24130000D01*
X17399000Y24066500D01*
X17399000Y23876000D01*
X17526000Y23749000D01*
X17716500Y23749000D01*
X18732500Y22733000D01*
G01X16628080Y15811500D02*
X16678260Y15811500D01*
X16703260Y15836500D01*
X16703260Y15901510D01*
G01X16703260Y15901510D02*
X16673490Y15871740D01*
X16625790Y15871740D01*
G01X16703260Y15901510D02*
X16703260Y15946750D01*
X16706510Y15950000D01*
X16750000Y15950000D01*
G01X16700500Y16278200D02*
X16700500Y16200500D01*
G01X16764000Y16278200D02*
X16764000Y16200000D01*
G01X16623790Y15938500D02*
X16685500Y15938500D01*
X16749000Y16002000D01*
G01X16764000Y16017000D02*
X16766000Y16019000D01*
G01X16749000Y16002000D02*
X16764000Y16017000D01*
G01X16623790Y16002000D02*
X16749000Y16002000D01*
G01X16623790Y16065500D02*
X16719500Y16065500D01*
G01X16623790Y16129000D02*
X16656000Y16129000D01*
X16719500Y16065500D01*
G01X16764000Y16100000D02*
X16764000Y16050000D01*
G01X16904210Y16129000D02*
X16793000Y16129000D01*
X16764000Y16100000D01*
G01X16764000Y16150000D02*
X16764000Y16100000D01*
G01X16806500Y16192500D02*
X16764000Y16150000D01*
G01X16766000Y16019000D02*
X16719500Y16065500D01*
G01X16766000Y16019000D02*
X16775000Y16010000D01*
X16775000Y15975000D01*
G01X16904210Y15938500D02*
X16761500Y15938500D01*
G01X16761500Y15938500D02*
X16750000Y15950000D01*
G01X16764000Y16200000D02*
X16764000Y16150000D01*
G01X16623790Y16192500D02*
X16700000Y16192500D01*
G01X16700000Y16192500D02*
X16756500Y16192500D01*
X16764000Y16200000D01*
G01X16626280Y16256000D02*
X16636500Y16256000D01*
X16700000Y16192500D01*
G01X16764000Y16050000D02*
X16764000Y16017000D01*
G01X16904210Y16065500D02*
X16779500Y16065500D01*
X16764000Y16050000D01*
G01X16775000Y15975000D02*
X16750000Y15950000D01*
G01X16775000Y15975000D02*
X16802000Y16002000D01*
X16904210Y16002000D01*
G01X16825000Y15875000D02*
X16761500Y15938500D01*
G01X16700500Y16450000D02*
X16700500Y16552800D01*
G01X16758200Y16450000D02*
X16758200Y16711200D01*
G01X16598320Y16557680D02*
X16694140Y16653500D01*
X16700500Y16653500D01*
G01X16758200Y16711200D02*
X16766000Y16719000D01*
G01X16700500Y16653500D02*
X16758200Y16711200D01*
G01X16700500Y16552800D02*
X16700500Y16653500D01*
G01X16600000Y16500000D02*
X16647700Y16500000D01*
X16700500Y16552800D01*
G01X16906210Y16707660D02*
X16777340Y16707660D01*
G01X16764000Y16721000D02*
X16766000Y16719000D01*
G01X16764000Y16974200D02*
X16764000Y16721000D01*
G01X16700500Y16875000D02*
X16700500Y16784500D01*
X16764000Y16721000D01*
G01X16812360Y16765360D02*
X16766000Y16719000D01*
G01X16777340Y16707660D02*
X16766000Y16719000D01*
G01X16827500Y16657500D02*
X16777340Y16707660D01*
G01X16700500Y16974200D02*
X16700500Y16904900D01*
G01X16600000Y16900000D02*
X16675500Y16900000D01*
X16700500Y16875000D01*
G01X16700500Y16904900D02*
X16700500Y16875000D01*
G01X16600000Y16957700D02*
X16647700Y16957700D01*
X16700500Y16904900D01*
G01X16764000Y24003000D02*
X17399000Y23368000D01*
X17399000Y22987000D01*
X17907000Y22479000D01*
X17907000Y19871540D01*
X18347540Y19431000D01*
X19685000Y19431000D01*
X20129500Y18986500D01*
X20129500Y18351500D01*
X19939000Y18161000D01*
G01X16903920Y15811500D02*
X16850000Y15811500D01*
X16825000Y15836500D01*
X16825000Y15875000D01*
G01X16906210Y15875000D02*
X16825000Y15875000D01*
G01X16904210Y16192500D02*
X16806500Y16192500D01*
G01X16827500Y16278200D02*
X16827500Y16213500D01*
G01X16827500Y16213500D02*
X16806500Y16192500D01*
G01X16901720Y16256000D02*
X16872760Y16256000D01*
X16830260Y16213500D01*
X16827500Y16213500D01*
G01X16827500Y16780500D02*
X16812360Y16765360D01*
G01X16856510Y16809510D02*
X16827500Y16780500D01*
G01X16816270Y16873010D02*
X16816270Y16791730D01*
X16827500Y16780500D01*
G01X16812360Y16765360D02*
X16906210Y16765360D01*
G01X16827500Y16522500D02*
X16827500Y16450000D01*
G01X16900000Y16500000D02*
X16850000Y16500000D01*
X16827500Y16522500D01*
G01X16827500Y16552690D02*
X16827500Y16522500D01*
G01X16906210Y16550000D02*
X16830190Y16550000D01*
X16827500Y16552690D01*
G01X16827500Y16657500D02*
X16827500Y16552690D01*
G01X16906210Y16649960D02*
X16835040Y16649960D01*
X16827500Y16657500D01*
G01X16906210Y16823060D02*
X16870060Y16823060D01*
X16856510Y16809510D01*
G01X16906210Y16900000D02*
X16881510Y16900000D01*
X16856510Y16875000D01*
X16856510Y16809510D01*
G01X16850000Y16974200D02*
X16816270Y16940470D01*
X16816270Y16873010D01*
G01X16816270Y16873010D02*
X16890960Y16947700D01*
X16897700Y16947700D01*
X16900000Y16950000D01*
G01X17673000Y18288000D02*
X17462500Y18077500D01*
X17462500Y17462500D01*
X17653000Y17272000D01*
X19558000Y17272000D01*
X19939000Y17653000D01*
G01X18351500Y18542000D02*
X18097500Y18542000D01*
X17971000Y18668500D01*
X17620170Y18668500D01*
X17619670Y18669000D01*
X17589500Y18669000D01*
X17526000Y18732500D01*
X17526000Y18903000D01*
X17673000Y19050000D01*
G01X18456000Y16056000D02*
X18088000Y16056000D01*
X18034000Y16002000D01*
G01X18456000Y16456000D02*
X18088000Y16456000D01*
X18034000Y16510000D01*
G01X19177000Y18669000D02*
X18900000Y18392000D01*
X18900000Y18000000D01*
X18743500Y17843500D01*
X17863500Y17843500D01*
X17673000Y18034000D01*
G01X18351500Y18034000D02*
X17843500Y18542000D01*
X17673000Y18542000D01*
G01X18351500Y19050000D02*
X18097500Y18796000D01*
X17673000Y18796000D01*
G01X18605500Y18796000D02*
X18478500Y18923000D01*
X18478500Y19177000D01*
X18351500Y19304000D01*
X17673000Y19304000D01*
G01X19136000Y16056000D02*
X18456000Y16056000D01*
G01X19136000Y16456000D02*
X18456000Y16456000D01*
G01X18351500Y22606000D02*
X18097500Y22352000D01*
X18097500Y19748500D01*
G01X18351500Y22860000D02*
X18605500Y22606000D01*
X18605500Y20066000D01*
X18923000Y19748500D01*
X19558000Y19748500D01*
X20256500Y19050000D01*
X20256500Y18288000D01*
X20002500Y18034000D01*
X19875500Y18034000D01*
X19494500Y17653000D01*
X19177000Y17653000D01*
G01X21272500Y22352000D02*
X20891500Y22733000D01*
X18732500Y22733000D01*
G01X19558000Y16065500D02*
X19548500Y16056000D01*
X19136000Y16056000D01*
G01X19558000Y16446500D02*
X19548500Y16456000D01*
X19136000Y16456000D01*
G01X19939000Y18415000D02*
X19431000Y17907000D01*
X19177000Y17907000D01*
G01X19939000Y18669000D02*
X19748500Y18478500D01*
X19367500Y18478500D01*
X19177000Y18669000D01*
G01X19177000Y18415000D02*
X19177000Y18161000D01*
G01X21272500Y19812000D02*
X21145500Y19939000D01*
X20383500Y19939000D01*
X20320000Y19875500D01*
X19240500Y19875500D01*
X19113500Y20002500D01*
X19113500Y20637500D01*
X19304000Y20828000D01*
G01X21272500Y20066000D02*
X21399500Y20193000D01*
X21399500Y20383500D01*
X21336000Y20447000D01*
X21209000Y20447000D01*
X20955000Y20701000D01*
X19431000Y20701000D01*
X19304000Y20574000D01*
G01X21272500Y20320000D02*
X21028680Y20320000D01*
X20901680Y20447000D01*
X19431000Y20447000D01*
X19304000Y20320000D01*
G01X20066000Y20066000D02*
X19558000Y20066000D01*
X19431000Y19939000D01*
G01X21272500Y22098000D02*
X21463000Y21907500D01*
X21463000Y19177000D01*
X19939000Y17653000D01*
G54D22*
X14859000Y19812000D03*
X19304000Y22352000D03*
X20510500Y22606000D03*
G54D13*
X12700000Y16383000D03*
X12700000Y16764000D03*
G54D32*
G01X12700000Y16383000D02*
X14310000Y16383000D01*
X14490000Y16203000D01*
G01X12700000Y16764000D02*
X12879000Y16943000D01*
X14490000Y16943000D01*
G01X14490000Y16203000D02*
X14490000Y16073000D01*
G01X15367000Y16510000D02*
X14850640Y16510000D01*
X14541140Y16200500D01*
X14492500Y16200500D01*
X14490000Y16203000D01*
G01X14490000Y16943000D02*
X15188000Y16943000D01*
X15367000Y16764000D01*
G01X16766000Y16719000D02*
X16169000Y16719000D01*
X15706000Y16256000D01*
X15367000Y16256000D01*
G54D23*
X15367000Y16256000D03*
X15367000Y16510000D03*
G54D14*
X12954000Y20828000D03*
X12954000Y21082000D03*
X12954000Y21336000D03*
X12954000Y21590000D03*
X13716000Y21082000D03*
X13716000Y21336000D03*
X13716000Y21590000D03*
X14605000Y20574000D03*
X14605000Y20828000D03*
X14605000Y21082000D03*
X14605000Y21336000D03*
X14605000Y21590000D03*
X14605000Y21844000D03*
X14605000Y22098000D03*
X14605000Y22352000D03*
X14986000Y23241000D03*
X14986000Y24003000D03*
X15367000Y20574000D03*
X15367000Y21082000D03*
X15367000Y20828000D03*
X15367000Y21336000D03*
X15367000Y21844000D03*
X15367000Y21590000D03*
X15367000Y22352000D03*
X15367000Y22098000D03*
X15367000Y22606000D03*
X15494000Y23241000D03*
X15240000Y23241000D03*
X15240000Y24003000D03*
X15494000Y24003000D03*
X15748000Y23241000D03*
X15748000Y24003000D03*
X16256000Y23241000D03*
X16002000Y23241000D03*
X16002000Y24003000D03*
X16256000Y24003000D03*
X16764000Y23241000D03*
X16510000Y23241000D03*
X16510000Y24003000D03*
X16764000Y24003000D03*
X17272000Y23241000D03*
X17018000Y23241000D03*
X17018000Y24003000D03*
X17272000Y24003000D03*
X17526000Y23241000D03*
X17526000Y24003000D03*
X17780000Y23241000D03*
X19177000Y17399000D03*
X19177000Y17653000D03*
X19177000Y17907000D03*
X19177000Y18161000D03*
X19177000Y18415000D03*
X19177000Y18669000D03*
X19939000Y17653000D03*
X19939000Y17399000D03*
X19939000Y17907000D03*
X19939000Y18415000D03*
X19939000Y18161000D03*
X19939000Y18923000D03*
X19939000Y18669000D03*
G54D24*
X15367000Y16764000D03*
G54D15*
X13075000Y20923000D03*
X13208000Y21780500D03*
X13081000Y23650000D03*
X13157250Y24142750D03*
X13579000Y21508000D03*
X13462000Y21780500D03*
X13970000Y22542500D03*
X14033500Y22606000D03*
X13906500Y22479000D03*
X14350000Y15900000D03*
X14350000Y16100000D03*
X14350000Y16000000D03*
X14478000Y17843500D03*
X14478000Y18288000D03*
X14478000Y19304000D03*
X14478000Y19748500D03*
X14650000Y15900000D03*
X14650000Y16100000D03*
X14650000Y16000000D03*
X14859000Y21272500D03*
X14859000Y22288500D03*
X14732000Y22810930D03*
X15049500Y23495000D03*
X15367000Y18161000D03*
X15367000Y20066000D03*
X15113000Y22288500D03*
X15176500Y23622000D03*
X15653000Y22415500D03*
X15938500Y22606000D03*
X16623790Y15938500D03*
X16625790Y15871740D03*
X16628080Y15811500D03*
X16623790Y16129000D03*
X16623790Y16065500D03*
X16623790Y16002000D03*
X16764000Y16278200D03*
X16623790Y16192500D03*
X16700500Y16278200D03*
X16626280Y16256000D03*
X16598320Y16557680D03*
X16758200Y16450000D03*
X16700500Y16450000D03*
X16600000Y16500000D03*
X16764000Y16974200D03*
X16700500Y16974200D03*
X16600000Y16957700D03*
X16600000Y16900000D03*
X16383000Y17462500D03*
X16383000Y18351500D03*
X16573500Y21590000D03*
X16573500Y21844000D03*
X16573500Y22098000D03*
X16906210Y15875000D03*
X16903920Y15811500D03*
X16904210Y15938500D03*
X16904210Y16002000D03*
X16904210Y16065500D03*
X16904210Y16129000D03*
X16827500Y16278200D03*
X16904210Y16192500D03*
X16901720Y16256000D03*
X16906210Y16765360D03*
X16906210Y16649960D03*
X16906210Y16707660D03*
X16906210Y16550000D03*
X16900000Y16500000D03*
X16827500Y16450000D03*
X16906210Y16823060D03*
X16850000Y16974200D03*
X16906210Y16900000D03*
X16900000Y16950000D03*
X17208500Y21844000D03*
X17208500Y22098000D03*
X17208500Y22352000D03*
X16954500Y22733000D03*
X16954500Y22987000D03*
X17481000Y21672000D03*
X17350000Y22733000D03*
X17526000Y22733000D03*
X17526000Y23558500D03*
X18034000Y16002000D03*
X18034000Y16510000D03*
X17780000Y22733000D03*
X17780000Y23558500D03*
X18097500Y19748500D03*
X18732500Y22733000D03*
X19367500Y18669000D03*
X19367500Y18923000D03*
X19558000Y16065500D03*
X19558000Y16446500D03*
X19558000Y17018000D03*
X19640000Y18351500D03*
X19431000Y19939000D03*
X19767000Y22815000D03*
X19494500Y22606000D03*
X20725000Y20828000D03*
X20725000Y21336000D03*
X20725000Y21590000D03*
X20725000Y21844000D03*
X20764500Y22606000D03*
X21037000Y22987000D03*
X20764500Y22860000D03*
X21145500Y22352000D03*
G54D16*
X13701000Y17592000D03*
X13701000Y20092000D03*
G54D25*
X15843000Y22225000D03*
X15653000Y22225000D03*
G54D17*
X13559000Y18426500D03*
X13843000Y18565000D03*
X13843000Y18288000D03*
X13559000Y18980500D03*
X13559000Y18703500D03*
X13843000Y18842000D03*
X13559000Y19257500D03*
X13843000Y19396000D03*
X13843000Y19119000D03*
X14859000Y17526000D03*
X14859000Y17780000D03*
X14859000Y18034000D03*
X14859000Y18288000D03*
X14859000Y18542000D03*
X14859000Y18796000D03*
X14859000Y19050000D03*
X14859000Y19304000D03*
X14859000Y19558000D03*
X15621000Y17526000D03*
X15621000Y18034000D03*
X15621000Y17780000D03*
X15621000Y18542000D03*
X15621000Y18288000D03*
X15621000Y18796000D03*
X15621000Y19304000D03*
X15621000Y19050000D03*
X15621000Y19812000D03*
X15621000Y19558000D03*
X19304000Y20066000D03*
X19304000Y20320000D03*
X19304000Y20574000D03*
X19304000Y20828000D03*
X19304000Y21082000D03*
X19304000Y21336000D03*
X19304000Y21590000D03*
X19304000Y21844000D03*
X19304000Y22098000D03*
X20066000Y20066000D03*
X20066000Y20574000D03*
X20066000Y20320000D03*
X20066000Y21082000D03*
X20066000Y20828000D03*
X20066000Y21336000D03*
X20066000Y21844000D03*
X20066000Y21590000D03*
X20066000Y22352000D03*
X20066000Y22098000D03*
X20510500Y19304000D03*
X20510500Y19558000D03*
X20510500Y19812000D03*
X20510500Y20066000D03*
X20510500Y20320000D03*
X20510500Y20574000D03*
X20510500Y20828000D03*
X20510500Y21082000D03*
X20510500Y21336000D03*
X20510500Y21590000D03*
X20510500Y21844000D03*
X20510500Y22098000D03*
X20510500Y22352000D03*
X21272500Y19304000D03*
X21272500Y19812000D03*
X21272500Y19558000D03*
X21272500Y20066000D03*
X21272500Y20574000D03*
X21272500Y20320000D03*
X21272500Y21082000D03*
X21272500Y20828000D03*
X21272500Y21336000D03*
X21272500Y21844000D03*
X21272500Y21590000D03*
X21272500Y22352000D03*
X21272500Y22098000D03*
X21272500Y22606000D03*
G54D26*
X16129000Y17526000D03*
X16129000Y17780000D03*
X16129000Y18034000D03*
X16129000Y18288000D03*
X16129000Y18542000D03*
X16129000Y18796000D03*
X16129000Y19050000D03*
X16129000Y19304000D03*
X16129000Y19558000D03*
X16129000Y19812000D03*
X16129000Y20066000D03*
X16129000Y20320000D03*
X16129000Y20574000D03*
X16129000Y20828000D03*
X16129000Y21082000D03*
X16129000Y21336000D03*
X16129000Y21590000D03*
X16129000Y21844000D03*
X16129000Y22098000D03*
X17673000Y17526000D03*
X17673000Y18034000D03*
X17673000Y17780000D03*
X17673000Y18542000D03*
X17673000Y18288000D03*
X17673000Y18796000D03*
X17673000Y19304000D03*
X17673000Y19050000D03*
X17673000Y19812000D03*
X17673000Y19558000D03*
X17673000Y20066000D03*
X17673000Y20574000D03*
X17673000Y20320000D03*
X17673000Y21082000D03*
X17673000Y20828000D03*
X17673000Y21336000D03*
X17673000Y21844000D03*
X17673000Y21590000D03*
X17673000Y22352000D03*
X17673000Y22098000D03*
G54D27*
X16129000Y22352000D03*
G54D18*
X13716000Y20828000D03*
X14605000Y22606000D03*
X17780000Y24003000D03*
X19177000Y18923000D03*
G54D19*
X13700000Y23600000D03*
X20700000Y16600000D03*
X20700000Y23600000D03*
G54D28*
X16766000Y16019000D03*
X16766000Y16719000D03*
G54D29*
X18456000Y16056000D03*
X18456000Y16456000D03*
X19136000Y16056000D03*
X19136000Y16456000D03*
M02*
