G04 ================== begin FILE IDENTIFICATION RECORD ==================*
G04 Layout Name:  byggernnode1.brd*
G04 Film Name:    2_LAYER_1*
G04 File Format:  Gerber RS274X*
G04 File Origin:  Cadence Allegro 24.1-P001*
G04 Origin Date:  Wed Nov  6 06:11:47 2024*
G04 *
G04 Layer:  VIA CLASS/LAYER_1*
G04 Layer:  PIN/LAYER_1*
G04 Layer:  ETCH/LAYER_1*
G04 *
G04 Offset:    (0.0000 0.0000)*
G04 Mirror:    No*
G04 Mode:      Positive*
G04 Rotation:  0*
G04 FullContactRelief:  No*
G04 UndefLineWidth:     0.1500*
G04 ================== end FILE IDENTIFICATION RECORD ====================*
%FSAX35Y35*MOMM*%
%IR0*IPPOS*OFA0.00000B0.00000*MIA0B0*SFA1.00000B1.00000*%
%ADD15C,.45*%
%ADD14C,1.4*%
%ADD13C,1.5*%
%ADD17C,1.5001*%
%ADD20C,1.8*%
%ADD18C,7.4*%
%ADD21C,1.524*%
%ADD16C,4.8*%
%ADD10C,1.4224*%
%ADD19C,1.935*%
%ADD11R,1.4224X1.4224*%
%ADD12C,1.6764*%
%ADD22C,.25*%
%ADD24C,.7044*%
%ADD23C,2.*%
%ADD36C,2.0004*%
%ADD28C,2.0006*%
%ADD30C,2.3004*%
%ADD33C,2.0244*%
%ADD32C,5.3004*%
%ADD25C,1.9004*%
%ADD35C,2.4354*%
%ADD31C,1.6544*%
%ADD27C,7.9004*%
%ADD29C,1.9228*%
%ADD26C,2.1768*%
%ADD34C,1.7784*%
G75*
%LPD*%
G75*
G36*
G01X12438000Y24383990D02*
X21038000Y24383990D01*
G02X21537990Y23884000I0J-00499990D01*
G01X21537990Y16284000D01*
G02X21038000Y15784010I-00499990J0D01*
G01X16945860Y15784010D01*
G02X16936470Y15798050I0J00010160D01*
G03X16939140Y15811500I-00032542J00013450D01*
G03X16929940Y15835240I-00035230J0D01*
G02X16930450Y15849450I00007507J00006845D01*
G03X16941430Y15875000I-00024237J00025550D01*
G03X16930570Y15900430I-00035217J-00000006D01*
G02X16930130Y15914650I00007031J00007334D01*
G03X16939430Y15938500I-00025932J00023850D01*
G03X16929370Y15963140I-00035218J-00000005D01*
G02X16929370Y15977360I00007263J00007110D01*
G03X16939430Y16002000I-00025158J00024645D01*
G03X16929370Y16026640I-00035218J-00000005D01*
G02X16929370Y16040860I00007263J00007110D01*
G03X16939430Y16065500I-00025158J00024645D01*
G03X16929370Y16090140I-00035218J-00000005D01*
G02X16929370Y16104360I00007263J00007110D01*
G03X16939430Y16129000I-00025158J00024645D01*
G03X16929370Y16153640I-00035218J-00000005D01*
G02X16929370Y16167860I00007263J00007110D01*
G03X16939430Y16192500I-00025158J00024645D01*
G03X16928370Y16218130I-00035227J0D01*
G02X16927810Y16232340I00006970J00007391D01*
G03X16936940Y16256000I-00026092J00023660D01*
G03X16901720Y16291220I-00035220J0D01*
G03X16878180Y16282190I00000007J-00035217D01*
G02X16861560Y16287160I-00006793J00007558D01*
G03X16827500Y16313420I-00034060J-00008958D01*
G03X16802860Y16303360I00000005J-00035218D01*
G02X16788640Y16303360I-00007110J00007263D01*
G03X16764000Y16313420I-00024645J-00025158D01*
G03X16739360Y16303360I00000005J-00035218D01*
G02X16725140Y16303360I-00007110J00007263D01*
G03X16700500Y16313420I-00024645J-00025158D01*
G03X16666440Y16287160I0J-00035218D01*
G02X16649820Y16282190I-00009827J00002588D01*
G03X16626280Y16291220I-00023547J-00026187D01*
G03X16591060Y16256000I0J-00035220D01*
G03X16600190Y16232340I00035222J0D01*
G02X16599630Y16218130I-00007530J-00006819D01*
G03X16588570Y16192500I00024167J-00025630D01*
G03X16598630Y16167860I00035218J00000005D01*
G02X16598630Y16153640I-00007263J-00007110D01*
G03X16588570Y16129000I00025158J-00024645D01*
G03X16598630Y16104360I00035218J00000005D01*
G02X16598630Y16090140I-00007263J-00007110D01*
G03X16588570Y16065500I00025158J-00024645D01*
G03X16598630Y16040860I00035218J00000005D01*
G02X16598630Y16026640I-00007263J-00007110D01*
G03X16588570Y16002000I00025158J-00024645D01*
G03X16598630Y15977360I00035218J00000005D01*
G02X16598630Y15963140I-00007263J-00007110D01*
G03X16588570Y15938500I00025158J-00024645D01*
G03X16600730Y15911880I00035218J0D01*
G02X16601180Y15896930I-00006651J-00007682D01*
G03X16590570Y15871740I00024598J-00025190D01*
G03X16600370Y15847360I00035226J0D01*
G02X16600880Y15833880I-00007335J-00007027D01*
G03X16592860Y15811510I00027202J-00022375D01*
G01X16592860Y15811500D01*
G03X16595530Y15798050I00035212J0D01*
G02X16586140Y15784010I-00009390J-00003880D01*
G01X12438000Y15784010D01*
G02X11938010Y16284000I0J00499990D01*
G01X11938010Y23884000D01*
G02X12438000Y24383990I00499990J0D01*
G37*
%LPC*%
G75*
G36*
G01X14817800Y18450850D02*
G02X14758970Y18542000I00041198J00091150D01*
G02X14959030Y18542000I00100030J0D01*
G02X14900200Y18450850I-00100028J0D01*
G03X14901510Y18431850I00004189J-00009256D01*
G02X14901510Y18144150I-00042510J-00143850D01*
G03X14900200Y18125150I00002879J-00009744D01*
G02X14959030Y18034000I-00041198J-00091150D01*
G02X14758970Y18034000I-00100030J0D01*
G02X14817800Y18125150I00100028J0D01*
G03X14816490Y18144150I-00004189J00009256D01*
G02X14816490Y18431850I00042510J00143850D01*
G03X14817800Y18450850I-00002879J00009744D01*
G37*
G36*
G01X19903920Y18777160D02*
G02X19789000Y18923000I00035080J00145840D01*
G02X20089000Y18923000I00150000J0D01*
G02X19974080Y18777160I-00150000J0D01*
G03X19972840Y18757790I00002380J-00009877D01*
G02X20034020Y18669000I-00033840J-00088790D01*
G02X19843980Y18669000I-00095020J0D01*
G02X19905160Y18757790I00095020J0D01*
G03X19903920Y18777160I-00003620J00009493D01*
G37*
G36*
G01X13682130Y21501220D02*
G02X13620980Y21590000I00033872J00088780D01*
G02X13811020Y21590000I00095020J0D01*
G02X13749870Y21501220I-00095022J0D01*
G03X13751120Y21481850I00003623J-00009492D01*
G02X13751120Y21190150I-00035118J-00145850D01*
G03X13749870Y21170780I00002373J-00009878D01*
G02X13811020Y21082000I-00033872J-00088780D01*
G02X13620980Y21082000I-00095020J0D01*
G02X13682130Y21170780I00095022J0D01*
G03X13680880Y21190150I-00003623J00009492D01*
G02X13680880Y21481850I00035118J00145850D01*
G03X13682130Y21501220I-00002373J00009878D01*
G37*
G36*
G01X20023490Y22208150D02*
G02X19916000Y22352000I00042510J00143850D01*
G02X20216000Y22352000I00150000J0D01*
G02X20108510Y22208150I-00150000J0D01*
G03X20107200Y22189150I00002879J-00009744D01*
G02X20166030Y22098000I-00041198J-00091150D01*
G02X19965970Y22098000I-00100030J0D01*
G02X20024800Y22189150I00100028J0D01*
G03X20023490Y22208150I-00004189J00009256D01*
G37*
G36*
G01X13906100Y22443730D02*
X13904200Y22443860D01*
G02X13871280Y22479000I00002295J00035140D01*
G02X13906500Y22514220I00035220J0D01*
G02X13941640Y22481300I0J-00035215D01*
G01X13941770Y22479400D01*
X14424950Y21996220D01*
X14553340Y21996220D01*
G03X14558330Y22015230I00000002J00010159D01*
G02X14509980Y22098000I00046672J00082770D01*
G02X14700020Y22098000I00095020J0D01*
G02X14651670Y22015230I-00095022J0D01*
G03X14656660Y21996220I00004988J-00008851D01*
G01X15315340Y21996220D01*
G03X15320330Y22015230I00000002J00010159D01*
G02X15271980Y22098000I00046672J00082770D01*
G02X15462020Y22098000I00095020J0D01*
G02X15413670Y22015230I-00095022J0D01*
G03X15418660Y21996220I00004988J-00008851D01*
G01X15991550Y21996220D01*
X16031810Y22036480D01*
G02X16013980Y22098000I00097192J00061512D01*
G02X16129000Y21982980I00115020J0D01*
G02X16070820Y21998780I0J00115017D01*
G01X16067430Y22000770D01*
X16019830Y21953170D01*
G02X16002000Y21945780I-00017830J00017814D01*
G01X15418660Y21945780D01*
G03X15413670Y21926770I-00000002J-00010159D01*
G02X15462020Y21844000I-00046672J-00082770D01*
G02X15271980Y21844000I-00095020J0D01*
G02X15320330Y21926770I00095022J0D01*
G03X15315340Y21945780I-00004988J00008851D01*
G01X14656660Y21945780D01*
G03X14651670Y21926770I-00000002J-00010159D01*
G02X14700020Y21844000I-00046672J-00082770D01*
G02X14509980Y21844000I-00095020J0D01*
G02X14558330Y21926770I00095022J0D01*
G03X14553340Y21945780I-00004988J00008851D01*
G01X14414500Y21945780D01*
G02X14396670Y21953170I0J00025204D01*
G01X13906100Y22443730D01*
G37*
G36*
G01X21229990Y22462150D02*
G02X21122500Y22606000I00042510J00143850D01*
G02X21422500Y22606000I00150000J0D01*
G02X21315010Y22462150I-00150000J0D01*
G03X21313700Y22443150I00002879J-00009744D01*
G02X21372530Y22352000I-00041198J-00091150D01*
G02X21272500Y22251970I-00100030J0D01*
G02X21178820Y22316930I0J00100029D01*
G03X21163980Y22322020I-00009515J-00003564D01*
G02X21145500Y22316780I-00018480J00029967D01*
G02X21145500Y22387220I0J00035220D01*
G02X21163980Y22381980I0J-00035207D01*
G03X21178820Y22387070I00005325J00008654D01*
G02X21231300Y22443150I00093680J-00035071D01*
G03X21229990Y22462150I-00004189J00009256D01*
G37*
G36*
G01X17613840Y22196640D02*
G03X17612700Y22214650I-00005227J00008710D01*
G02X17523000Y22352000I00060306J00137350D01*
G02X17823000Y22352000I00150000J0D01*
G02X17733300Y22214650I-00150006J0D01*
G03X17732160Y22196640I00004087J-00009300D01*
G02X17788020Y22098000I-00059161J-00098640D01*
G02X17557980Y22098000I-00115020J0D01*
G02X17613840Y22196640I00115021J0D01*
G37*
G36*
G01X15299880Y16390150D02*
G03X15300850Y16407760I-00004547J00009082D01*
G02X15245230Y16510000I00066158J00102240D01*
G02X15488770Y16510000I00121770J0D01*
G02X15433150Y16407760I-00121778J0D01*
G03X15434120Y16390150I00005517J-00008528D01*
G02X15517000Y16256000I-00067128J-00134150D01*
G02X15217000Y16256000I-00150000J0D01*
G02X15299880Y16390150I00150008J0D01*
G37*
G36*
G01X12349860Y20756880D02*
X12349860Y20899120D01*
G02X12374880Y20924140I00025020J0D01*
G01X12517120Y20924140D01*
G02X12542140Y20899120I0J-00025020D01*
G01X12542140Y20756880D01*
G02X12517120Y20731860I-00025020J0D01*
G01X12374880Y20731860D01*
G02X12349860Y20756880I0J00025020D01*
G37*
G36*
G01X12349860Y21899880D02*
X12349860Y22042120D01*
G02X12374880Y22067140I00025020J0D01*
G01X12517120Y22067140D01*
G02X12542140Y22042120I0J-00025020D01*
G01X12542140Y21899880D01*
G02X12517120Y21874860I-00025020J0D01*
G01X12374880Y21874860D01*
G02X12349860Y21899880I0J00025020D01*
G37*
G36*
G01X14159670Y22767830D02*
G02X14177500Y22775220I00017830J-00017814D01*
G01X16112010Y22775220D01*
G02X16129840Y22767830I0J-00025204D01*
G01X16400830Y22496840D01*
G02X16408220Y22479010I-00017828J-00017836D01*
G01X16408220Y21844000D01*
G02X16400830Y21826170I-00025218J00000006D01*
G01X16226230Y21651570D01*
X16228220Y21648180D01*
G02X16244020Y21590000I-00099217J-00058180D01*
G02X16129000Y21705020I-00115020J0D01*
G02X16190520Y21687190I00000008J-00115022D01*
G01X16357780Y21854450D01*
X16357780Y22468560D01*
X16101560Y22724780D01*
X15484700Y22724780D01*
G03X15477230Y22707730I-00000003J-00010160D01*
G02X15517000Y22606000I-00110226J-00101730D01*
G02X15490360Y22520660I-00150011J0D01*
G03X15498710Y22504720I00008354J-00005781D01*
G01X16181830Y22504720D01*
G02X16199660Y22497330I0J-00025204D01*
G01X16337330Y22359660D01*
G02X16344720Y22341830I-00017828J-00017836D01*
G01X16344720Y22034500D01*
G02X16337330Y22016670I-00025218J00000006D01*
G01X16226230Y21905570D01*
X16228220Y21902180D01*
G02X16244020Y21844000I-00099217J-00058180D01*
G02X16129000Y21959020I-00115020J0D01*
G02X16190520Y21941190I00000008J-00115022D01*
G01X16294280Y22044950D01*
X16294280Y22331380D01*
X16261250Y22364410D01*
G03X16243920Y22356800I-00007180J-00007187D01*
G02X16244020Y22352000I-00114920J-00004795D01*
G02X16013980Y22352000I-00115020J0D01*
G02X16051120Y22436640I00115015J0D01*
G03X16044240Y22454280I-00006876J00007480D01*
G01X15688220Y22454280D01*
G03X15680330Y22437710I-00000006J-00010161D01*
G02X15688220Y22415500I-00027328J-00022215D01*
G02X15617780Y22415500I-00035220J0D01*
G02X15625670Y22437710I00035218J-00000005D01*
G03X15617780Y22454280I-00007884J00006409D01*
G01X15417760Y22454280D01*
G03X15412860Y22435220I0J-00010160D01*
G02X15462020Y22352000I-00045859J-00083220D01*
G02X15271980Y22352000I-00095020J0D01*
G02X15321140Y22435220I00095019J0D01*
G03X15316240Y22454280I-00004900J00008900D01*
G01X14655760Y22454280D01*
G03X14650860Y22435220I0J-00010160D01*
G02X14700020Y22352000I-00045859J-00083220D01*
G02X14509980Y22352000I-00095020J0D01*
G02X14559140Y22435220I00095019J0D01*
G03X14554240Y22454280I-00004900J00008900D01*
G01X14033000Y22454280D01*
G02X14015170Y22461670I0J00025204D01*
G01X13969600Y22507230D01*
X13967700Y22507360D01*
G02X13934780Y22542500I00002295J00035140D01*
G02X13970000Y22577720I00035220J0D01*
G02X14005140Y22544800I0J-00035215D01*
G01X14005270Y22542900D01*
X14043450Y22504720D01*
X14552470Y22504720D01*
G03X14557540Y22523680I-00000005J00010159D01*
G02X14509980Y22606000I00047462J00082320D01*
G02X14700020Y22606000I00095020J0D01*
G02X14652460Y22523680I-00095022J0D01*
G03X14657530Y22504720I00005075J-00008801D01*
G01X15235290Y22504720D01*
G03X15243640Y22520660I-00000004J00010159D01*
G02X15217000Y22606000I00123371J00085340D01*
G02X15256770Y22707730I00149996J0D01*
G03X15249300Y22724780I-00007467J00006890D01*
G01X14187950Y22724780D01*
X14068770Y22605600D01*
X14068640Y22603700D01*
G02X14033500Y22570780I-00035140J00002295D01*
G02X13998280Y22606000I0J00035220D01*
G02X14031200Y22641140I00035215J0D01*
G01X14033100Y22641270D01*
X14159670Y22767830D01*
G37*
G54D24*
X13157250Y24142750D03*
X17780000Y23558500D03*
X17526000Y23558500D03*
X15176500Y23622000D03*
X15049500Y23495000D03*
X13081000Y23650000D03*
X20764500Y22860000D03*
X16954500Y22987000D03*
X20764500Y22606000D03*
X19494500Y22606000D03*
X18732500Y22733000D03*
X17780000Y22733000D03*
X17526000Y22733000D03*
X16954500Y22733000D03*
X15938500Y22606000D03*
X17208500Y22352000D03*
X17208500Y22098000D03*
X16573500Y22098000D03*
X15113000Y22288500D03*
X14859000Y22288500D03*
X20725000Y21844000D03*
X20725000Y21590000D03*
X17208500Y21844000D03*
X16573500Y21844000D03*
X16573500Y21590000D03*
X13462000Y21780500D03*
X13208000Y21780500D03*
X20725000Y21336000D03*
X14859000Y21272500D03*
X20725000Y20828000D03*
X19431000Y19939000D03*
X15367000Y20066000D03*
X18097500Y19748500D03*
X14478000Y19748500D03*
X14478000Y19304000D03*
X19367500Y18923000D03*
X19367500Y18669000D03*
X16383000Y18351500D03*
X14478000Y18288000D03*
X14478000Y17843500D03*
X16383000Y17462500D03*
X19558000Y16446500D03*
X18034000Y16510000D03*
X19558000Y16065500D03*
X18034000Y16002000D03*
X14650000Y16000000D03*
X14650000Y16100000D03*
X14350000Y16000000D03*
X14350000Y16100000D03*
X14650000Y15900000D03*
X14350000Y15900000D03*
G54D23*
X16764000Y23241000D03*
X17272000Y23241000D03*
G54D36*
X12700000Y16764000D03*
X12700000Y16383000D03*
G54D28*
X20510500Y22606000D03*
X21272500Y22098000D03*
X20510500Y22352000D03*
X20510500Y22098000D03*
X19304000Y22352000D03*
X19304000Y22098000D03*
X21272500Y21590000D03*
X21272500Y21844000D03*
X20510500Y21844000D03*
X20510500Y21590000D03*
X20066000Y21590000D03*
X20066000Y21844000D03*
X19304000Y21844000D03*
X19304000Y21590000D03*
X21272500Y21336000D03*
X20510500Y21336000D03*
X20066000Y21336000D03*
X19304000Y21336000D03*
X21272500Y20828000D03*
X21272500Y21082000D03*
X20510500Y21082000D03*
X20510500Y20828000D03*
X20066000Y20828000D03*
X20066000Y21082000D03*
X19304000Y21082000D03*
X19304000Y20828000D03*
X21272500Y20320000D03*
X21272500Y20574000D03*
X20510500Y20574000D03*
X20510500Y20320000D03*
X20066000Y20320000D03*
X20066000Y20574000D03*
X19304000Y20574000D03*
X19304000Y20320000D03*
X21272500Y20066000D03*
X20510500Y20066000D03*
X20066000Y20066000D03*
X19304000Y20066000D03*
X21272500Y19558000D03*
X21272500Y19812000D03*
X20510500Y19812000D03*
X20510500Y19558000D03*
X15621000Y19558000D03*
X15621000Y19812000D03*
X14859000Y19812000D03*
X14859000Y19558000D03*
X21272500Y19304000D03*
X20510500Y19304000D03*
X15621000Y19050000D03*
X15621000Y19304000D03*
X14859000Y19304000D03*
X14859000Y19050000D03*
X13843000Y19119000D03*
X13843000Y19396000D03*
X13559000Y19257500D03*
X15621000Y18796000D03*
X14859000Y18796000D03*
X13843000Y18842000D03*
X13559000Y18703500D03*
X13559000Y18980500D03*
X15621000Y18288000D03*
X15621000Y18542000D03*
X13843000Y18288000D03*
X13843000Y18565000D03*
X13559000Y18426500D03*
X15621000Y17780000D03*
X15621000Y18034000D03*
X14859000Y17780000D03*
X15621000Y17526000D03*
X14859000Y17526000D03*
G54D30*
X17673000Y21844000D03*
X17673000Y21590000D03*
X17673000Y21336000D03*
X16129000Y21336000D03*
X17673000Y21082000D03*
X17673000Y20828000D03*
X16129000Y20828000D03*
X16129000Y21082000D03*
X17673000Y20574000D03*
X17673000Y20320000D03*
X16129000Y20320000D03*
X16129000Y20574000D03*
X17673000Y20066000D03*
X16129000Y20066000D03*
X17673000Y19812000D03*
X17673000Y19558000D03*
X16129000Y19558000D03*
X16129000Y19812000D03*
X17673000Y19304000D03*
X17673000Y19050000D03*
X16129000Y19050000D03*
X16129000Y19304000D03*
X17673000Y18796000D03*
X16129000Y18796000D03*
X17673000Y18542000D03*
X17673000Y18288000D03*
X16129000Y18288000D03*
X16129000Y18542000D03*
X17673000Y18034000D03*
X17673000Y17780000D03*
X16129000Y17780000D03*
X16129000Y18034000D03*
X17673000Y17526000D03*
X16129000Y17526000D03*
G54D33*
X18605500Y19050000D03*
X18351500Y19050000D03*
X18605500Y18796000D03*
X18605500Y18542000D03*
X18605500Y18288000D03*
X18351500Y18542000D03*
X18351500Y18288000D03*
X18605500Y18034000D03*
X18351500Y18034000D03*
G54D32*
X13701000Y20092000D03*
X13701000Y17592000D03*
G54D25*
X17780000Y24003000D03*
X17526000Y24003000D03*
X17272000Y24003000D03*
X17018000Y24003000D03*
X16764000Y24003000D03*
X16510000Y24003000D03*
X16256000Y24003000D03*
X16002000Y24003000D03*
X15748000Y24003000D03*
X15494000Y24003000D03*
X15240000Y24003000D03*
X14986000Y24003000D03*
X17780000Y23241000D03*
X17526000Y23241000D03*
X17018000Y23241000D03*
X16510000Y23241000D03*
X16002000Y23241000D03*
X16256000Y23241000D03*
X15748000Y23241000D03*
X15240000Y23241000D03*
X15494000Y23241000D03*
X14986000Y23241000D03*
X15367000Y21590000D03*
X14605000Y21590000D03*
X15367000Y21336000D03*
X14605000Y21336000D03*
X12954000Y21336000D03*
X15367000Y20828000D03*
X15367000Y21082000D03*
X14605000Y21082000D03*
X14605000Y20828000D03*
X13716000Y20828000D03*
X12954000Y21082000D03*
X12954000Y20828000D03*
X15367000Y20574000D03*
X14605000Y20574000D03*
X19177000Y18669000D03*
X19939000Y18161000D03*
X19939000Y18415000D03*
X19177000Y18415000D03*
X19177000Y18161000D03*
X19177000Y17907000D03*
X19939000Y17399000D03*
X19939000Y17653000D03*
X19177000Y17653000D03*
X19177000Y17399000D03*
G54D35*
X15367000Y16764000D03*
G54D31*
X12954000Y21590000D03*
X19177000Y18923000D03*
X19939000Y17907000D03*
G54D27*
X20700000Y23600000D03*
X13700000Y23600000D03*
X20700000Y16600000D03*
G54D29*
X12446000Y22479000D03*
X12446000Y22225000D03*
X12446000Y21336000D03*
X12446000Y21082000D03*
G54D26*
X12446000Y24003000D03*
X12446000Y23749000D03*
X12446000Y23495000D03*
X12446000Y23241000D03*
X18351500Y22860000D03*
X18351500Y22606000D03*
X18351500Y22352000D03*
X18351500Y22098000D03*
X18351500Y21844000D03*
X18351500Y21590000D03*
X18351500Y21336000D03*
X18351500Y21082000D03*
X18351500Y20828000D03*
X18351500Y20574000D03*
X18351500Y20320000D03*
X18351500Y20066000D03*
G54D34*
X18351500Y18796000D03*
%LPD*%
G75*
G54D10*
X12446000Y21082000D03*
X12446000Y21336000D03*
X12446000Y22225000D03*
X12446000Y22479000D03*
G54D11*
X12446000Y20828000D03*
X12446000Y21971000D03*
G54D20*
X16129000Y17526000D03*
X16129000Y17780000D03*
X16129000Y18034000D03*
X16129000Y18288000D03*
X16129000Y18542000D03*
X16129000Y18796000D03*
X16129000Y19050000D03*
X16129000Y19304000D03*
X16129000Y19558000D03*
X16129000Y19812000D03*
X16129000Y20066000D03*
X16129000Y20320000D03*
X16129000Y20574000D03*
X16129000Y20828000D03*
X16129000Y21082000D03*
X16129000Y21336000D03*
X16129000Y21590000D03*
X16129000Y21844000D03*
X16129000Y22098000D03*
X16129000Y22352000D03*
X17673000Y17526000D03*
X17673000Y18034000D03*
X17673000Y17780000D03*
X17673000Y18542000D03*
X17673000Y18288000D03*
X17673000Y18796000D03*
X17673000Y19304000D03*
X17673000Y19050000D03*
X17673000Y19812000D03*
X17673000Y19558000D03*
X17673000Y20066000D03*
X17673000Y20574000D03*
X17673000Y20320000D03*
X17673000Y21082000D03*
X17673000Y20828000D03*
X17673000Y21336000D03*
X17673000Y21844000D03*
X17673000Y21590000D03*
X17673000Y22352000D03*
X17673000Y22098000D03*
G54D12*
X12446000Y23241000D03*
X12446000Y23495000D03*
X12446000Y24003000D03*
X12446000Y23749000D03*
X18351500Y20066000D03*
X18351500Y20574000D03*
X18351500Y20320000D03*
X18351500Y21082000D03*
X18351500Y20828000D03*
X18351500Y21590000D03*
X18351500Y21336000D03*
X18351500Y21844000D03*
X18351500Y22352000D03*
X18351500Y22098000D03*
X18351500Y22860000D03*
X18351500Y22606000D03*
G54D21*
X18351500Y18034000D03*
X18351500Y18542000D03*
X18351500Y18288000D03*
X18351500Y18796000D03*
X18351500Y19050000D03*
X18605500Y18034000D03*
X18605500Y18542000D03*
X18605500Y18288000D03*
X18605500Y18796000D03*
X18605500Y19050000D03*
G54D22*
G01X12866200Y21590000D02*
X12954000Y21590000D01*
G01X12954000Y21502200D02*
X12954000Y21590000D01*
G01X12954000Y21590000D02*
X12954000Y21677800D01*
G01X12954000Y21590000D02*
X13041800Y21590000D01*
G01X16129000Y22098000D02*
X16002000Y21971000D01*
X14414500Y21971000D01*
X13906500Y22479000D01*
G01X16129000Y21844000D02*
X16319500Y22034500D01*
X16319500Y22341830D01*
X16181830Y22479500D01*
X14033000Y22479500D01*
X13970000Y22542500D01*
G01X14033500Y22606000D02*
X14177500Y22750000D01*
X16112010Y22750000D01*
X16383000Y22479010D01*
X16383000Y21844000D01*
X16129000Y21590000D01*
G01X18351500Y18702000D02*
X18351500Y18796000D01*
G01X18351500Y18796000D02*
X18351500Y18890000D01*
G01X18257500Y18796000D02*
X18351500Y18796000D01*
G01X18351500Y18796000D02*
X18445500Y18796000D01*
G01X19177000Y18835200D02*
X19177000Y18923000D01*
G01X19177000Y18923000D02*
X19177000Y19010800D01*
G01X19089200Y18923000D02*
X19177000Y18923000D01*
G01X19177000Y18923000D02*
X19264800Y18923000D01*
G01X19939000Y17819200D02*
X19939000Y17907000D01*
G01X19939000Y17907000D02*
X19939000Y17994800D01*
G01X19851200Y17907000D02*
X19939000Y17907000D01*
G01X19939000Y17907000D02*
X20026800Y17907000D01*
G54D13*
X12700000Y16383000D03*
X12700000Y16764000D03*
G54D14*
X12954000Y20828000D03*
X12954000Y21082000D03*
X12954000Y21336000D03*
X12954000Y21590000D03*
X13716000Y21082000D03*
X13716000Y20828000D03*
X13716000Y21336000D03*
X13716000Y21590000D03*
X14605000Y20574000D03*
X14605000Y20828000D03*
X14605000Y21082000D03*
X14605000Y21336000D03*
X14605000Y21590000D03*
X14605000Y21844000D03*
X14605000Y22098000D03*
X14605000Y22352000D03*
X14605000Y22606000D03*
X14986000Y23241000D03*
X14986000Y24003000D03*
X15367000Y20574000D03*
X15367000Y21082000D03*
X15367000Y20828000D03*
X15367000Y21336000D03*
X15367000Y21844000D03*
X15367000Y21590000D03*
X15367000Y22352000D03*
X15367000Y22098000D03*
X15367000Y22606000D03*
X15494000Y23241000D03*
X15240000Y23241000D03*
X15240000Y24003000D03*
X15494000Y24003000D03*
X15748000Y23241000D03*
X15748000Y24003000D03*
X16256000Y23241000D03*
X16002000Y23241000D03*
X16002000Y24003000D03*
X16256000Y24003000D03*
X16764000Y23241000D03*
X16510000Y23241000D03*
X16510000Y24003000D03*
X16764000Y24003000D03*
X17272000Y23241000D03*
X17018000Y23241000D03*
X17018000Y24003000D03*
X17272000Y24003000D03*
X17526000Y23241000D03*
X17526000Y24003000D03*
X17780000Y23241000D03*
X17780000Y24003000D03*
X19177000Y17399000D03*
X19177000Y17653000D03*
X19177000Y17907000D03*
X19177000Y18161000D03*
X19177000Y18415000D03*
X19177000Y18669000D03*
X19177000Y18923000D03*
X19939000Y17653000D03*
X19939000Y17399000D03*
X19939000Y17907000D03*
X19939000Y18415000D03*
X19939000Y18161000D03*
X19939000Y18923000D03*
X19939000Y18669000D03*
G54D15*
X13075000Y20923000D03*
X13208000Y21780500D03*
X13081000Y23650000D03*
X13157250Y24142750D03*
X13579000Y21508000D03*
X13462000Y21780500D03*
X13970000Y22542500D03*
X14033500Y22606000D03*
X13906500Y22479000D03*
X14350000Y15900000D03*
X14350000Y16100000D03*
X14350000Y16000000D03*
X14478000Y17843500D03*
X14478000Y18288000D03*
X14478000Y19304000D03*
X14478000Y19748500D03*
X14650000Y15900000D03*
X14650000Y16100000D03*
X14650000Y16000000D03*
X14859000Y21272500D03*
X14859000Y22288500D03*
X14732000Y22810930D03*
X15049500Y23495000D03*
X15367000Y18161000D03*
X15367000Y20066000D03*
X15113000Y22288500D03*
X15176500Y23622000D03*
X15653000Y22415500D03*
X15938500Y22606000D03*
X16623790Y15938500D03*
X16625790Y15871740D03*
X16628080Y15811500D03*
X16623790Y16129000D03*
X16623790Y16065500D03*
X16623790Y16002000D03*
X16764000Y16278200D03*
X16623790Y16192500D03*
X16700500Y16278200D03*
X16626280Y16256000D03*
X16598320Y16557680D03*
X16758200Y16450000D03*
X16700500Y16450000D03*
X16600000Y16500000D03*
X16764000Y16974200D03*
X16700500Y16974200D03*
X16600000Y16957700D03*
X16600000Y16900000D03*
X16383000Y17462500D03*
X16383000Y18351500D03*
X16573500Y21590000D03*
X16573500Y21844000D03*
X16573500Y22098000D03*
X16906210Y15875000D03*
X16903920Y15811500D03*
X16904210Y15938500D03*
X16904210Y16002000D03*
X16904210Y16065500D03*
X16904210Y16129000D03*
X16827500Y16278200D03*
X16904210Y16192500D03*
X16901720Y16256000D03*
X16906210Y16765360D03*
X16906210Y16649960D03*
X16906210Y16707660D03*
X16906210Y16550000D03*
X16900000Y16500000D03*
X16827500Y16450000D03*
X16906210Y16823060D03*
X16850000Y16974200D03*
X16906210Y16900000D03*
X16900000Y16950000D03*
X17208500Y21844000D03*
X17208500Y22098000D03*
X17208500Y22352000D03*
X16954500Y22733000D03*
X16954500Y22987000D03*
X17481000Y21672000D03*
X17350000Y22733000D03*
X17526000Y22733000D03*
X17526000Y23558500D03*
X18034000Y16002000D03*
X18034000Y16510000D03*
X17780000Y22733000D03*
X17780000Y23558500D03*
X18097500Y19748500D03*
X18732500Y22733000D03*
X19367500Y18669000D03*
X19367500Y18923000D03*
X19558000Y16065500D03*
X19558000Y16446500D03*
X19558000Y17018000D03*
X19640000Y18351500D03*
X19431000Y19939000D03*
X19767000Y22815000D03*
X19494500Y22606000D03*
X20725000Y20828000D03*
X20725000Y21336000D03*
X20725000Y21590000D03*
X20725000Y21844000D03*
X20764500Y22606000D03*
X21037000Y22987000D03*
X20764500Y22860000D03*
X21145500Y22352000D03*
G54D16*
X13701000Y17592000D03*
X13701000Y20092000D03*
G54D17*
X13559000Y18426500D03*
X13843000Y18565000D03*
X13843000Y18288000D03*
X13559000Y18980500D03*
X13559000Y18703500D03*
X13843000Y18842000D03*
X13559000Y19257500D03*
X13843000Y19396000D03*
X13843000Y19119000D03*
X14859000Y17526000D03*
X14859000Y17780000D03*
X14859000Y18034000D03*
X14859000Y18288000D03*
X14859000Y18542000D03*
X14859000Y18796000D03*
X14859000Y19050000D03*
X14859000Y19304000D03*
X14859000Y19558000D03*
X14859000Y19812000D03*
X15621000Y17526000D03*
X15621000Y18034000D03*
X15621000Y17780000D03*
X15621000Y18542000D03*
X15621000Y18288000D03*
X15621000Y18796000D03*
X15621000Y19304000D03*
X15621000Y19050000D03*
X15621000Y19812000D03*
X15621000Y19558000D03*
X19304000Y20066000D03*
X19304000Y20320000D03*
X19304000Y20574000D03*
X19304000Y20828000D03*
X19304000Y21082000D03*
X19304000Y21336000D03*
X19304000Y21590000D03*
X19304000Y21844000D03*
X19304000Y22098000D03*
X19304000Y22352000D03*
X20066000Y20066000D03*
X20066000Y20574000D03*
X20066000Y20320000D03*
X20066000Y21082000D03*
X20066000Y20828000D03*
X20066000Y21336000D03*
X20066000Y21844000D03*
X20066000Y21590000D03*
X20066000Y22352000D03*
X20066000Y22098000D03*
X20510500Y19304000D03*
X20510500Y19558000D03*
X20510500Y19812000D03*
X20510500Y20066000D03*
X20510500Y20320000D03*
X20510500Y20574000D03*
X20510500Y20828000D03*
X20510500Y21082000D03*
X20510500Y21336000D03*
X20510500Y21590000D03*
X20510500Y21844000D03*
X20510500Y22098000D03*
X20510500Y22352000D03*
X20510500Y22606000D03*
X21272500Y19304000D03*
X21272500Y19812000D03*
X21272500Y19558000D03*
X21272500Y20066000D03*
X21272500Y20574000D03*
X21272500Y20320000D03*
X21272500Y21082000D03*
X21272500Y20828000D03*
X21272500Y21336000D03*
X21272500Y21844000D03*
X21272500Y21590000D03*
X21272500Y22352000D03*
X21272500Y22098000D03*
X21272500Y22606000D03*
G54D18*
X13700000Y23600000D03*
X20700000Y16600000D03*
X20700000Y23600000D03*
G54D19*
X15367000Y16256000D03*
X15367000Y16510000D03*
X15367000Y16764000D03*
M02*
