G04 ================== begin FILE IDENTIFICATION RECORD ==================*
G04 Layout Name:  byggernnode1.brd*
G04 Film Name:    3_GND*
G04 File Format:  Gerber RS274X*
G04 File Origin:  Cadence Allegro 24.1-P001*
G04 Origin Date:  Wed Nov  6 06:11:47 2024*
G04 *
G04 Layer:  VIA CLASS/GND*
G04 Layer:  PIN/GND*
G04 Layer:  ETCH/GND*
G04 *
G04 Offset:    (0.0000 0.0000)*
G04 Mirror:    No*
G04 Mode:      Positive*
G04 Rotation:  0*
G04 FullContactRelief:  No*
G04 UndefLineWidth:     0.1500*
G04 ================== end FILE IDENTIFICATION RECORD ====================*
%FSAX35Y35*MOMM*%
%IR0*IPPOS*OFA0.00000B0.00000*MIA0B0*SFA1.00000B1.00000*%
%ADD15C,.45*%
%ADD14C,1.4*%
%ADD13C,1.5*%
%ADD17C,1.5001*%
%ADD20C,1.8*%
%ADD18C,7.4*%
%ADD21C,1.524*%
%ADD16C,4.8*%
%ADD10C,1.4224*%
%ADD19C,1.935*%
%ADD11R,1.4224X1.4224*%
%ADD12C,1.6764*%
%ADD22C,.25*%
%ADD28C,.7044*%
%ADD26C,2.0004*%
%ADD30C,2.0006*%
%ADD32C,2.3004*%
%ADD36C,2.0244*%
%ADD34C,1.9004*%
%ADD31C,2.0544*%
%ADD29C,5.0544*%
%ADD24C,2.4354*%
%ADD33C,1.6544*%
%ADD23C,1.7544*%
%ADD39C,1.9228*%
%ADD35C,1.7546*%
%ADD38C,2.1768*%
%ADD27C,2.1894*%
%ADD25C,7.6544*%
%ADD37C,1.7784*%
%ADD40C,1.6768*%
G75*
%LPD*%
G75*
G36*
G01X12438000Y24383990D02*
X21038000Y24383990D01*
G02X21537990Y23884000I0J-00499990D01*
G01X21537990Y16284000D01*
G02X21038000Y15784010I-00499990J0D01*
G01X12438000Y15784010D01*
G02X11938010Y16284000I0J00499990D01*
G01X11938010Y23884000D01*
G02X12438000Y24383990I00499990J0D01*
G37*
%LPC*%
G75*
G36*
G01X12349860Y21899880D02*
X12349860Y22042120D01*
G02X12374880Y22067140I00025020J0D01*
G01X12517120Y22067140D01*
G02X12542140Y22042120I0J-00025020D01*
G01X12542140Y21899880D01*
G02X12517120Y21874860I-00025020J0D01*
G01X12374880Y21874860D01*
G02X12349860Y21899880I0J00025020D01*
G37*
G36*
G01X12349860Y20756880D02*
X12349860Y20899120D01*
G02X12374880Y20924140I00025020J0D01*
G01X12517120Y20924140D01*
G02X12542140Y20899120I0J-00025020D01*
G01X12542140Y20756880D01*
G02X12517120Y20731860I-00025020J0D01*
G01X12374880Y20731860D01*
G02X12349860Y20756880I0J00025020D01*
G37*
G36*
G01X16722890Y16477190D02*
G03X16735810Y16477190I00006460J00007838D01*
G02X16758200Y16485220I00022390J-00027200D01*
G02X16785090Y16472740I0J-00035209D01*
G03X16800610Y16472740I00007760J00006563D01*
G02X16827500Y16485220I00026890J-00022729D01*
G02X16827500Y16414780I0J-00035220D01*
G02X16800610Y16427260I0J00035209D01*
G03X16785090Y16427260I-00007760J-00006563D01*
G02X16758200Y16414780I-00026890J00022729D01*
G02X16735810Y16422810I0J00035230D01*
G03X16722890Y16422810I-00006460J-00007838D01*
G02X16700500Y16414780I-00022390J00027200D01*
G02X16700500Y16485220I0J00035220D01*
G02X16722890Y16477190I0J-00035230D01*
G37*
G36*
G01X16875430Y16525240D02*
G03X16876220Y16531540I-00003540J00003643D01*
G02X16870990Y16550000I00029988J00018467D01*
G02X16941430Y16550000I00035220J0D01*
G02X16930780Y16524760I-00035234J0D01*
G03X16929990Y16518460I00003540J-00003643D01*
G02X16935220Y16500000I-00029988J-00018467D01*
G02X16864780Y16500000I-00035220J0D01*
G02X16875430Y16525240I00035234J0D01*
G37*
G36*
G01X16572170Y16521590D02*
G03X16571800Y16534510I-00008022J00006236D01*
G02X16563100Y16557680I00026518J00023175D01*
G02X16633540Y16557680I00035220J0D01*
G02X16626150Y16536090I-00035233J0D01*
G03X16626520Y16523170I00008022J-00006236D01*
G02X16635220Y16500000I-00026518J-00023175D01*
G02X16564780Y16500000I-00035220J0D01*
G02X16572170Y16521590I00035233J0D01*
G37*
G36*
G01X16572810Y16922390D02*
G03X16572810Y16935310I-00007838J00006460D01*
G02X16564780Y16957700I00027200J00022390D01*
G02X16635220Y16957700I00035220J0D01*
G02X16627190Y16935310I-00035230J0D01*
G03X16627190Y16922390I00007838J-00006460D01*
G02X16635220Y16900000I-00027200J-00022390D01*
G02X16564780Y16900000I-00035220J0D01*
G02X16572810Y16922390I00035230J0D01*
G37*
G36*
G01X16739360Y16949040D02*
G03X16725140Y16949040I-00007110J-00007263D01*
G02X16700500Y16938980I-00024645J00025158D01*
G02X16700500Y17009420I0J00035220D01*
G02X16725140Y16999360I-00000005J-00035218D01*
G03X16739360Y16999360I00007110J00007263D01*
G02X16764000Y17009420I00024645J-00025158D01*
G02X16764000Y16938980I0J-00035220D01*
G02X16739360Y16949040I00000005J00035218D01*
G37*
G36*
G01X16860730Y16940650D02*
G02X16850000Y16938980I-00010717J00033552D01*
G02X16850000Y17009420I0J00035220D01*
G02X16882970Y16986600I0J-00035227D01*
G03X16889270Y16983550I00004753J00001785D01*
G02X16900000Y16985220I00010717J-00033552D01*
G02X16935220Y16950000I0J-00035220D01*
G02X16929990Y16931540I-00035218J00000007D01*
G03X16930780Y16925240I00004330J-00002657D01*
G02X16941430Y16900000I-00024584J-00025240D01*
G02X16924890Y16870140I-00035223J0D01*
G03X16924890Y16852920I00005390J-00008610D01*
G02X16941430Y16823060I-00018683J-00029860D01*
G02X16933400Y16800670I-00035230J0D01*
G03X16933400Y16787750I00007838J-00006460D01*
G02X16933400Y16742970I-00027200J-00022390D01*
G03X16933400Y16730050I00007838J-00006460D01*
G02X16933400Y16685270I-00027200J-00022390D01*
G03X16933400Y16672350I00007838J-00006460D01*
G02X16941430Y16649960I-00027200J-00022390D01*
G02X16870990Y16649960I-00035220J0D01*
G02X16879020Y16672350I00035230J0D01*
G03X16879020Y16685270I-00007838J00006460D01*
G02X16879020Y16730050I00027200J00022390D01*
G03X16879020Y16742970I-00007838J00006460D01*
G02X16879020Y16787750I00027200J00022390D01*
G03X16879020Y16800670I-00007838J00006460D01*
G02X16870990Y16823060I00027200J00022390D01*
G02X16887530Y16852920I00035223J0D01*
G03X16887530Y16870140I-00005390J00008610D01*
G02X16870990Y16900000I00018683J00029860D01*
G02X16876220Y16918460I00035218J-00000007D01*
G03X16875430Y16924760I-00004330J00002657D01*
G02X16867030Y16937600I00024568J00025240D01*
G03X16860730Y16940650I-00004753J-00001785D01*
G37*
G54D28*
X18034000Y16510000D03*
X19558000Y16446500D03*
X19558000Y17018000D03*
X14478000Y18288000D03*
X15367000Y18161000D03*
X19640000Y18351500D03*
X14478000Y19304000D03*
X18097500Y19748500D03*
X15367000Y20066000D03*
X19431000Y19939000D03*
X13075000Y20923000D03*
X13579000Y21508000D03*
X17481000Y21672000D03*
X13970000Y22542500D03*
X14033500Y22606000D03*
X13906500Y22479000D03*
X14732000Y22810930D03*
X15653000Y22415500D03*
X17350000Y22733000D03*
X18732500Y22733000D03*
X19767000Y22815000D03*
X21037000Y22987000D03*
X13081000Y23650000D03*
X15049500Y23495000D03*
X15176500Y23622000D03*
X13157250Y24142750D03*
G54D26*
X12700000Y16764000D03*
G54D30*
X14859000Y17526000D03*
X15621000Y17526000D03*
X14859000Y18034000D03*
X15621000Y18034000D03*
X15621000Y17780000D03*
X13559000Y18426500D03*
X13843000Y18565000D03*
X13843000Y18288000D03*
X14859000Y18288000D03*
X15621000Y18542000D03*
X15621000Y18288000D03*
X13559000Y18980500D03*
X13559000Y18703500D03*
X13843000Y18842000D03*
X14859000Y18796000D03*
X15621000Y18796000D03*
X13559000Y19257500D03*
X13843000Y19119000D03*
X14859000Y19050000D03*
X14859000Y19304000D03*
X15621000Y19304000D03*
X15621000Y19050000D03*
X21272500Y19304000D03*
X14859000Y19558000D03*
X14859000Y19812000D03*
X15621000Y19812000D03*
X15621000Y19558000D03*
X20510500Y19558000D03*
X20510500Y19812000D03*
X21272500Y19812000D03*
X21272500Y19558000D03*
X20066000Y20066000D03*
X20510500Y20066000D03*
X21272500Y20066000D03*
X19304000Y20320000D03*
X19304000Y20574000D03*
X20066000Y20574000D03*
X20066000Y20320000D03*
X20510500Y20320000D03*
X20510500Y20574000D03*
X21272500Y20574000D03*
X21272500Y20320000D03*
X19304000Y20828000D03*
X19304000Y21082000D03*
X20066000Y21082000D03*
X20066000Y20828000D03*
X20510500Y20828000D03*
X20510500Y21082000D03*
X21272500Y21082000D03*
X21272500Y20828000D03*
X19304000Y21336000D03*
X20066000Y21336000D03*
X20510500Y21336000D03*
X21272500Y21336000D03*
X19304000Y21590000D03*
X19304000Y21844000D03*
X20066000Y21844000D03*
X20066000Y21590000D03*
X20510500Y21590000D03*
X20510500Y21844000D03*
X21272500Y21844000D03*
X21272500Y21590000D03*
X19304000Y22098000D03*
X20066000Y22352000D03*
X20066000Y22098000D03*
X20510500Y22098000D03*
X20510500Y22352000D03*
X21272500Y22352000D03*
X21272500Y22098000D03*
X20510500Y22606000D03*
X21272500Y22606000D03*
G54D32*
X17673000Y17526000D03*
X16129000Y18034000D03*
X16129000Y17780000D03*
X17673000Y17780000D03*
X17673000Y18034000D03*
X16129000Y18542000D03*
X16129000Y18288000D03*
X17673000Y18288000D03*
X17673000Y18542000D03*
X16129000Y18796000D03*
X17673000Y18796000D03*
X16129000Y19304000D03*
X16129000Y19050000D03*
X17673000Y19050000D03*
X17673000Y19304000D03*
X16129000Y19812000D03*
X16129000Y19558000D03*
X17673000Y19558000D03*
X17673000Y19812000D03*
X16129000Y20066000D03*
X17673000Y20066000D03*
X16129000Y20574000D03*
X16129000Y20320000D03*
X17673000Y20320000D03*
X17673000Y20574000D03*
X16129000Y21082000D03*
X16129000Y20828000D03*
X17673000Y20828000D03*
X17673000Y21082000D03*
X16129000Y21336000D03*
X17673000Y21336000D03*
X16129000Y21844000D03*
X16129000Y21590000D03*
X17673000Y21590000D03*
X17673000Y21844000D03*
X16129000Y22352000D03*
X16129000Y22098000D03*
X17673000Y22098000D03*
X17673000Y22352000D03*
G54D36*
X18351500Y18034000D03*
X18605500Y18034000D03*
X18351500Y18542000D03*
X18605500Y18288000D03*
X18605500Y18542000D03*
X18351500Y18796000D03*
X18605500Y18796000D03*
X18351500Y19050000D03*
G54D34*
X19177000Y17653000D03*
X19939000Y17653000D03*
X19939000Y17399000D03*
X19177000Y17907000D03*
X19939000Y17907000D03*
X19177000Y18161000D03*
X19177000Y18415000D03*
X19939000Y18415000D03*
X19939000Y18161000D03*
X19177000Y18923000D03*
X19177000Y18669000D03*
X19939000Y18923000D03*
X19939000Y18669000D03*
X15367000Y20574000D03*
X12954000Y20828000D03*
X12954000Y21082000D03*
X13716000Y20828000D03*
X14605000Y20828000D03*
X14605000Y21082000D03*
X15367000Y21082000D03*
X15367000Y20828000D03*
X12954000Y21336000D03*
X13716000Y21336000D03*
X14605000Y21336000D03*
X15367000Y21336000D03*
X12954000Y21590000D03*
X13716000Y21590000D03*
X14605000Y21590000D03*
X14605000Y21844000D03*
X15367000Y21844000D03*
X15367000Y21590000D03*
X14605000Y22098000D03*
X14605000Y22352000D03*
X15367000Y22352000D03*
X15367000Y22098000D03*
X14605000Y22606000D03*
X15367000Y22606000D03*
X14986000Y23241000D03*
X15494000Y23241000D03*
X15240000Y23241000D03*
X15748000Y23241000D03*
X16256000Y23241000D03*
X16002000Y23241000D03*
X16764000Y23241000D03*
X16510000Y23241000D03*
X17272000Y23241000D03*
X17526000Y23241000D03*
X17780000Y23241000D03*
X15240000Y24003000D03*
X15494000Y24003000D03*
X15748000Y24003000D03*
X16002000Y24003000D03*
X16256000Y24003000D03*
X16510000Y24003000D03*
X16764000Y24003000D03*
X17526000Y24003000D03*
X17780000Y24003000D03*
G54D31*
X16129000Y17526000D03*
G54D29*
X13701000Y17592000D03*
X13701000Y20092000D03*
G54D24*
X15367000Y16256000D03*
X15367000Y16764000D03*
G54D33*
X19177000Y17399000D03*
X14605000Y20574000D03*
X13716000Y21082000D03*
X17018000Y23241000D03*
X14986000Y24003000D03*
X17018000Y24003000D03*
X17272000Y24003000D03*
G54D23*
X12700000Y16383000D03*
G54D39*
X12446000Y21082000D03*
X12446000Y22225000D03*
X12446000Y22479000D03*
G54D35*
X14859000Y17780000D03*
X14859000Y18542000D03*
X13843000Y19396000D03*
X20510500Y19304000D03*
X19304000Y20066000D03*
X19304000Y22352000D03*
G54D38*
X18351500Y20066000D03*
X18351500Y20320000D03*
X18351500Y20574000D03*
X18351500Y20828000D03*
X18351500Y21082000D03*
X18351500Y21336000D03*
X18351500Y21590000D03*
X18351500Y21844000D03*
X18351500Y22098000D03*
X18351500Y22352000D03*
X18351500Y22606000D03*
X18351500Y22860000D03*
X12446000Y23241000D03*
X12446000Y23495000D03*
X12446000Y23749000D03*
X12446000Y24003000D03*
G54D27*
X15367000Y16510000D03*
G54D25*
X20700000Y16600000D03*
X13700000Y23600000D03*
X20700000Y23600000D03*
G54D37*
X18351500Y18288000D03*
X18605500Y19050000D03*
G54D40*
X12446000Y21336000D03*
%LPD*%
G75*
G54D10*
X12446000Y21082000D03*
X12446000Y21336000D03*
X12446000Y22225000D03*
X12446000Y22479000D03*
G54D11*
X12446000Y20828000D03*
X12446000Y21971000D03*
G54D20*
X16129000Y17526000D03*
X16129000Y17780000D03*
X16129000Y18034000D03*
X16129000Y18288000D03*
X16129000Y18542000D03*
X16129000Y18796000D03*
X16129000Y19050000D03*
X16129000Y19304000D03*
X16129000Y19558000D03*
X16129000Y19812000D03*
X16129000Y20066000D03*
X16129000Y20320000D03*
X16129000Y20574000D03*
X16129000Y20828000D03*
X16129000Y21082000D03*
X16129000Y21336000D03*
X16129000Y21590000D03*
X16129000Y21844000D03*
X16129000Y22098000D03*
X16129000Y22352000D03*
X17673000Y17526000D03*
X17673000Y18034000D03*
X17673000Y17780000D03*
X17673000Y18542000D03*
X17673000Y18288000D03*
X17673000Y18796000D03*
X17673000Y19304000D03*
X17673000Y19050000D03*
X17673000Y19812000D03*
X17673000Y19558000D03*
X17673000Y20066000D03*
X17673000Y20574000D03*
X17673000Y20320000D03*
X17673000Y21082000D03*
X17673000Y20828000D03*
X17673000Y21336000D03*
X17673000Y21844000D03*
X17673000Y21590000D03*
X17673000Y22352000D03*
X17673000Y22098000D03*
G54D12*
X12446000Y23241000D03*
X12446000Y23495000D03*
X12446000Y24003000D03*
X12446000Y23749000D03*
X18351500Y20066000D03*
X18351500Y20574000D03*
X18351500Y20320000D03*
X18351500Y21082000D03*
X18351500Y20828000D03*
X18351500Y21590000D03*
X18351500Y21336000D03*
X18351500Y21844000D03*
X18351500Y22352000D03*
X18351500Y22098000D03*
X18351500Y22860000D03*
X18351500Y22606000D03*
G54D21*
X18351500Y18034000D03*
X18351500Y18542000D03*
X18351500Y18288000D03*
X18351500Y18796000D03*
X18351500Y19050000D03*
X18605500Y18034000D03*
X18605500Y18542000D03*
X18605500Y18288000D03*
X18605500Y18796000D03*
X18605500Y19050000D03*
G54D22*
G01X12446000Y21247080D02*
X12446000Y21336000D01*
G01X12446000Y21336000D02*
X12446000Y21424920D01*
G01X12357080Y21336000D02*
X12446000Y21336000D01*
G01X12446000Y21336000D02*
X12534920Y21336000D01*
G01X12700000Y16290200D02*
X12700000Y16383000D01*
G01X12700000Y16383000D02*
X12700000Y16475800D01*
G01X12607200Y16383000D02*
X12700000Y16383000D01*
G01X12700000Y16383000D02*
X12792800Y16383000D01*
G01X13312200Y23600000D02*
X13700000Y23600000D01*
G01X13701000Y17334200D02*
X13701000Y17592000D01*
G01X13701000Y17592000D02*
X13701000Y17849800D01*
G01X13443200Y17592000D02*
X13701000Y17592000D01*
G01X13701000Y17592000D02*
X13958800Y17592000D01*
G01X13750190Y19396000D02*
X13843000Y19396000D01*
G01X13701000Y19834200D02*
X13701000Y20092000D01*
G01X13701000Y20092000D02*
X13701000Y20349800D01*
G01X13443200Y20092000D02*
X13701000Y20092000D01*
G01X13701000Y20092000D02*
X13958800Y20092000D01*
G01X13716000Y20994200D02*
X13716000Y21082000D01*
G01X13716000Y21082000D02*
X13716000Y21169800D01*
G01X13628200Y21082000D02*
X13716000Y21082000D01*
G01X13716000Y21082000D02*
X13803800Y21082000D01*
G01X13700000Y23212200D02*
X13700000Y23600000D01*
G01X13700000Y23600000D02*
X13700000Y23987800D01*
G01X13700000Y23600000D02*
X14087800Y23600000D01*
G01X13843000Y19303190D02*
X13843000Y19396000D01*
G01X13843000Y19396000D02*
X13843000Y19488810D01*
G01X13843000Y19396000D02*
X13935810Y19396000D01*
G01X14605000Y20486200D02*
X14605000Y20574000D01*
G01X14605000Y20574000D02*
X14605000Y20661800D01*
G01X14517200Y20574000D02*
X14605000Y20574000D01*
G01X14605000Y20574000D02*
X14692800Y20574000D01*
G01X14859000Y17687190D02*
X14859000Y17780000D01*
G01X14859000Y17780000D02*
X14859000Y17872810D01*
G01X14766190Y17780000D02*
X14859000Y17780000D01*
G01X14859000Y17780000D02*
X14951810Y17780000D01*
G01X14859000Y18449190D02*
X14859000Y18542000D01*
G01X14859000Y18542000D02*
X14859000Y18634810D01*
G01X14766190Y18542000D02*
X14859000Y18542000D01*
G01X14859000Y18542000D02*
X14951810Y18542000D01*
G01X14986000Y23915200D02*
X14986000Y24003000D01*
G01X14986000Y24003000D02*
X14986000Y24090800D01*
G01X14898200Y24003000D02*
X14986000Y24003000D01*
G01X14986000Y24003000D02*
X15073800Y24003000D01*
G01X15367000Y16395450D02*
X15367000Y16510000D01*
G01X15367000Y16510000D02*
X15367000Y16624550D01*
G01X15252450Y16510000D02*
X15367000Y16510000D01*
G01X15367000Y16510000D02*
X15481550Y16510000D01*
G01X16129000Y17418200D02*
X16129000Y17526000D01*
G01X16129000Y17526000D02*
X16129000Y17633800D01*
G01X16021200Y17526000D02*
X16129000Y17526000D01*
G01X16129000Y17526000D02*
X16236800Y17526000D01*
G01X17018000Y23153200D02*
X17018000Y23241000D01*
G01X17018000Y23241000D02*
X17018000Y23328800D01*
G01X16930200Y23241000D02*
X17018000Y23241000D01*
G01X17018000Y23241000D02*
X17105800Y23241000D01*
G01X17018000Y23915200D02*
X17018000Y24003000D01*
G01X17018000Y24003000D02*
X17018000Y24090800D01*
G01X16930200Y24003000D02*
X17018000Y24003000D01*
G01X17018000Y24003000D02*
X17105800Y24003000D01*
G01X17184200Y24003000D02*
X17272000Y24003000D01*
G01X17272000Y23915200D02*
X17272000Y24003000D01*
G01X17272000Y24003000D02*
X17272000Y24090800D01*
G01X17272000Y24003000D02*
X17359800Y24003000D01*
G01X18351500Y18194000D02*
X18351500Y18288000D01*
G01X18351500Y18288000D02*
X18351500Y18382000D01*
G01X18257500Y18288000D02*
X18351500Y18288000D01*
G01X18351500Y18288000D02*
X18445500Y18288000D01*
G01X18605500Y18956000D02*
X18605500Y19050000D01*
G01X18605500Y19050000D02*
X18605500Y19144000D01*
G01X18511500Y19050000D02*
X18605500Y19050000D01*
G01X18605500Y19050000D02*
X18699500Y19050000D01*
G01X19177000Y17311200D02*
X19177000Y17399000D01*
G01X19177000Y17399000D02*
X19177000Y17486800D01*
G01X19089200Y17399000D02*
X19177000Y17399000D01*
G01X19177000Y17399000D02*
X19264800Y17399000D01*
G01X19304000Y19973190D02*
X19304000Y20066000D01*
G01X19304000Y20066000D02*
X19304000Y20158810D01*
G01X19211190Y20066000D02*
X19304000Y20066000D01*
G01X19304000Y20066000D02*
X19396810Y20066000D01*
G01X19304000Y22259190D02*
X19304000Y22352000D01*
G01X19304000Y22352000D02*
X19304000Y22444810D01*
G01X19211190Y22352000D02*
X19304000Y22352000D01*
G01X19304000Y22352000D02*
X19396810Y22352000D01*
G01X20312200Y16600000D02*
X20700000Y16600000D01*
G01X20510500Y19211190D02*
X20510500Y19304000D01*
G01X20510500Y19304000D02*
X20510500Y19396810D01*
G01X20417690Y19304000D02*
X20510500Y19304000D01*
G01X20510500Y19304000D02*
X20603310Y19304000D01*
G01X20312200Y23600000D02*
X20700000Y23600000D01*
G01X20700000Y16212200D02*
X20700000Y16600000D01*
G01X20700000Y16600000D02*
X20700000Y16987800D01*
G01X20700000Y16600000D02*
X21087800Y16600000D01*
G01X20700000Y23212200D02*
X20700000Y23600000D01*
G01X20700000Y23600000D02*
X20700000Y23987800D01*
G01X20700000Y23600000D02*
X21087800Y23600000D01*
G54D13*
X12700000Y16383000D03*
X12700000Y16764000D03*
G54D14*
X12954000Y20828000D03*
X12954000Y21082000D03*
X12954000Y21336000D03*
X12954000Y21590000D03*
X13716000Y21082000D03*
X13716000Y20828000D03*
X13716000Y21336000D03*
X13716000Y21590000D03*
X14605000Y20574000D03*
X14605000Y20828000D03*
X14605000Y21082000D03*
X14605000Y21336000D03*
X14605000Y21590000D03*
X14605000Y21844000D03*
X14605000Y22098000D03*
X14605000Y22352000D03*
X14605000Y22606000D03*
X14986000Y23241000D03*
X14986000Y24003000D03*
X15367000Y20574000D03*
X15367000Y21082000D03*
X15367000Y20828000D03*
X15367000Y21336000D03*
X15367000Y21844000D03*
X15367000Y21590000D03*
X15367000Y22352000D03*
X15367000Y22098000D03*
X15367000Y22606000D03*
X15494000Y23241000D03*
X15240000Y23241000D03*
X15240000Y24003000D03*
X15494000Y24003000D03*
X15748000Y23241000D03*
X15748000Y24003000D03*
X16256000Y23241000D03*
X16002000Y23241000D03*
X16002000Y24003000D03*
X16256000Y24003000D03*
X16764000Y23241000D03*
X16510000Y23241000D03*
X16510000Y24003000D03*
X16764000Y24003000D03*
X17272000Y23241000D03*
X17018000Y23241000D03*
X17018000Y24003000D03*
X17272000Y24003000D03*
X17526000Y23241000D03*
X17526000Y24003000D03*
X17780000Y23241000D03*
X17780000Y24003000D03*
X19177000Y17399000D03*
X19177000Y17653000D03*
X19177000Y17907000D03*
X19177000Y18161000D03*
X19177000Y18415000D03*
X19177000Y18669000D03*
X19177000Y18923000D03*
X19939000Y17653000D03*
X19939000Y17399000D03*
X19939000Y17907000D03*
X19939000Y18415000D03*
X19939000Y18161000D03*
X19939000Y18923000D03*
X19939000Y18669000D03*
G54D15*
X13075000Y20923000D03*
X13208000Y21780500D03*
X13081000Y23650000D03*
X13157250Y24142750D03*
X13579000Y21508000D03*
X13462000Y21780500D03*
X13970000Y22542500D03*
X14033500Y22606000D03*
X13906500Y22479000D03*
X14350000Y15900000D03*
X14350000Y16100000D03*
X14350000Y16000000D03*
X14478000Y17843500D03*
X14478000Y18288000D03*
X14478000Y19304000D03*
X14478000Y19748500D03*
X14650000Y15900000D03*
X14650000Y16100000D03*
X14650000Y16000000D03*
X14859000Y21272500D03*
X14859000Y22288500D03*
X14732000Y22810930D03*
X15049500Y23495000D03*
X15367000Y18161000D03*
X15367000Y20066000D03*
X15113000Y22288500D03*
X15176500Y23622000D03*
X15653000Y22415500D03*
X15938500Y22606000D03*
X16623790Y15938500D03*
X16625790Y15871740D03*
X16628080Y15811500D03*
X16623790Y16129000D03*
X16623790Y16065500D03*
X16623790Y16002000D03*
X16764000Y16278200D03*
X16623790Y16192500D03*
X16700500Y16278200D03*
X16626280Y16256000D03*
X16598320Y16557680D03*
X16758200Y16450000D03*
X16700500Y16450000D03*
X16600000Y16500000D03*
X16764000Y16974200D03*
X16700500Y16974200D03*
X16600000Y16957700D03*
X16600000Y16900000D03*
X16383000Y17462500D03*
X16383000Y18351500D03*
X16573500Y21590000D03*
X16573500Y21844000D03*
X16573500Y22098000D03*
X16906210Y15875000D03*
X16903920Y15811500D03*
X16904210Y15938500D03*
X16904210Y16002000D03*
X16904210Y16065500D03*
X16904210Y16129000D03*
X16827500Y16278200D03*
X16904210Y16192500D03*
X16901720Y16256000D03*
X16906210Y16765360D03*
X16906210Y16649960D03*
X16906210Y16707660D03*
X16906210Y16550000D03*
X16900000Y16500000D03*
X16827500Y16450000D03*
X16906210Y16823060D03*
X16850000Y16974200D03*
X16906210Y16900000D03*
X16900000Y16950000D03*
X17208500Y21844000D03*
X17208500Y22098000D03*
X17208500Y22352000D03*
X16954500Y22733000D03*
X16954500Y22987000D03*
X17481000Y21672000D03*
X17350000Y22733000D03*
X17526000Y22733000D03*
X17526000Y23558500D03*
X18034000Y16002000D03*
X18034000Y16510000D03*
X17780000Y22733000D03*
X17780000Y23558500D03*
X18097500Y19748500D03*
X18732500Y22733000D03*
X19367500Y18669000D03*
X19367500Y18923000D03*
X19558000Y16065500D03*
X19558000Y16446500D03*
X19558000Y17018000D03*
X19640000Y18351500D03*
X19431000Y19939000D03*
X19767000Y22815000D03*
X19494500Y22606000D03*
X20725000Y20828000D03*
X20725000Y21336000D03*
X20725000Y21590000D03*
X20725000Y21844000D03*
X20764500Y22606000D03*
X21037000Y22987000D03*
X20764500Y22860000D03*
X21145500Y22352000D03*
G54D16*
X13701000Y17592000D03*
X13701000Y20092000D03*
G54D17*
X13559000Y18426500D03*
X13843000Y18565000D03*
X13843000Y18288000D03*
X13559000Y18980500D03*
X13559000Y18703500D03*
X13843000Y18842000D03*
X13559000Y19257500D03*
X13843000Y19396000D03*
X13843000Y19119000D03*
X14859000Y17526000D03*
X14859000Y17780000D03*
X14859000Y18034000D03*
X14859000Y18288000D03*
X14859000Y18542000D03*
X14859000Y18796000D03*
X14859000Y19050000D03*
X14859000Y19304000D03*
X14859000Y19558000D03*
X14859000Y19812000D03*
X15621000Y17526000D03*
X15621000Y18034000D03*
X15621000Y17780000D03*
X15621000Y18542000D03*
X15621000Y18288000D03*
X15621000Y18796000D03*
X15621000Y19304000D03*
X15621000Y19050000D03*
X15621000Y19812000D03*
X15621000Y19558000D03*
X19304000Y20066000D03*
X19304000Y20320000D03*
X19304000Y20574000D03*
X19304000Y20828000D03*
X19304000Y21082000D03*
X19304000Y21336000D03*
X19304000Y21590000D03*
X19304000Y21844000D03*
X19304000Y22098000D03*
X19304000Y22352000D03*
X20066000Y20066000D03*
X20066000Y20574000D03*
X20066000Y20320000D03*
X20066000Y21082000D03*
X20066000Y20828000D03*
X20066000Y21336000D03*
X20066000Y21844000D03*
X20066000Y21590000D03*
X20066000Y22352000D03*
X20066000Y22098000D03*
X20510500Y19304000D03*
X20510500Y19558000D03*
X20510500Y19812000D03*
X20510500Y20066000D03*
X20510500Y20320000D03*
X20510500Y20574000D03*
X20510500Y20828000D03*
X20510500Y21082000D03*
X20510500Y21336000D03*
X20510500Y21590000D03*
X20510500Y21844000D03*
X20510500Y22098000D03*
X20510500Y22352000D03*
X20510500Y22606000D03*
X21272500Y19304000D03*
X21272500Y19812000D03*
X21272500Y19558000D03*
X21272500Y20066000D03*
X21272500Y20574000D03*
X21272500Y20320000D03*
X21272500Y21082000D03*
X21272500Y20828000D03*
X21272500Y21336000D03*
X21272500Y21844000D03*
X21272500Y21590000D03*
X21272500Y22352000D03*
X21272500Y22098000D03*
X21272500Y22606000D03*
G54D18*
X13700000Y23600000D03*
X20700000Y16600000D03*
X20700000Y23600000D03*
G54D19*
X15367000Y16256000D03*
X15367000Y16510000D03*
X15367000Y16764000D03*
M02*
