G04 ================== begin FILE IDENTIFICATION RECORD ==================*
G04 Layout Name:  byggernnode1.brd*
G04 Film Name:    4_BOTTOM*
G04 File Format:  Gerber RS274X*
G04 File Origin:  Cadence Allegro 24.1-P001*
G04 Origin Date:  Wed Nov  6 06:11:47 2024*
G04 *
G04 Layer:  VIA CLASS/BOTTOM*
G04 Layer:  PIN/BOTTOM*
G04 Layer:  ETCH/BOTTOM*
G04 *
G04 Offset:    (0.0000 0.0000)*
G04 Mirror:    No*
G04 Mode:      Positive*
G04 Rotation:  0*
G04 FullContactRelief:  No*
G04 UndefLineWidth:     0.1500*
G04 ================== end FILE IDENTIFICATION RECORD ====================*
%FSAX35Y35*MOMM*%
%IR0*IPPOS*OFA0.00000B0.00000*MIA0B0*SFA1.00000B1.00000*%
%ADD17C,.45*%
%ADD18R,1.4699X.9901*%
%ADD29R,.9901X1.4699*%
%ADD28O,2.X1.6*%
%ADD15R,1.4X1.05*%
%ADD16R,1.05X1.4*%
%ADD23R,2.X5.5001*%
%ADD14C,1.4*%
%ADD13C,1.5*%
%ADD27R,.6X.55*%
%ADD20C,1.5001*%
%ADD22C,7.4*%
%ADD32C,1.524*%
%ADD21R,1.4X1.4*%
%ADD19C,4.8*%
%ADD10C,1.4224*%
%ADD24R,1.5001X1.5001*%
%ADD30R,1.8X1.8*%
%ADD25C,1.935*%
%ADD11R,1.4224X1.4224*%
%ADD12C,1.6764*%
%ADD26R,1.935X1.935*%
%ADD31R,2.1001X5.5999*%
%ADD33C,.5*%
%ADD34C,.25*%
%ADD35C,.75*%
G75*
%LPD*%
G75*
G54D10*
X12446000Y21082000D03*
X12446000Y21336000D03*
X12446000Y22225000D03*
X12446000Y22479000D03*
G54D11*
X12446000Y20828000D03*
X12446000Y21971000D03*
G54D20*
X13559000Y18426500D03*
X13843000Y18565000D03*
X13843000Y18288000D03*
X13559000Y18980500D03*
X13559000Y18703500D03*
X13843000Y18842000D03*
X13559000Y19257500D03*
X13843000Y19396000D03*
X13843000Y19119000D03*
X14859000Y17526000D03*
X14859000Y17780000D03*
X14859000Y18034000D03*
X14859000Y18288000D03*
X14859000Y18542000D03*
X14859000Y18796000D03*
X14859000Y19050000D03*
X14859000Y19304000D03*
X14859000Y19558000D03*
X15621000Y17526000D03*
X15621000Y18034000D03*
X15621000Y17780000D03*
X15621000Y18542000D03*
X15621000Y18288000D03*
X15621000Y18796000D03*
X15621000Y19304000D03*
X15621000Y19050000D03*
X15621000Y19812000D03*
X15621000Y19558000D03*
X19304000Y20066000D03*
X19304000Y20320000D03*
X19304000Y20574000D03*
X19304000Y20828000D03*
X19304000Y21082000D03*
X19304000Y21336000D03*
X19304000Y21590000D03*
X19304000Y21844000D03*
X19304000Y22098000D03*
X20066000Y20066000D03*
X20066000Y20574000D03*
X20066000Y20320000D03*
X20066000Y21082000D03*
X20066000Y20828000D03*
X20066000Y21336000D03*
X20066000Y21844000D03*
X20066000Y21590000D03*
X20066000Y22352000D03*
X20066000Y22098000D03*
X20510500Y19304000D03*
X20510500Y19558000D03*
X20510500Y19812000D03*
X20510500Y20066000D03*
X20510500Y20320000D03*
X20510500Y20574000D03*
X20510500Y20828000D03*
X20510500Y21082000D03*
X20510500Y21336000D03*
X20510500Y21590000D03*
X20510500Y21844000D03*
X20510500Y22098000D03*
X20510500Y22352000D03*
X21272500Y19304000D03*
X21272500Y19812000D03*
X21272500Y19558000D03*
X21272500Y20066000D03*
X21272500Y20574000D03*
X21272500Y20320000D03*
X21272500Y21082000D03*
X21272500Y20828000D03*
X21272500Y21336000D03*
X21272500Y21844000D03*
X21272500Y21590000D03*
X21272500Y22352000D03*
X21272500Y22098000D03*
X21272500Y22606000D03*
G54D12*
X12446000Y23241000D03*
X12446000Y23495000D03*
X12446000Y24003000D03*
X12446000Y23749000D03*
X18351500Y20066000D03*
X18351500Y20574000D03*
X18351500Y20320000D03*
X18351500Y21082000D03*
X18351500Y20828000D03*
X18351500Y21590000D03*
X18351500Y21336000D03*
X18351500Y21844000D03*
X18351500Y22352000D03*
X18351500Y22098000D03*
X18351500Y22860000D03*
X18351500Y22606000D03*
G54D30*
X16129000Y22352000D03*
G54D21*
X13716000Y20828000D03*
X14605000Y22606000D03*
X17780000Y24003000D03*
X19177000Y18923000D03*
G54D31*
X16891000Y17432000D03*
X16891000Y18382000D03*
G54D22*
X13700000Y23600000D03*
X20700000Y16600000D03*
X20700000Y23600000D03*
G54D13*
X12700000Y16383000D03*
X12700000Y16764000D03*
G54D32*
X18351500Y18034000D03*
X18351500Y18542000D03*
X18351500Y18288000D03*
X18351500Y18796000D03*
X18351500Y19050000D03*
X18605500Y18034000D03*
X18605500Y18542000D03*
X18605500Y18288000D03*
X18605500Y18796000D03*
X18605500Y19050000D03*
G54D14*
X12954000Y20828000D03*
X12954000Y21082000D03*
X12954000Y21336000D03*
X12954000Y21590000D03*
X13716000Y21082000D03*
X13716000Y21336000D03*
X13716000Y21590000D03*
X14605000Y20574000D03*
X14605000Y20828000D03*
X14605000Y21082000D03*
X14605000Y21336000D03*
X14605000Y21590000D03*
X14605000Y21844000D03*
X14605000Y22098000D03*
X14605000Y22352000D03*
X14986000Y23241000D03*
X14986000Y24003000D03*
X15367000Y20574000D03*
X15367000Y21082000D03*
X15367000Y20828000D03*
X15367000Y21336000D03*
X15367000Y21844000D03*
X15367000Y21590000D03*
X15367000Y22352000D03*
X15367000Y22098000D03*
X15367000Y22606000D03*
X15494000Y23241000D03*
X15240000Y23241000D03*
X15240000Y24003000D03*
X15494000Y24003000D03*
X15748000Y23241000D03*
X15748000Y24003000D03*
X16256000Y23241000D03*
X16002000Y23241000D03*
X16002000Y24003000D03*
X16256000Y24003000D03*
X16764000Y23241000D03*
X16510000Y23241000D03*
X16510000Y24003000D03*
X16764000Y24003000D03*
X17272000Y23241000D03*
X17018000Y23241000D03*
X17018000Y24003000D03*
X17272000Y24003000D03*
X17526000Y23241000D03*
X17526000Y24003000D03*
X17780000Y23241000D03*
X19177000Y17399000D03*
X19177000Y17653000D03*
X19177000Y17907000D03*
X19177000Y18161000D03*
X19177000Y18415000D03*
X19177000Y18669000D03*
X19939000Y17653000D03*
X19939000Y17399000D03*
X19939000Y17907000D03*
X19939000Y18415000D03*
X19939000Y18161000D03*
X19939000Y18923000D03*
X19939000Y18669000D03*
G54D23*
X14224000Y20607000D03*
X14224000Y21557000D03*
G54D33*
G01X12446000Y20828000D02*
X12554820Y20828000D01*
X12586820Y20860000D01*
X12700000Y20860000D01*
G01X12446000Y21082000D02*
X12554820Y21082000D01*
X12586820Y21050000D01*
X12700000Y21050000D01*
G01X12700000Y20860000D02*
X12717500Y20860000D01*
X12796660Y20939160D01*
X12811160Y20939160D01*
X12954000Y21082000D01*
G01X12700000Y21050000D02*
X12717500Y21050000D01*
X12796660Y21129160D01*
X12796660Y21178660D01*
X12954000Y21336000D01*
G01X13075000Y20923000D02*
X13208000Y20923000D01*
G01X13208000Y21114000D02*
X13083700Y21114000D01*
X13051700Y21082000D01*
X12954000Y21082000D01*
G01X13208000Y21304000D02*
X13083700Y21304000D01*
X13051700Y21336000D01*
X12954000Y21336000D01*
G01X13208000Y21672000D02*
X13208000Y21780500D01*
G01X13462000Y21127000D02*
X13573300Y21127000D01*
X13618300Y21082000D01*
X13716000Y21082000D01*
G01X13462000Y21672000D02*
X13462000Y21780500D01*
G01X14478000Y17939000D02*
X14478000Y17843500D01*
G01X14478000Y19653000D02*
X14478000Y19748500D01*
G01X14702700Y20574000D02*
X14605000Y20574000D01*
G01X15113000Y18333000D02*
X14904000Y18333000D01*
X14859000Y18288000D01*
G01X15113000Y18497000D02*
X14904000Y18497000D01*
X14859000Y18542000D01*
G01X14760300Y20619000D02*
X14747700Y20619000D01*
X14702700Y20574000D01*
G01X14859000Y20619000D02*
X14760300Y20619000D01*
G01X14859000Y21164000D02*
X14859000Y21272500D01*
G01X14859000Y22397000D02*
X14859000Y22288500D01*
G01X15367000Y16256000D02*
X15534000Y16256000D01*
X15618500Y16340500D01*
X15621000Y16340500D01*
G01X15367000Y16510000D02*
X15534000Y16510000D01*
X15618500Y16425500D01*
X15621000Y16425500D01*
G01X15367000Y18333000D02*
X15113000Y18333000D01*
G01X15367000Y18497000D02*
X15113000Y18497000D01*
G01X15113000Y22397000D02*
X15113000Y22288500D01*
G01X16301000Y21844000D02*
X16129000Y21844000D01*
G01X16301000Y21590000D02*
X16129000Y21590000D01*
G01X16301000Y22098000D02*
X16129000Y22098000D01*
G01X16383000Y17571000D02*
X16383000Y17462500D01*
G01X16383000Y18243000D02*
X16383000Y18351500D01*
G01X16465000Y21590000D02*
X16573500Y21590000D01*
G01X16465000Y21844000D02*
X16573500Y21844000D01*
G01X16465000Y22098000D02*
X16573500Y22098000D01*
G01X17317000Y21844000D02*
X17208500Y21844000D01*
G01X17317000Y22098000D02*
X17208500Y22098000D01*
G01X17317000Y22352000D02*
X17208500Y22352000D01*
G01X16954500Y22733000D02*
X17063000Y22733000D01*
G01X17063000Y22733000D02*
X17081500Y22733000D01*
G01X17018000Y23413000D02*
X17018000Y23241000D01*
G01X17063000Y23050500D02*
X17063000Y23196000D01*
G01X17063000Y22987000D02*
X16954500Y22987000D01*
G01X17018000Y23241000D02*
X17063000Y23196000D01*
G01X17526000Y22841500D02*
X17526000Y22733000D01*
G01X17526000Y23667000D02*
X17526000Y23558500D01*
G01X17780000Y22841500D02*
X17780000Y22733000D01*
G01X17780000Y23667000D02*
X17780000Y23558500D01*
G01X19476000Y18669000D02*
X19367500Y18669000D01*
G01X19476000Y18923000D02*
X19367500Y18923000D01*
G01X19603000Y22352000D02*
X19304000Y22352000D01*
G01X19603000Y22606000D02*
X19494500Y22606000D01*
G01X20860000Y22352000D02*
X20510500Y22352000D01*
G01X21050000Y20828000D02*
X21272500Y20828000D01*
G01X20860000Y20828000D02*
X20725000Y20828000D01*
G01X21050000Y21336000D02*
X21272500Y21336000D01*
G01X20860000Y21336000D02*
X20725000Y21336000D01*
G01X21050000Y21844000D02*
X21272500Y21844000D01*
G01X21050000Y21590000D02*
X21272500Y21590000D01*
G01X20860000Y21844000D02*
X20725000Y21844000D01*
G01X20860000Y21590000D02*
X20725000Y21590000D01*
G01X21050000Y22352000D02*
X21145500Y22352000D01*
G01X20873000Y22606000D02*
X20764500Y22606000D01*
G01X20873000Y22860000D02*
X20764500Y22860000D01*
G01X21336000Y22606000D02*
X21272500Y22606000D01*
G54D24*
X14859000Y19812000D03*
X19304000Y22352000D03*
X20510500Y22606000D03*
G54D15*
X12700000Y20860000D03*
X12700000Y21050000D03*
X13208000Y21114000D03*
X13208000Y20923000D03*
X13208000Y20733000D03*
X13208000Y21304000D03*
X14478000Y17939000D03*
X14478000Y18129000D03*
X14478000Y19463000D03*
X14478000Y19653000D03*
X19558000Y16669000D03*
X19558000Y16859000D03*
G54D34*
G01X12446000Y21971000D02*
X12732000Y21971000D01*
G01X12446000Y22225000D02*
X12732000Y22225000D01*
G01X12446000Y23241000D02*
X12732000Y23241000D01*
G01X12446000Y23749000D02*
X12732000Y23749000D01*
G01X13208000Y20733000D02*
X13049000Y20733000D01*
X12954000Y20828000D01*
G01X12922000Y21971000D02*
X13525500Y21971000D01*
X14112800Y22558300D01*
X14116760Y22558300D01*
X14144700Y22586240D01*
X14144700Y22590200D01*
X15049500Y23495000D01*
G01X12922000Y22225000D02*
X13081000Y22225000D01*
X14478000Y23622000D01*
X15176500Y23622000D01*
G01X13081000Y23650000D02*
X13081000Y23304500D01*
X13017500Y23241000D01*
X12922000Y23241000D01*
G01X12922000Y23749000D02*
X12922000Y23766500D01*
X13412500Y24257000D01*
X16700500Y24257000D01*
X16891000Y24066500D01*
X16891000Y23961200D01*
X17526000Y23326200D01*
X17526000Y23241000D01*
G01X13157250Y24142750D02*
X13335000Y24320500D01*
X16954500Y24320500D01*
X17145000Y24130000D01*
X17145000Y23868500D01*
X17712250Y23301250D01*
X17719750Y23301250D01*
X17780000Y23241000D01*
G01X14478000Y18288000D02*
X14478000Y18129000D01*
G01X14478000Y19304000D02*
X14478000Y19463000D01*
G01X14224000Y20607000D02*
X14384000Y20607000D01*
X14605000Y20828000D01*
G01X14859000Y20783000D02*
X14760300Y20783000D01*
X14715300Y20828000D01*
X14605000Y20828000D01*
G01X14859000Y21000000D02*
X14687000Y21000000D01*
X14605000Y21082000D01*
G01X14224000Y21557000D02*
X14224000Y21381990D01*
X14341820Y21264170D01*
X14422830Y21264170D01*
X14605000Y21082000D01*
G01X14859000Y19050000D02*
X15240000Y19431000D01*
X15240000Y19939000D01*
X15367000Y20066000D01*
G01X14702700Y20574000D02*
X14715300Y20574000D01*
X14760300Y20619000D01*
G01X16129000Y19304000D02*
X16002000Y19304000D01*
X15875000Y19431000D01*
X15875000Y20574000D01*
X15367000Y21082000D01*
G01X16129000Y20828000D02*
X15494000Y21463000D01*
X15303500Y21463000D01*
X15240000Y21526500D01*
X15240000Y21717000D01*
X15367000Y21844000D01*
G01X15367000Y21336000D02*
X16129000Y20574000D01*
G01X16129000Y21082000D02*
X15621000Y21590000D01*
X15367000Y21590000D01*
G01X15653000Y22606000D02*
X15653000Y22415500D01*
G01X15843000Y22606000D02*
X15938500Y22606000D01*
G01X16129000Y19558000D02*
X16637000Y20066000D01*
X16637000Y22225000D01*
X15875000Y22987000D01*
X15875000Y23495000D01*
X15621000Y23749000D01*
X15621000Y24066500D01*
X15684500Y24130000D01*
X15875000Y24130000D01*
X16002000Y24003000D01*
G01X16129000Y18796000D02*
X16764000Y19431000D01*
X16764000Y22352000D01*
X16129000Y22987000D01*
X16129000Y23622000D01*
X15748000Y24003000D01*
G01X16383000Y18079000D02*
X16174000Y18079000D01*
X16129000Y18034000D01*
G01X16383000Y17735000D02*
X16174000Y17735000D01*
X16129000Y17780000D01*
G01X16129000Y18288000D02*
X17018000Y19177000D01*
X17018000Y22479000D01*
X16637000Y22860000D01*
X16637000Y23876000D01*
X16510000Y24003000D01*
G01X16129000Y18542000D02*
X16891000Y19304000D01*
X16891000Y22415500D01*
X16383000Y22923500D01*
X16383000Y23876000D01*
X16256000Y24003000D01*
G01X16891000Y17432000D02*
X16891000Y17606990D01*
X16762990Y17735000D01*
X16383000Y17735000D01*
G01X16891000Y18382000D02*
X16891000Y18207010D01*
X16762990Y18079000D01*
X16383000Y18079000D01*
G01X17081500Y22987000D02*
X17081500Y23177500D01*
X17063000Y23196000D01*
G01X17526000Y23005500D02*
X17526000Y23241000D01*
G01X17526000Y24003000D02*
X17526000Y23831000D01*
G01X18034000Y16298500D02*
X18034000Y16510000D01*
G01X18034000Y16213500D02*
X18034000Y16002000D01*
G01X17673000Y17780000D02*
X18097500Y18204500D01*
X18097500Y19748500D01*
G01X17673000Y19812000D02*
X17800000Y19939000D01*
X19431000Y19939000D01*
G01X18351500Y20574000D02*
X17673000Y20574000D01*
G01X18351500Y20320000D02*
X17673000Y20320000D01*
G01X18351500Y20828000D02*
X17673000Y20828000D01*
G01X17673000Y21336000D02*
X18351500Y21336000D01*
G01X18351500Y21082000D02*
X17673000Y21082000D01*
G01X17673000Y21844000D02*
X18351500Y21844000D01*
G01X17673000Y21590000D02*
X18351500Y21590000D01*
G01X17673000Y22098000D02*
X18351500Y22098000D01*
G01X17780000Y23005500D02*
X17780000Y23241000D01*
G01X17780000Y24003000D02*
X17780000Y23831000D01*
G01X19304000Y20574000D02*
X18351500Y20574000D01*
G01X19304000Y20320000D02*
X18351500Y20320000D01*
G01X19304000Y20828000D02*
X18351500Y20828000D01*
G01X18351500Y21336000D02*
X19304000Y21336000D01*
G01X19304000Y21082000D02*
X18351500Y21082000D01*
G01X18351500Y21844000D02*
X19304000Y21844000D01*
G01X18351500Y21590000D02*
X19304000Y21590000D01*
G01X18732500Y22733000D02*
X18351500Y22352000D01*
G01X18351500Y22098000D02*
X19304000Y22098000D01*
G01X21272500Y19558000D02*
X21399500Y19431000D01*
X21399500Y19240500D01*
X21272500Y19113500D01*
X20383500Y19113500D01*
X19431000Y20066000D01*
X19431000Y20955000D01*
X19304000Y21082000D01*
G01X21272500Y19304000D02*
X21145500Y19431000D01*
X20193000Y19431000D01*
X19558000Y20066000D01*
X19558000Y21082000D01*
X19304000Y21336000D01*
G01X20510500Y19812000D02*
X20066000Y19812000D01*
X19812000Y20066000D01*
X19812000Y21336000D01*
X19304000Y21844000D01*
G01X20510500Y19558000D02*
X20193000Y19558000D01*
X19685000Y20066000D01*
X19685000Y21209000D01*
X19304000Y21590000D01*
G01X20510500Y20066000D02*
X20383500Y20193000D01*
X20012980Y20193000D01*
X19939000Y20266980D01*
X19939000Y21463000D01*
X19304000Y22098000D01*
G01X19558000Y16446500D02*
X19558000Y16338000D01*
G01X19558000Y16174000D02*
X19558000Y16065500D01*
G01X19558000Y16669000D02*
X19558000Y16446500D01*
G01X19558000Y16859000D02*
X19558000Y17018000D01*
G01X19939000Y18415000D02*
X20193000Y18161000D01*
X20193000Y17653000D01*
X19939000Y17399000D01*
G01X20066000Y20574000D02*
X20510500Y20574000D01*
G01X20066000Y20320000D02*
X20510500Y20320000D01*
G01X20066000Y20828000D02*
X20510500Y20828000D01*
G01X20066000Y21336000D02*
X20510500Y21336000D01*
G01X20066000Y21082000D02*
X20510500Y21082000D01*
G01X20066000Y21844000D02*
X20510500Y21844000D01*
G01X20066000Y21590000D02*
X20510500Y21590000D01*
G01X20066000Y22098000D02*
X20510500Y22098000D01*
G54D25*
X15367000Y16256000D03*
X15367000Y16510000D03*
G54D16*
X12732000Y21971000D03*
X12922000Y21971000D03*
X12732000Y22225000D03*
X12922000Y22225000D03*
X12922000Y23241000D03*
X12732000Y23241000D03*
X12922000Y23749000D03*
X12732000Y23749000D03*
X15653000Y22606000D03*
X15843000Y22606000D03*
X20860000Y20828000D03*
X21050000Y20828000D03*
X20860000Y21336000D03*
X21050000Y21336000D03*
X20860000Y21844000D03*
X21050000Y21844000D03*
X20860000Y21590000D03*
X21050000Y21590000D03*
X21050000Y22352000D03*
X20860000Y22352000D03*
G54D35*
G01X13208000Y21508000D02*
X13462000Y21508000D01*
G01X13208000Y21508000D02*
X13036000Y21508000D01*
X12954000Y21590000D01*
G01X13462000Y21508000D02*
X13462000Y21291000D01*
G01X13462000Y21291000D02*
X13671000Y21291000D01*
X13716000Y21336000D01*
G01X13579000Y21508000D02*
X13462000Y21508000D01*
G01X14859000Y22561000D02*
X15113000Y22561000D01*
G01X14859000Y22561000D02*
X14859000Y22683930D01*
X14732000Y22810930D01*
G01X15367000Y18333000D02*
X15367000Y18161000D01*
G01X15113000Y22561000D02*
X15322000Y22561000D01*
X15367000Y22606000D01*
G01X17018000Y23577000D02*
X16894300Y23577000D01*
X16764000Y23446700D01*
X16764000Y23241000D01*
G01X17227000Y22733000D02*
X17227000Y22987000D01*
G01X17350000Y22733000D02*
X17227000Y22733000D01*
G01X17227000Y22987000D02*
X17227000Y23069000D01*
X17272000Y23114000D01*
X17272000Y23241000D01*
G01X17272000Y23241000D02*
X17272000Y23469820D01*
X17164820Y23577000D01*
X17018000Y23577000D01*
G01X17481000Y22098000D02*
X17481000Y21844000D01*
G01X17481000Y21844000D02*
X17481000Y21672000D01*
G01X17673000Y22352000D02*
X17481000Y22352000D01*
G01X17481000Y22352000D02*
X17481000Y22098000D01*
G01X19640000Y18669000D02*
X19640000Y18351500D01*
G01X19640000Y18669000D02*
X19640000Y18923000D01*
G01X19640000Y18923000D02*
X19939000Y18923000D01*
G01X20066000Y22352000D02*
X19767000Y22352000D01*
G01X19767000Y22352000D02*
X19767000Y22606000D01*
G01X19767000Y22815000D02*
X19767000Y22606000D01*
G01X21037000Y22860000D02*
X21037000Y22606000D01*
G01X21272500Y22606000D02*
X21037000Y22606000D01*
G01X21037000Y22860000D02*
X21037000Y22987000D01*
G54D26*
X15367000Y16764000D03*
G54D17*
X13075000Y20923000D03*
X13208000Y21780500D03*
X13081000Y23650000D03*
X13157250Y24142750D03*
X13579000Y21508000D03*
X13462000Y21780500D03*
X13970000Y22542500D03*
X14033500Y22606000D03*
X13906500Y22479000D03*
X14350000Y15900000D03*
X14350000Y16100000D03*
X14350000Y16000000D03*
X14478000Y17843500D03*
X14478000Y18288000D03*
X14478000Y19304000D03*
X14478000Y19748500D03*
X14650000Y15900000D03*
X14650000Y16100000D03*
X14650000Y16000000D03*
X14859000Y21272500D03*
X14859000Y22288500D03*
X14732000Y22810930D03*
X15049500Y23495000D03*
X15367000Y18161000D03*
X15367000Y20066000D03*
X15113000Y22288500D03*
X15176500Y23622000D03*
X15653000Y22415500D03*
X15938500Y22606000D03*
X16623790Y15938500D03*
X16625790Y15871740D03*
X16628080Y15811500D03*
X16623790Y16129000D03*
X16623790Y16065500D03*
X16623790Y16002000D03*
X16764000Y16278200D03*
X16623790Y16192500D03*
X16700500Y16278200D03*
X16626280Y16256000D03*
X16598320Y16557680D03*
X16758200Y16450000D03*
X16700500Y16450000D03*
X16600000Y16500000D03*
X16764000Y16974200D03*
X16700500Y16974200D03*
X16600000Y16957700D03*
X16600000Y16900000D03*
X16383000Y17462500D03*
X16383000Y18351500D03*
X16573500Y21590000D03*
X16573500Y21844000D03*
X16573500Y22098000D03*
X16906210Y15875000D03*
X16903920Y15811500D03*
X16904210Y15938500D03*
X16904210Y16002000D03*
X16904210Y16065500D03*
X16904210Y16129000D03*
X16827500Y16278200D03*
X16904210Y16192500D03*
X16901720Y16256000D03*
X16906210Y16765360D03*
X16906210Y16649960D03*
X16906210Y16707660D03*
X16906210Y16550000D03*
X16900000Y16500000D03*
X16827500Y16450000D03*
X16906210Y16823060D03*
X16850000Y16974200D03*
X16906210Y16900000D03*
X16900000Y16950000D03*
X17208500Y21844000D03*
X17208500Y22098000D03*
X17208500Y22352000D03*
X16954500Y22733000D03*
X16954500Y22987000D03*
X17481000Y21672000D03*
X17350000Y22733000D03*
X17526000Y22733000D03*
X17526000Y23558500D03*
X18034000Y16002000D03*
X18034000Y16510000D03*
X17780000Y22733000D03*
X17780000Y23558500D03*
X18097500Y19748500D03*
X18732500Y22733000D03*
X19367500Y18669000D03*
X19367500Y18923000D03*
X19558000Y16065500D03*
X19558000Y16446500D03*
X19558000Y17018000D03*
X19640000Y18351500D03*
X19431000Y19939000D03*
X19767000Y22815000D03*
X19494500Y22606000D03*
X20725000Y20828000D03*
X20725000Y21336000D03*
X20725000Y21590000D03*
X20725000Y21844000D03*
X20764500Y22606000D03*
X21037000Y22987000D03*
X20764500Y22860000D03*
X21145500Y22352000D03*
G54D27*
X15621000Y16340500D03*
X15621000Y16425500D03*
X18034000Y16213500D03*
X18034000Y16298500D03*
G54D18*
X13208000Y21508000D03*
X13208000Y21672000D03*
X13462000Y21127000D03*
X13462000Y21508000D03*
X13462000Y21291000D03*
X13462000Y21672000D03*
X15113000Y18497000D03*
X15113000Y18333000D03*
X14859000Y20619000D03*
X14859000Y20783000D03*
X14859000Y21000000D03*
X14859000Y21164000D03*
X14859000Y22397000D03*
X15113000Y22397000D03*
X14859000Y22561000D03*
X15113000Y22561000D03*
X15367000Y18497000D03*
X15367000Y18333000D03*
X16383000Y17571000D03*
X16383000Y17735000D03*
X16383000Y18079000D03*
X16383000Y18243000D03*
X17018000Y23413000D03*
X17018000Y23577000D03*
X17526000Y22841500D03*
X17526000Y23005500D03*
X17526000Y23667000D03*
X17526000Y23831000D03*
X17780000Y22841500D03*
X17780000Y23005500D03*
X17780000Y23667000D03*
X17780000Y23831000D03*
X19558000Y16174000D03*
X19558000Y16338000D03*
G54D19*
X13701000Y17592000D03*
X13701000Y20092000D03*
G54D28*
X16129000Y17526000D03*
X16129000Y17780000D03*
X16129000Y18034000D03*
X16129000Y18288000D03*
X16129000Y18542000D03*
X16129000Y18796000D03*
X16129000Y19050000D03*
X16129000Y19304000D03*
X16129000Y19558000D03*
X16129000Y19812000D03*
X16129000Y20066000D03*
X16129000Y20320000D03*
X16129000Y20574000D03*
X16129000Y20828000D03*
X16129000Y21082000D03*
X16129000Y21336000D03*
X16129000Y21590000D03*
X16129000Y21844000D03*
X16129000Y22098000D03*
X17673000Y17526000D03*
X17673000Y18034000D03*
X17673000Y17780000D03*
X17673000Y18542000D03*
X17673000Y18288000D03*
X17673000Y18796000D03*
X17673000Y19304000D03*
X17673000Y19050000D03*
X17673000Y19812000D03*
X17673000Y19558000D03*
X17673000Y20066000D03*
X17673000Y20574000D03*
X17673000Y20320000D03*
X17673000Y21082000D03*
X17673000Y20828000D03*
X17673000Y21336000D03*
X17673000Y21844000D03*
X17673000Y21590000D03*
X17673000Y22352000D03*
X17673000Y22098000D03*
G54D29*
X16301000Y21844000D03*
X16301000Y21590000D03*
X16301000Y22098000D03*
X16465000Y21844000D03*
X16465000Y21590000D03*
X16465000Y22098000D03*
X17063000Y22733000D03*
X17227000Y22733000D03*
X17063000Y22987000D03*
X17227000Y22987000D03*
X17317000Y21844000D03*
X17481000Y21844000D03*
X17317000Y22098000D03*
X17481000Y22098000D03*
X17317000Y22352000D03*
X17481000Y22352000D03*
X19476000Y18669000D03*
X19640000Y18669000D03*
X19476000Y18923000D03*
X19640000Y18923000D03*
X19603000Y22352000D03*
X19767000Y22352000D03*
X19603000Y22606000D03*
X19767000Y22606000D03*
X20873000Y22860000D03*
X21037000Y22860000D03*
X20873000Y22606000D03*
X21037000Y22606000D03*
M02*
