G04 ================== begin FILE IDENTIFICATION RECORD ==================*
G04 Layout Name:  byggernnode1.brd*
G04 Film Name:    Assembly_top*
G04 File Format:  Gerber RS274X*
G04 File Origin:  Cadence Allegro 24.1-P001*
G04 Origin Date:  Wed Nov  6 06:11:47 2024*
G04 *
G04 Layer:  REF DES/ASSEMBLY_TOP*
G04 Layer:  PACKAGE GEOMETRY/ASSEMBLY_TOP*
G04 *
G04 Offset:    (0.0000 0.0000)*
G04 Mirror:    No*
G04 Mode:      Positive*
G04 Rotation:  0*
G04 FullContactRelief:  No*
G04 UndefLineWidth:     0.1500*
G04 ================== end FILE IDENTIFICATION RECORD ====================*
%FSAX35Y35*MOMM*%
%IR0*IPPOS*OFA0.00000B0.00000*MIA0B0*SFA1.00000B1.00000*%
%ADD10C,.1*%
%ADD11C,.2*%
%ADD12C,.508*%
%ADD13C,.15*%
G75*
%LPD*%
G75*
G36*
G01X12700800Y16902500D02*
G03X12700800Y16902500I-00027800J0D01*
G37*
G54D10*
G01X12812000Y20686000D02*
X12812000Y21732000D01*
G01X13858000Y20686000D02*
X12812000Y20686000D01*
G01X12812000Y21732000D02*
X13858000Y21732000D01*
G01X13858000Y20813000D02*
X13731000Y20686000D01*
G01X13700000Y23300000D02*
G03X13700000Y23900000I0J00300000D01*
G01X13700000Y23900000D02*
G03X13700000Y23300000I0J-00300000D01*
G01X13975000Y15993000D02*
X15005000Y15993000D01*
G01X13975000Y16765500D02*
X13975000Y15993000D01*
G01X14232500Y17023000D02*
X13975000Y16765500D01*
G01X13858000Y21732000D02*
X13858000Y20686000D01*
G01X14747500Y17023000D02*
X14232500Y17023000D01*
G01X14457200Y18442000D02*
X14415500Y18483700D01*
G01X14540500Y18442000D02*
X14415500Y18442000D01*
G01X14540500Y18642000D02*
X14540500Y18442000D01*
G01X14415500Y18442000D02*
X14415500Y18642000D01*
G01X14415500Y18642000D02*
X14540500Y18642000D01*
G01X14498800Y19150000D02*
X14540500Y19108300D01*
G01X14415500Y19150000D02*
X14540500Y19150000D01*
G01X14415500Y18950000D02*
X14415500Y19150000D01*
G01X14540500Y18950000D02*
X14415500Y18950000D01*
G01X14540500Y19150000D02*
X14540500Y18950000D01*
G01X14463000Y20432000D02*
X14463000Y22748000D01*
G01X15509000Y20432000D02*
X14463000Y20432000D01*
G01X14463000Y22621000D02*
X14590000Y22748000D01*
G01X14463000Y22748000D02*
X15509000Y22748000D01*
G01X15005000Y15993000D02*
X15005000Y16765500D01*
G01X15005000Y16765500D02*
X14747500Y17023000D01*
G01X14732000Y17399000D02*
X14732000Y19939000D01*
G01X15748000Y17399000D02*
X14732000Y17399000D01*
G01X14732000Y19939000D02*
X15748000Y19939000D01*
G01X14844000Y23099000D02*
X14844000Y24145000D01*
G01X17922000Y23099000D02*
X14844000Y23099000D01*
G01X14844000Y24145000D02*
X17922000Y24145000D01*
G01X15196000Y15996000D02*
X15196000Y17024000D01*
G01X15678000Y15996000D02*
X15196000Y15996000D01*
G01X15196000Y17024000D02*
X15678000Y17024000D01*
G01X15678000Y17024000D02*
X15678000Y15996000D01*
G01X15551000Y17024000D02*
X15678000Y16897000D01*
G01X15748000Y19939000D02*
X15748000Y17399000D01*
G01X15509000Y22748000D02*
X15509000Y20432000D01*
G01X15648000Y22245800D02*
X15689700Y22287500D01*
G01X15648000Y22162500D02*
X15648000Y22287500D01*
G01X15848000Y22162500D02*
X15648000Y22162500D01*
G01X15848000Y22287500D02*
X15848000Y22162500D01*
G01X15648000Y22287500D02*
X15848000Y22287500D01*
G01X16006000Y17389000D02*
X16006000Y22489000D01*
G01X17796000Y17389000D02*
X16006000Y17389000D01*
G01X16006000Y22362000D02*
X16133000Y22489000D01*
G01X16006000Y22489000D02*
X17796000Y22489000D01*
G01X16351000Y15954000D02*
X17181000Y15954000D01*
G01X16351000Y16576500D02*
X16351000Y15954000D01*
G01X16558500Y16784000D02*
X16351000Y16576500D01*
G01X16973500Y16784000D02*
X16558500Y16784000D01*
G01X17181000Y15954000D02*
X17181000Y16576500D01*
G01X17181000Y16576500D02*
X16973500Y16784000D01*
G01X17796000Y22489000D02*
X17796000Y17389000D01*
G01X17922000Y24145000D02*
X17922000Y23099000D01*
G01X17795000Y24145000D02*
X17922000Y24018000D01*
G01X19035000Y17257000D02*
X19035000Y19065000D01*
G01X20081000Y17257000D02*
X19035000Y17257000D01*
G01X19035000Y18938000D02*
X19162000Y19065000D01*
G01X19035000Y19065000D02*
X20081000Y19065000D01*
G01X19177000Y19939000D02*
X19177000Y22479000D01*
G01X20193000Y19939000D02*
X19177000Y19939000D01*
G01X19177000Y22479000D02*
X20193000Y22479000D01*
G01X20081000Y19065000D02*
X20081000Y17257000D01*
G01X20193000Y22479000D02*
X20193000Y19939000D01*
G01X20700000Y16900000D02*
G03X20700000Y16300000I0J-00300000D01*
G01X20373500Y19167000D02*
X20373500Y22743000D01*
G01X21409500Y19167000D02*
X20373500Y19167000D01*
G01X20373500Y22616000D02*
X20500500Y22743000D01*
G01X20373500Y22743000D02*
X21409500Y22743000D01*
G01X20700000Y23900000D02*
G03X20700000Y23300000I0J-00300000D01*
G01X20700000Y16300000D02*
G03X20700000Y16900000I0J00300000D01*
G01X20700000Y23300000D02*
G03X20700000Y23900000I0J00300000D01*
G01X21409500Y22743000D02*
X21409500Y19167000D01*
G54D11*
G01X12151000Y17997000D02*
X12751000Y17997000D01*
G01X12151000Y19687000D02*
X12151000Y17997000D01*
G01X12751000Y19687000D02*
X12151000Y19687000D01*
G01X12751000Y17302000D02*
X12751000Y20382000D01*
G01X14001000Y17302000D02*
X12751000Y17302000D01*
G01X12751000Y20382000D02*
X14001000Y20382000D01*
G01X14001000Y20382000D02*
X14001000Y17302000D01*
G01X18471000Y15956000D02*
X18471000Y16556000D01*
G01X19121000Y15956000D02*
X18471000Y15956000D01*
G01X18471000Y16556000D02*
X19121000Y16556000D01*
G01X19121000Y16556000D02*
X19121000Y15956000D01*
G54D12*
G01X12674600Y23241000D02*
G02X12674600Y23241000I-00038100J0D01*
G01X18199100Y18034000D02*
G02X18199100Y18034000I-00038100J0D01*
G01X18580100Y20066000D02*
G02X18580100Y20066000I-00038100J0D01*
G54D13*
G01X12230000Y17089000D02*
X13430000Y17089000D01*
X13430000Y16177000D01*
X12230000Y16177000D01*
X12230000Y17089000D01*
G01X12313920Y20675600D02*
X12578080Y20675600D01*
G01X12313920Y21488400D02*
X12313920Y20675600D01*
G01X12578080Y21488400D02*
X12313920Y21488400D01*
G01X12313920Y21818600D02*
X12578080Y21818600D01*
G01X12313920Y22631400D02*
X12313920Y21818600D01*
G01X12578080Y22631400D02*
X12313920Y22631400D01*
G01X12192000Y22987000D02*
X12852400Y22987000D01*
G01X12192000Y24257000D02*
X12192000Y22987000D01*
G01X12852400Y24257000D02*
X12192000Y24257000D01*
G01X12578080Y20675600D02*
X12578080Y21488400D01*
G01X12565380Y20828000D02*
G02X12565380Y20828000I-00025400J0D01*
G01X12578080Y21818600D02*
X12578080Y22631400D01*
G01X12565380Y21971000D02*
G02X12565380Y21971000I-00025400J0D01*
G01X12852400Y22987000D02*
X12852400Y24257000D01*
G01X13296200Y16637730D02*
X13289850Y16634340D01*
X13285620Y16630280D01*
X13283500Y16625530D01*
X13285620Y16620120D01*
X13289850Y16616050D01*
X13296200Y16611990D01*
X13304670Y16610630D01*
X13347000Y16610630D01*
G01X13283500Y16568300D02*
X13347000Y16568300D01*
X13334300Y16576430D01*
G01X13283500Y16576430D02*
X13283500Y16560170D01*
G01X13332470Y21171260D02*
X13309110Y21171260D01*
G01X13320790Y21171260D02*
X13320790Y21250000D01*
G01X13332470Y21250000D02*
X13309110Y21250000D01*
G01X13220630Y21177820D02*
X13226470Y21173880D01*
X13233290Y21171260D01*
X13241080Y21171260D01*
X13249840Y21175200D01*
X13256650Y21181760D01*
X13261520Y21189630D01*
X13265420Y21202760D01*
X13266390Y21214570D01*
X13264440Y21226380D01*
X13261520Y21234250D01*
X13255680Y21242130D01*
X13248870Y21247380D01*
X13242050Y21250000D01*
X13235230Y21250000D01*
X13228420Y21247380D01*
X13222580Y21243440D01*
X13217710Y21238190D01*
G01X13163310Y21250000D02*
X13156490Y21248690D01*
X13148710Y21244750D01*
X13143840Y21238190D01*
X13141890Y21229000D01*
X13143840Y21219820D01*
X13149680Y21211940D01*
X13158440Y21208000D01*
X13168180Y21208000D01*
X13174020Y21205380D01*
X13178890Y21198820D01*
X13180840Y21189630D01*
X13177910Y21180450D01*
X13171100Y21173880D01*
X13163310Y21171260D01*
X13155520Y21173880D01*
X13148710Y21180450D01*
X13145780Y21189630D01*
X13147730Y21198820D01*
X13152600Y21205380D01*
X13158440Y21208000D01*
X13168180Y21208000D01*
X13176940Y21211940D01*
X13182780Y21219820D01*
X13184730Y21229000D01*
X13182780Y21238190D01*
X13177910Y21244750D01*
X13170130Y21248690D01*
X13163310Y21250000D01*
G01X13708760Y23600000D02*
X13708760Y23678740D01*
G01X13749660Y23678740D02*
X13749660Y23600000D01*
G01X13749660Y23639370D02*
X13708760Y23639370D01*
G01X13786530Y23615750D02*
X13792370Y23606560D01*
X13800160Y23601310D01*
X13808920Y23600000D01*
X13816710Y23601310D01*
X13824500Y23607870D01*
X13829370Y23615750D01*
X13830340Y23623620D01*
X13828400Y23632810D01*
X13821580Y23639370D01*
X13814770Y23642000D01*
X13806000Y23642000D01*
G01X13814770Y23642000D02*
X13820610Y23645930D01*
X13825480Y23652490D01*
X13827420Y23660370D01*
X13825480Y23668240D01*
X13820610Y23674800D01*
X13811840Y23678740D01*
X13803080Y23677430D01*
X13794320Y23672180D01*
G01X14872180Y16499370D02*
X14876120Y16505210D01*
X14878740Y16512030D01*
X14878740Y16519820D01*
X14874800Y16528580D01*
X14868240Y16535390D01*
X14860370Y16540260D01*
X14847240Y16544160D01*
X14835430Y16545130D01*
X14823620Y16543180D01*
X14815750Y16540260D01*
X14807870Y16534420D01*
X14802620Y16527610D01*
X14800000Y16520790D01*
X14800000Y16513970D01*
X14802620Y16507160D01*
X14806560Y16501320D01*
X14811810Y16496450D01*
G01X14865620Y16460550D02*
X14873490Y16454710D01*
X14877430Y16447890D01*
X14878740Y16440100D01*
X14876120Y16430370D01*
X14869550Y16423550D01*
X14861680Y16421600D01*
X14853800Y16422580D01*
X14847240Y16426470D01*
X14834120Y16445940D01*
X14824930Y16454710D01*
X14811810Y16460550D01*
X14800000Y16462500D01*
X14800000Y16421600D01*
G01X14867530Y22678740D02*
X14890890Y22678740D01*
G01X14879210Y22678740D02*
X14879210Y22600000D01*
G01X14867530Y22600000D02*
X14890890Y22600000D01*
G01X14979370Y22672180D02*
X14973530Y22676120D01*
X14966710Y22678740D01*
X14958920Y22678740D01*
X14950160Y22674800D01*
X14943350Y22668240D01*
X14938480Y22660370D01*
X14934580Y22647240D01*
X14933610Y22635430D01*
X14935560Y22623620D01*
X14938480Y22615750D01*
X14944320Y22607870D01*
X14951130Y22602620D01*
X14957950Y22600000D01*
X14964770Y22600000D01*
X14971580Y22602620D01*
X14977420Y22606560D01*
X14982290Y22611810D01*
G01X15034740Y22600000D02*
X15036690Y22617060D01*
X15039610Y22631490D01*
X15043510Y22644620D01*
X15048370Y22659050D01*
X15056160Y22678740D01*
X15017220Y22678740D01*
G01X15316240Y18682470D02*
X15316240Y18659110D01*
G01X15316240Y18670790D02*
X15237500Y18670790D01*
G01X15237500Y18682470D02*
X15237500Y18659110D01*
G01X15309680Y18570630D02*
X15313620Y18576470D01*
X15316240Y18583290D01*
X15316240Y18591080D01*
X15312300Y18599840D01*
X15305740Y18606650D01*
X15297870Y18611520D01*
X15284740Y18615420D01*
X15272930Y18616390D01*
X15261120Y18614440D01*
X15253250Y18611520D01*
X15245370Y18605680D01*
X15240120Y18598870D01*
X15237500Y18592050D01*
X15237500Y18585230D01*
X15240120Y18578420D01*
X15244060Y18572580D01*
X15249310Y18567710D01*
G01X15270310Y18531810D02*
X15279500Y18524990D01*
X15284740Y18519150D01*
X15287370Y18511360D01*
X15284740Y18504550D01*
X15279500Y18499680D01*
X15271620Y18495780D01*
X15262430Y18494810D01*
X15254560Y18495780D01*
X15246680Y18499680D01*
X15240120Y18505520D01*
X15237500Y18512340D01*
X15240120Y18520130D01*
X15248000Y18526940D01*
X15259810Y18530840D01*
X15272930Y18531810D01*
X15289990Y18529860D01*
X15299180Y18526940D01*
X15308370Y18522070D01*
X15314930Y18515260D01*
X15316240Y18508440D01*
X15313620Y18501630D01*
X15307050Y18496760D01*
G01X17072180Y16399370D02*
X17076120Y16405210D01*
X17078740Y16412030D01*
X17078740Y16419820D01*
X17074800Y16428580D01*
X17068240Y16435390D01*
X17060370Y16440260D01*
X17047240Y16444160D01*
X17035430Y16445130D01*
X17023620Y16443180D01*
X17015750Y16440260D01*
X17007870Y16434420D01*
X17002620Y16427610D01*
X17000000Y16420790D01*
X17000000Y16413970D01*
X17002620Y16407160D01*
X17006560Y16401320D01*
X17011810Y16396450D01*
G01X17000000Y16342050D02*
X17078740Y16342050D01*
X17062990Y16353730D01*
G01X17000000Y16353730D02*
X17000000Y16330370D01*
G01X17328740Y23732470D02*
X17328740Y23709110D01*
G01X17328740Y23720790D02*
X17250000Y23720790D01*
G01X17250000Y23732470D02*
X17250000Y23709110D01*
G01X17322180Y23620630D02*
X17326120Y23626470D01*
X17328740Y23633290D01*
X17328740Y23641080D01*
X17324800Y23649840D01*
X17318240Y23656650D01*
X17310370Y23661520D01*
X17297240Y23665420D01*
X17285430Y23666390D01*
X17273620Y23664440D01*
X17265750Y23661520D01*
X17257870Y23655680D01*
X17252620Y23648870D01*
X17250000Y23642050D01*
X17250000Y23635230D01*
X17252620Y23628420D01*
X17256560Y23622580D01*
X17261810Y23617710D01*
G01X17265750Y23584730D02*
X17256560Y23578890D01*
X17251310Y23571100D01*
X17250000Y23562340D01*
X17251310Y23554550D01*
X17257870Y23546760D01*
X17265750Y23541890D01*
X17273620Y23540920D01*
X17282810Y23542860D01*
X17289370Y23549680D01*
X17292000Y23556490D01*
X17292000Y23565260D01*
G01X17292000Y23556490D02*
X17295930Y23550650D01*
X17302490Y23545780D01*
X17310370Y23543840D01*
X17318240Y23545780D01*
X17324800Y23550650D01*
X17328740Y23559420D01*
X17327430Y23568180D01*
X17322180Y23576940D01*
G01X18237200Y17907000D02*
X18719800Y17907000D01*
G01X18237200Y19177000D02*
X18237200Y17907000D01*
G01X18719800Y19177000D02*
X18237200Y19177000D01*
G01X18097500Y19812000D02*
X18757900Y19812000D01*
G01X18097500Y23114000D02*
X18097500Y19812000D01*
G01X18757900Y23114000D02*
X18097500Y23114000D01*
G01X18719800Y17907000D02*
X18719800Y19177000D01*
G01X18757900Y19812000D02*
X18757900Y23114000D01*
G01X19467530Y18428740D02*
X19490890Y18428740D01*
G01X19479210Y18428740D02*
X19479210Y18350000D01*
G01X19467530Y18350000D02*
X19490890Y18350000D01*
G01X19579370Y18422180D02*
X19573530Y18426120D01*
X19566710Y18428740D01*
X19558920Y18428740D01*
X19550160Y18424800D01*
X19543350Y18418240D01*
X19538480Y18410370D01*
X19534580Y18397240D01*
X19533610Y18385430D01*
X19535560Y18373620D01*
X19538480Y18365750D01*
X19544320Y18357870D01*
X19551130Y18352620D01*
X19557950Y18350000D01*
X19564770Y18350000D01*
X19571580Y18352620D01*
X19577420Y18356560D01*
X19582290Y18361810D01*
G01X19618190Y18415620D02*
X19624030Y18423490D01*
X19630850Y18427430D01*
X19638640Y18428740D01*
X19648370Y18426120D01*
X19655190Y18419550D01*
X19657140Y18411680D01*
X19656160Y18403800D01*
X19652270Y18397240D01*
X19632800Y18384120D01*
X19624030Y18374930D01*
X19618190Y18361810D01*
X19616240Y18350000D01*
X19657140Y18350000D01*
G01X19592530Y22403740D02*
X19615890Y22403740D01*
G01X19604210Y22403740D02*
X19604210Y22325000D01*
G01X19592530Y22325000D02*
X19615890Y22325000D01*
G01X19704370Y22397180D02*
X19698530Y22401120D01*
X19691710Y22403740D01*
X19683920Y22403740D01*
X19675160Y22399800D01*
X19668350Y22393240D01*
X19663480Y22385370D01*
X19659580Y22372240D01*
X19658610Y22360430D01*
X19660560Y22348620D01*
X19663480Y22340750D01*
X19669320Y22332870D01*
X19676130Y22327620D01*
X19682950Y22325000D01*
X19689770Y22325000D01*
X19696580Y22327620D01*
X19702420Y22331560D01*
X19707290Y22336810D01*
G01X19740270Y22336810D02*
X19746110Y22330250D01*
X19752930Y22326310D01*
X19761690Y22325000D01*
X19770450Y22327620D01*
X19777270Y22332870D01*
X19782140Y22342060D01*
X19783110Y22352560D01*
X19781160Y22363060D01*
X19776290Y22369620D01*
X19769480Y22374870D01*
X19762660Y22376180D01*
X19755850Y22374870D01*
X19747090Y22369620D01*
X19750010Y22403740D01*
X19776290Y22403740D01*
G01X20708760Y16600000D02*
X20708760Y16678740D01*
G01X20749660Y16678740D02*
X20749660Y16600000D01*
G01X20749660Y16639370D02*
X20708760Y16639370D01*
G01X20789450Y16665620D02*
X20795290Y16673490D01*
X20802110Y16677430D01*
X20809900Y16678740D01*
X20819630Y16676120D01*
X20826450Y16669550D01*
X20828400Y16661680D01*
X20827420Y16653800D01*
X20823530Y16647240D01*
X20804060Y16634120D01*
X20795290Y16624930D01*
X20789450Y16611810D01*
X20787500Y16600000D01*
X20828400Y16600000D01*
G01X20708760Y23600000D02*
X20708760Y23678740D01*
G01X20749660Y23678740D02*
X20749660Y23600000D01*
G01X20749660Y23639370D02*
X20708760Y23639370D01*
G01X20807950Y23600000D02*
X20807950Y23678740D01*
X20796270Y23662990D01*
G01X20796270Y23600000D02*
X20819630Y23600000D01*
M02*
