G04 ================== begin FILE IDENTIFICATION RECORD ==================*
G04 Layout Name:  byggernnode1.brd*
G04 Film Name:    Assembly_bot*
G04 File Format:  Gerber RS274X*
G04 File Origin:  Cadence Allegro 24.1-P001*
G04 Origin Date:  Wed Nov  6 06:11:47 2024*
G04 *
G04 Layer:  REF DES/ASSEMBLY_BOTTOM*
G04 Layer:  PACKAGE GEOMETRY/ASSEMBLY_BOTTOM*
G04 *
G04 Offset:    (0.0000 0.0000)*
G04 Mirror:    No*
G04 Mode:      Positive*
G04 Rotation:  0*
G04 FullContactRelief:  No*
G04 UndefLineWidth:     0.1500*
G04 ================== end FILE IDENTIFICATION RECORD ====================*
%FSAX35Y35*MOMM*%
%IR0*IPPOS*OFA0.00000B0.00000*MIA0B0*SFA1.00000B1.00000*%
%ADD10C,.1*%
%ADD11C,.2*%
%ADD12C,.15*%
G75*
%LPD*%
G75*
G54D10*
G01X12762500Y21055000D02*
X12637500Y21055000D01*
G01X12762500Y20855000D02*
X12762500Y21055000D01*
G01X12637500Y20855000D02*
X12762500Y20855000D01*
G01X12637500Y21055000D02*
X12637500Y20855000D01*
G01X12727000Y21908500D02*
X12927000Y21908500D01*
G01X12727000Y22033500D02*
X12727000Y21908500D01*
G01X12727000Y22162500D02*
X12927000Y22162500D01*
G01X12727000Y22287500D02*
X12727000Y22162500D01*
G01X12927000Y22287500D02*
X12727000Y22287500D01*
G01X12927000Y22033500D02*
X12727000Y22033500D01*
G01X12727000Y23303500D02*
X12727000Y23178500D01*
G01X12727000Y23178500D02*
X12927000Y23178500D01*
G01X12927000Y23303500D02*
X12727000Y23303500D01*
G01X12727000Y23811500D02*
X12727000Y23686500D01*
G01X12927000Y23811500D02*
X12727000Y23811500D01*
G01X12727000Y23686500D02*
X12927000Y23686500D01*
G01X13145500Y20728000D02*
X13270500Y20728000D01*
G01X13145500Y20928000D02*
X13145500Y20728000D01*
G01X13270500Y20928000D02*
X13145500Y20928000D01*
G01X13270500Y20728000D02*
X13270500Y20928000D01*
G01X13270500Y21309000D02*
X13145500Y21309000D01*
G01X13270500Y21109000D02*
X13270500Y21309000D01*
G01X13145500Y21109000D02*
X13270500Y21109000D01*
G01X13145500Y21309000D02*
X13145500Y21109000D01*
G01X13145500Y21490000D02*
X13270500Y21490000D01*
G01X13145500Y21690000D02*
X13145500Y21490000D01*
G01X13270500Y21490000D02*
X13270500Y21690000D01*
G01X12927000Y21908500D02*
X12927000Y22033500D01*
G01X13270500Y21690000D02*
X13145500Y21690000D01*
G01X12927000Y22162500D02*
X12927000Y22287500D01*
G01X12927000Y23178500D02*
X12927000Y23303500D01*
G01X12927000Y23686500D02*
X12927000Y23811500D01*
G01X13399500Y21490000D02*
X13524500Y21490000D01*
G01X13399500Y21690000D02*
X13399500Y21490000D01*
G01X13524500Y21490000D02*
X13524500Y21690000D01*
G01X13524500Y21309000D02*
X13399500Y21309000D01*
G01X13524500Y21109000D02*
X13524500Y21309000D01*
G01X13399500Y21109000D02*
X13524500Y21109000D01*
G01X13399500Y21309000D02*
X13399500Y21109000D01*
G01X13524500Y21690000D02*
X13399500Y21690000D01*
G01X13984000Y20512000D02*
X14464000Y20512000D01*
G01X13984000Y21652000D02*
X13984000Y20512000D01*
G01X14464000Y21652000D02*
X13984000Y21652000D01*
G01X14415500Y17934000D02*
X14540500Y17934000D01*
G01X14415500Y18134000D02*
X14415500Y17934000D01*
G01X14540500Y17934000D02*
X14540500Y18134000D01*
G01X14540500Y18134000D02*
X14415500Y18134000D01*
G01X14540500Y19658000D02*
X14415500Y19658000D01*
G01X14540500Y19458000D02*
X14540500Y19658000D01*
G01X14415500Y19458000D02*
X14540500Y19458000D01*
G01X14415500Y19658000D02*
X14415500Y19458000D01*
G01X14464000Y20512000D02*
X14464000Y21652000D01*
G01X15050500Y18315000D02*
X15175500Y18315000D01*
G01X15050500Y18515000D02*
X15050500Y18315000D01*
G01X15175500Y18515000D02*
X15050500Y18515000D01*
G01X14921500Y20601000D02*
X14921500Y20801000D01*
G01X14796500Y20601000D02*
X14921500Y20601000D01*
G01X14796500Y20801000D02*
X14796500Y20601000D01*
G01X14921500Y20801000D02*
X14796500Y20801000D01*
G01X14796500Y20982000D02*
X14921500Y20982000D01*
G01X14796500Y21182000D02*
X14796500Y20982000D01*
G01X14921500Y20982000D02*
X14921500Y21182000D01*
G01X14921500Y21182000D02*
X14796500Y21182000D01*
G01X14921500Y22579000D02*
X14796500Y22579000D01*
G01X14921500Y22379000D02*
X14921500Y22579000D01*
G01X14796500Y22379000D02*
X14921500Y22379000D01*
G01X14796500Y22579000D02*
X14796500Y22379000D01*
G01X15175500Y22579000D02*
X15050500Y22579000D01*
G01X15050500Y22379000D02*
X15175500Y22379000D01*
G01X15050500Y22579000D02*
X15050500Y22379000D01*
G01X15304500Y18315000D02*
X15429500Y18315000D01*
G01X15304500Y18515000D02*
X15304500Y18315000D01*
G01X15429500Y18315000D02*
X15429500Y18515000D01*
G01X15175500Y18315000D02*
X15175500Y18515000D01*
G01X15429500Y18515000D02*
X15304500Y18515000D01*
G01X15175500Y22379000D02*
X15175500Y22579000D01*
G01X15848000Y22543500D02*
X15848000Y22668500D01*
G01X15648000Y22543500D02*
X15848000Y22543500D01*
G01X15648000Y22668500D02*
X15648000Y22543500D01*
G01X15848000Y22668500D02*
X15648000Y22668500D01*
G01X16320500Y17553000D02*
X16445500Y17553000D01*
G01X16320500Y17753000D02*
X16320500Y17553000D01*
G01X16445500Y17753000D02*
X16320500Y17753000D01*
G01X16320500Y18061000D02*
X16445500Y18061000D01*
G01X16320500Y18261000D02*
X16320500Y18061000D01*
G01X16445500Y18261000D02*
X16320500Y18261000D01*
G01X16283000Y21906500D02*
X16283000Y21781500D01*
G01X16483000Y21906500D02*
X16283000Y21906500D01*
G01X16283000Y21781500D02*
X16483000Y21781500D01*
G01X16283000Y21652500D02*
X16283000Y21527500D01*
G01X16483000Y21652500D02*
X16283000Y21652500D01*
G01X16283000Y21527500D02*
X16483000Y21527500D01*
G01X16283000Y22160500D02*
X16283000Y22035500D01*
G01X16483000Y22160500D02*
X16283000Y22160500D01*
G01X16283000Y22035500D02*
X16483000Y22035500D01*
G01X16445500Y17553000D02*
X16445500Y17753000D01*
G01X16656000Y17337000D02*
X17126000Y17337000D01*
G01X16656000Y18477000D02*
X16656000Y17337000D01*
G01X16445500Y18061000D02*
X16445500Y18261000D01*
G01X17126000Y18477000D02*
X16656000Y18477000D01*
G01X16483000Y21781500D02*
X16483000Y21906500D01*
G01X16483000Y21527500D02*
X16483000Y21652500D01*
G01X16483000Y22035500D02*
X16483000Y22160500D01*
G01X17126000Y17337000D02*
X17126000Y18477000D01*
G01X17045000Y22670500D02*
X17245000Y22670500D01*
G01X17045000Y22795500D02*
X17045000Y22670500D01*
G01X17245000Y22795500D02*
X17045000Y22795500D01*
G01X17045000Y22924500D02*
X17245000Y22924500D01*
G01X17045000Y23049500D02*
X17045000Y22924500D01*
G01X17245000Y23049500D02*
X17045000Y23049500D01*
G01X17080500Y23595000D02*
X16955500Y23595000D01*
G01X17080500Y23395000D02*
X17080500Y23595000D01*
G01X16955500Y23395000D02*
X17080500Y23395000D01*
G01X16955500Y23595000D02*
X16955500Y23395000D01*
G01X17499000Y21781500D02*
X17499000Y21906500D01*
G01X17299000Y21781500D02*
X17499000Y21781500D01*
G01X17299000Y21906500D02*
X17299000Y21781500D01*
G01X17499000Y21906500D02*
X17299000Y21906500D01*
G01X17499000Y22035500D02*
X17499000Y22160500D01*
G01X17299000Y22035500D02*
X17499000Y22035500D01*
G01X17299000Y22160500D02*
X17299000Y22035500D01*
G01X17499000Y22160500D02*
X17299000Y22160500D01*
G01X17499000Y22289500D02*
X17499000Y22414500D01*
G01X17299000Y22289500D02*
X17499000Y22289500D01*
G01X17299000Y22414500D02*
X17299000Y22289500D01*
G01X17245000Y22670500D02*
X17245000Y22795500D01*
G01X17499000Y22414500D02*
X17299000Y22414500D01*
G01X17588500Y23023500D02*
X17463500Y23023500D01*
G01X17588500Y22823500D02*
X17588500Y23023500D01*
G01X17463500Y22823500D02*
X17588500Y22823500D01*
G01X17463500Y23023500D02*
X17463500Y22823500D01*
G01X17245000Y22924500D02*
X17245000Y23049500D01*
G01X17588500Y23649000D02*
X17588500Y23849000D01*
G01X17463500Y23649000D02*
X17588500Y23649000D01*
G01X17463500Y23849000D02*
X17463500Y23649000D01*
G01X17588500Y23849000D02*
X17463500Y23849000D01*
G01X17842500Y23023500D02*
X17717500Y23023500D01*
G01X17842500Y22823500D02*
X17842500Y23023500D01*
G01X17717500Y22823500D02*
X17842500Y22823500D01*
G01X17717500Y23023500D02*
X17717500Y22823500D01*
G01X17842500Y23649000D02*
X17842500Y23849000D01*
G01X17717500Y23649000D02*
X17842500Y23649000D01*
G01X17717500Y23849000D02*
X17717500Y23649000D01*
G01X17842500Y23849000D02*
X17717500Y23849000D01*
G01X19620500Y16156000D02*
X19620500Y16356000D01*
G01X19495500Y16156000D02*
X19620500Y16156000D01*
G01X19495500Y16356000D02*
X19495500Y16156000D01*
G01X19495500Y16664000D02*
X19620500Y16664000D01*
G01X19495500Y16864000D02*
X19495500Y16664000D01*
G01X19620500Y16664000D02*
X19620500Y16864000D01*
G01X19620500Y16356000D02*
X19495500Y16356000D01*
G01X19620500Y16864000D02*
X19495500Y16864000D01*
G01X19658000Y18606500D02*
X19658000Y18731500D01*
G01X19458000Y18606500D02*
X19658000Y18606500D01*
G01X19458000Y18731500D02*
X19458000Y18606500D01*
G01X19658000Y18731500D02*
X19458000Y18731500D01*
G01X19658000Y18860500D02*
X19658000Y18985500D01*
G01X19458000Y18860500D02*
X19658000Y18860500D01*
G01X19458000Y18985500D02*
X19458000Y18860500D01*
G01X19658000Y18985500D02*
X19458000Y18985500D01*
G01X19585000Y22289500D02*
X19785000Y22289500D01*
G01X19585000Y22414500D02*
X19585000Y22289500D01*
G01X19585000Y22543500D02*
X19785000Y22543500D01*
G01X19585000Y22668500D02*
X19585000Y22543500D01*
G01X19785000Y22668500D02*
X19585000Y22668500D01*
G01X19785000Y22414500D02*
X19585000Y22414500D01*
G01X19785000Y22289500D02*
X19785000Y22414500D01*
G01X19785000Y22543500D02*
X19785000Y22668500D01*
G01X21055000Y20765500D02*
X21055000Y20890500D01*
G01X20855000Y20765500D02*
X21055000Y20765500D01*
G01X20855000Y20890500D02*
X20855000Y20765500D01*
G01X21055000Y20890500D02*
X20855000Y20890500D01*
G01X21055000Y21273500D02*
X21055000Y21398500D01*
G01X20855000Y21273500D02*
X21055000Y21273500D01*
G01X20855000Y21398500D02*
X20855000Y21273500D01*
G01X21055000Y21398500D02*
X20855000Y21398500D01*
G01X21055000Y21781500D02*
X21055000Y21906500D01*
G01X20855000Y21781500D02*
X21055000Y21781500D01*
G01X20855000Y21906500D02*
X20855000Y21781500D01*
G01X21055000Y21906500D02*
X20855000Y21906500D01*
G01X21055000Y21527500D02*
X21055000Y21652500D01*
G01X20855000Y21527500D02*
X21055000Y21527500D01*
G01X20855000Y21652500D02*
X20855000Y21527500D01*
G01X21055000Y21652500D02*
X20855000Y21652500D01*
G01X20855000Y22414500D02*
X20855000Y22289500D01*
G01X21055000Y22289500D02*
X21055000Y22414500D01*
G01X20855000Y22289500D02*
X21055000Y22289500D01*
G01X21055000Y22414500D02*
X20855000Y22414500D01*
G01X21055000Y22543500D02*
X21055000Y22668500D01*
G01X20855000Y22543500D02*
X21055000Y22543500D01*
G01X20855000Y22668500D02*
X20855000Y22543500D01*
G01X21055000Y22668500D02*
X20855000Y22668500D01*
G01X21055000Y22797500D02*
X21055000Y22922500D01*
G01X20855000Y22797500D02*
X21055000Y22797500D01*
G01X20855000Y22922500D02*
X20855000Y22797500D01*
G01X21055000Y22922500D02*
X20855000Y22922500D01*
G54D11*
G01X15591000Y16333000D02*
X15651000Y16333000D01*
G01X15591000Y16433000D02*
X15591000Y16333000D01*
G01X15651000Y16333000D02*
X15651000Y16433000D01*
G01X15651000Y16433000D02*
X15591000Y16433000D01*
G01X18064000Y16306000D02*
X18004000Y16306000D01*
G01X18064000Y16206000D02*
X18064000Y16306000D01*
G01X18004000Y16206000D02*
X18064000Y16206000D01*
G01X18004000Y16306000D02*
X18004000Y16206000D01*
G54D12*
G01X13040320Y21649370D02*
X13036380Y21655210D01*
X13033760Y21662030D01*
X13033760Y21669820D01*
X13037700Y21678580D01*
X13044260Y21685390D01*
X13052130Y21690260D01*
X13065260Y21694160D01*
X13077070Y21695130D01*
X13088880Y21693180D01*
X13096750Y21690260D01*
X13104630Y21684420D01*
X13109880Y21677610D01*
X13112500Y21670790D01*
X13112500Y21663970D01*
X13109880Y21657160D01*
X13105940Y21651320D01*
X13100690Y21646450D01*
G01X13096750Y21613470D02*
X13105940Y21607630D01*
X13111190Y21599840D01*
X13112500Y21591080D01*
X13111190Y21583290D01*
X13104630Y21575500D01*
X13096750Y21570630D01*
X13088880Y21569660D01*
X13079690Y21571600D01*
X13073130Y21578420D01*
X13070500Y21585230D01*
X13070500Y21594000D01*
G01X13070500Y21585230D02*
X13066570Y21579390D01*
X13060010Y21574520D01*
X13052130Y21572580D01*
X13044260Y21574520D01*
X13037700Y21579390D01*
X13033760Y21588160D01*
X13035070Y21596920D01*
X13040320Y21605680D01*
G01X13096750Y21534730D02*
X13105940Y21528890D01*
X13111190Y21521100D01*
X13112500Y21512340D01*
X13111190Y21504550D01*
X13104630Y21496760D01*
X13096750Y21491890D01*
X13088880Y21490920D01*
X13079690Y21492860D01*
X13073130Y21499680D01*
X13070500Y21506490D01*
X13070500Y21515260D01*
G01X13070500Y21506490D02*
X13066570Y21500650D01*
X13060010Y21495780D01*
X13052130Y21493840D01*
X13044260Y21495780D01*
X13037700Y21500650D01*
X13033760Y21509420D01*
X13035070Y21518180D01*
X13040320Y21526940D01*
G01X13565320Y21649370D02*
X13561380Y21655210D01*
X13558760Y21662030D01*
X13558760Y21669820D01*
X13562700Y21678580D01*
X13569260Y21685390D01*
X13577130Y21690260D01*
X13590260Y21694160D01*
X13602070Y21695130D01*
X13613880Y21693180D01*
X13621750Y21690260D01*
X13629630Y21684420D01*
X13634880Y21677610D01*
X13637500Y21670790D01*
X13637500Y21663970D01*
X13634880Y21657160D01*
X13630940Y21651320D01*
X13625690Y21646450D01*
G01X13621750Y21613470D02*
X13630940Y21607630D01*
X13636190Y21599840D01*
X13637500Y21591080D01*
X13636190Y21583290D01*
X13629630Y21575500D01*
X13621750Y21570630D01*
X13613880Y21569660D01*
X13604690Y21571600D01*
X13598130Y21578420D01*
X13595500Y21585230D01*
X13595500Y21594000D01*
G01X13595500Y21585230D02*
X13591570Y21579390D01*
X13585010Y21574520D01*
X13577130Y21572580D01*
X13569260Y21574520D01*
X13562700Y21579390D01*
X13558760Y21588160D01*
X13560070Y21596920D01*
X13565320Y21605680D01*
G01X13558760Y21513310D02*
X13561380Y21521100D01*
X13567950Y21526940D01*
X13575820Y21530840D01*
X13586320Y21533760D01*
X13598130Y21534730D01*
X13609940Y21533760D01*
X13620440Y21530840D01*
X13628320Y21526940D01*
X13634880Y21521100D01*
X13637500Y21513310D01*
X13634880Y21505520D01*
X13628320Y21499680D01*
X13620440Y21495780D01*
X13609940Y21492860D01*
X13598130Y21491890D01*
X13586320Y21492860D01*
X13575820Y21495780D01*
X13567950Y21499680D01*
X13561380Y21505520D01*
X13558760Y21513310D01*
G01X13565320Y21261870D02*
X13561380Y21267710D01*
X13558760Y21274530D01*
X13558760Y21282320D01*
X13562700Y21291080D01*
X13569260Y21297890D01*
X13577130Y21302760D01*
X13590260Y21306660D01*
X13602070Y21307630D01*
X13613880Y21305680D01*
X13621750Y21302760D01*
X13629630Y21296920D01*
X13634880Y21290110D01*
X13637500Y21283290D01*
X13637500Y21276470D01*
X13634880Y21269660D01*
X13630940Y21263820D01*
X13625690Y21258950D01*
G01X13571880Y21223050D02*
X13564010Y21217210D01*
X13560070Y21210390D01*
X13558760Y21202600D01*
X13561380Y21192870D01*
X13567950Y21186050D01*
X13575820Y21184100D01*
X13583700Y21185080D01*
X13590260Y21188970D01*
X13603380Y21208440D01*
X13612570Y21217210D01*
X13625690Y21223050D01*
X13637500Y21225000D01*
X13637500Y21184100D01*
G01X13628320Y21142360D02*
X13634880Y21135550D01*
X13637500Y21127760D01*
X13634880Y21119970D01*
X13627000Y21113150D01*
X13615190Y21108280D01*
X13603380Y21106340D01*
X13588940Y21106340D01*
X13577130Y21108280D01*
X13566630Y21113150D01*
X13561380Y21118990D01*
X13558760Y21125810D01*
X13561380Y21133600D01*
X13566630Y21139440D01*
X13574510Y21143340D01*
X13585010Y21145280D01*
X13594190Y21143340D01*
X13603380Y21138470D01*
X13608630Y21132630D01*
X13609940Y21125810D01*
X13607320Y21118020D01*
X13600760Y21112180D01*
X13588940Y21106340D01*
G01X14262500Y21120790D02*
X14227070Y21120790D01*
X14183760Y21140260D01*
G01X14183760Y21101320D02*
X14227070Y21120790D01*
G01X14196880Y21060550D02*
X14189010Y21054710D01*
X14185070Y21047890D01*
X14183760Y21040100D01*
X14186380Y21030370D01*
X14192950Y21023550D01*
X14200820Y21021600D01*
X14208700Y21022580D01*
X14215260Y21026470D01*
X14228380Y21045940D01*
X14237570Y21054710D01*
X14250690Y21060550D01*
X14262500Y21062500D01*
X14262500Y21021600D01*
G01X14977820Y20749370D02*
X14973880Y20755210D01*
X14971260Y20762030D01*
X14971260Y20769820D01*
X14975200Y20778580D01*
X14981760Y20785390D01*
X14989630Y20790260D01*
X15002760Y20794160D01*
X15014570Y20795130D01*
X15026380Y20793180D01*
X15034250Y20790260D01*
X15042130Y20784420D01*
X15047380Y20777610D01*
X15050000Y20770790D01*
X15050000Y20763970D01*
X15047380Y20757160D01*
X15043440Y20751320D01*
X15038190Y20746450D01*
G01X14984380Y20710550D02*
X14976510Y20704710D01*
X14972570Y20697890D01*
X14971260Y20690100D01*
X14973880Y20680370D01*
X14980450Y20673550D01*
X14988320Y20671600D01*
X14996200Y20672580D01*
X15002760Y20676470D01*
X15015880Y20695940D01*
X15025070Y20704710D01*
X15038190Y20710550D01*
X15050000Y20712500D01*
X15050000Y20671600D01*
G01X15050000Y20613310D02*
X15048690Y20606490D01*
X15044750Y20598710D01*
X15038190Y20593840D01*
X15029000Y20591890D01*
X15019820Y20593840D01*
X15011940Y20599680D01*
X15008000Y20608440D01*
X15008000Y20618180D01*
X15005380Y20624020D01*
X14998820Y20628890D01*
X14989630Y20630840D01*
X14980450Y20627910D01*
X14973880Y20621100D01*
X14971260Y20613310D01*
X14973880Y20605520D01*
X14980450Y20598710D01*
X14989630Y20595780D01*
X14998820Y20597730D01*
X15005380Y20602600D01*
X15008000Y20608440D01*
X15008000Y20618180D01*
X15011940Y20626940D01*
X15019820Y20632780D01*
X15029000Y20634730D01*
X15038190Y20632780D01*
X15044750Y20627910D01*
X15048690Y20620130D01*
X15050000Y20613310D01*
G01X14977820Y21136870D02*
X14973880Y21142710D01*
X14971260Y21149530D01*
X14971260Y21157320D01*
X14975200Y21166080D01*
X14981760Y21172890D01*
X14989630Y21177760D01*
X15002760Y21181660D01*
X15014570Y21182630D01*
X15026380Y21180680D01*
X15034250Y21177760D01*
X15042130Y21171920D01*
X15047380Y21165110D01*
X15050000Y21158290D01*
X15050000Y21151470D01*
X15047380Y21144660D01*
X15043440Y21138820D01*
X15038190Y21133950D01*
G01X14984380Y21098050D02*
X14976510Y21092210D01*
X14972570Y21085390D01*
X14971260Y21077600D01*
X14973880Y21067870D01*
X14980450Y21061050D01*
X14988320Y21059100D01*
X14996200Y21060080D01*
X15002760Y21063970D01*
X15015880Y21083440D01*
X15025070Y21092210D01*
X15038190Y21098050D01*
X15050000Y21100000D01*
X15050000Y21059100D01*
G01X15050000Y21002760D02*
X15032940Y21000810D01*
X15018510Y20997890D01*
X15005380Y20993990D01*
X14990950Y20989130D01*
X14971260Y20981340D01*
X14971260Y21020280D01*
G01X14827820Y22274370D02*
X14823880Y22280210D01*
X14821260Y22287030D01*
X14821260Y22294820D01*
X14825200Y22303580D01*
X14831760Y22310390D01*
X14839630Y22315260D01*
X14852760Y22319160D01*
X14864570Y22320130D01*
X14876380Y22318180D01*
X14884250Y22315260D01*
X14892130Y22309420D01*
X14897380Y22302610D01*
X14900000Y22295790D01*
X14900000Y22288970D01*
X14897380Y22282160D01*
X14893440Y22276320D01*
X14888190Y22271450D01*
G01X14884250Y22238470D02*
X14893440Y22232630D01*
X14898690Y22224840D01*
X14900000Y22216080D01*
X14898690Y22208290D01*
X14892130Y22200500D01*
X14884250Y22195630D01*
X14876380Y22194660D01*
X14867190Y22196600D01*
X14860630Y22203420D01*
X14858000Y22210230D01*
X14858000Y22219000D01*
G01X14858000Y22210230D02*
X14854070Y22204390D01*
X14847510Y22199520D01*
X14839630Y22197580D01*
X14831760Y22199520D01*
X14825200Y22204390D01*
X14821260Y22213160D01*
X14822570Y22221920D01*
X14827820Y22230680D01*
G01X14834380Y22156810D02*
X14826510Y22150970D01*
X14822570Y22144150D01*
X14821260Y22136360D01*
X14823880Y22126630D01*
X14830450Y22119810D01*
X14838320Y22117860D01*
X14846200Y22118840D01*
X14852760Y22122730D01*
X14865880Y22142200D01*
X14875070Y22150970D01*
X14888190Y22156810D01*
X14900000Y22158760D01*
X14900000Y22117860D01*
G01X15340320Y18761870D02*
X15336380Y18767710D01*
X15333760Y18774530D01*
X15333760Y18782320D01*
X15337700Y18791080D01*
X15344260Y18797890D01*
X15352130Y18802760D01*
X15365260Y18806660D01*
X15377070Y18807630D01*
X15388880Y18805680D01*
X15396750Y18802760D01*
X15404630Y18796920D01*
X15409880Y18790110D01*
X15412500Y18783290D01*
X15412500Y18776470D01*
X15409880Y18769660D01*
X15405940Y18763820D01*
X15400690Y18758950D01*
G01X15346880Y18723050D02*
X15339010Y18717210D01*
X15335070Y18710390D01*
X15333760Y18702600D01*
X15336380Y18692870D01*
X15342950Y18686050D01*
X15350820Y18684100D01*
X15358700Y18685080D01*
X15365260Y18688970D01*
X15378380Y18708440D01*
X15387570Y18717210D01*
X15400690Y18723050D01*
X15412500Y18725000D01*
X15412500Y18684100D01*
G01X15346880Y18644310D02*
X15339010Y18638470D01*
X15335070Y18631650D01*
X15333760Y18623860D01*
X15336380Y18614130D01*
X15342950Y18607310D01*
X15350820Y18605360D01*
X15358700Y18606340D01*
X15365260Y18610230D01*
X15378380Y18629700D01*
X15387570Y18638470D01*
X15400690Y18644310D01*
X15412500Y18646260D01*
X15412500Y18605360D01*
G01X15077820Y18749370D02*
X15073880Y18755210D01*
X15071260Y18762030D01*
X15071260Y18769820D01*
X15075200Y18778580D01*
X15081760Y18785390D01*
X15089630Y18790260D01*
X15102760Y18794160D01*
X15114570Y18795130D01*
X15126380Y18793180D01*
X15134250Y18790260D01*
X15142130Y18784420D01*
X15147380Y18777610D01*
X15150000Y18770790D01*
X15150000Y18763970D01*
X15147380Y18757160D01*
X15143440Y18751320D01*
X15138190Y18746450D01*
G01X15084380Y18710550D02*
X15076510Y18704710D01*
X15072570Y18697890D01*
X15071260Y18690100D01*
X15073880Y18680370D01*
X15080450Y18673550D01*
X15088320Y18671600D01*
X15096200Y18672580D01*
X15102760Y18676470D01*
X15115880Y18695940D01*
X15125070Y18704710D01*
X15138190Y18710550D01*
X15150000Y18712500D01*
X15150000Y18671600D01*
G01X15150000Y18613310D02*
X15071260Y18613310D01*
X15087010Y18624990D01*
G01X15150000Y18624990D02*
X15150000Y18601630D01*
G01X15077820Y22274370D02*
X15073880Y22280210D01*
X15071260Y22287030D01*
X15071260Y22294820D01*
X15075200Y22303580D01*
X15081760Y22310390D01*
X15089630Y22315260D01*
X15102760Y22319160D01*
X15114570Y22320130D01*
X15126380Y22318180D01*
X15134250Y22315260D01*
X15142130Y22309420D01*
X15147380Y22302610D01*
X15150000Y22295790D01*
X15150000Y22288970D01*
X15147380Y22282160D01*
X15143440Y22276320D01*
X15138190Y22271450D01*
G01X15134250Y22238470D02*
X15143440Y22232630D01*
X15148690Y22224840D01*
X15150000Y22216080D01*
X15148690Y22208290D01*
X15142130Y22200500D01*
X15134250Y22195630D01*
X15126380Y22194660D01*
X15117190Y22196600D01*
X15110630Y22203420D01*
X15108000Y22210230D01*
X15108000Y22219000D01*
G01X15108000Y22210230D02*
X15104070Y22204390D01*
X15097510Y22199520D01*
X15089630Y22197580D01*
X15081760Y22199520D01*
X15075200Y22204390D01*
X15071260Y22213160D01*
X15072570Y22221920D01*
X15077820Y22230680D01*
G01X15150000Y22138310D02*
X15071260Y22138310D01*
X15087010Y22149990D01*
G01X15150000Y22149990D02*
X15150000Y22126630D01*
G01X16502820Y17711870D02*
X16498880Y17717710D01*
X16496260Y17724530D01*
X16496260Y17732320D01*
X16500200Y17741080D01*
X16506760Y17747890D01*
X16514630Y17752760D01*
X16527760Y17756660D01*
X16539570Y17757630D01*
X16551380Y17755680D01*
X16559250Y17752760D01*
X16567130Y17746920D01*
X16572380Y17740110D01*
X16575000Y17733290D01*
X16575000Y17726470D01*
X16572380Y17719660D01*
X16568440Y17713820D01*
X16563190Y17708950D01*
G01X16509380Y17673050D02*
X16501510Y17667210D01*
X16497570Y17660390D01*
X16496260Y17652600D01*
X16498880Y17642870D01*
X16505450Y17636050D01*
X16513320Y17634100D01*
X16521200Y17635080D01*
X16527760Y17638970D01*
X16540880Y17658440D01*
X16550070Y17667210D01*
X16563190Y17673050D01*
X16575000Y17675000D01*
X16575000Y17634100D01*
G01X16496260Y17575810D02*
X16498880Y17583600D01*
X16505450Y17589440D01*
X16513320Y17593340D01*
X16523820Y17596260D01*
X16535630Y17597230D01*
X16547440Y17596260D01*
X16557940Y17593340D01*
X16565820Y17589440D01*
X16572380Y17583600D01*
X16575000Y17575810D01*
X16572380Y17568020D01*
X16565820Y17562180D01*
X16557940Y17558280D01*
X16547440Y17555360D01*
X16535630Y17554390D01*
X16523820Y17555360D01*
X16513320Y17558280D01*
X16505450Y17562180D01*
X16498880Y17568020D01*
X16496260Y17575810D01*
G01X16502820Y18211870D02*
X16498880Y18217710D01*
X16496260Y18224530D01*
X16496260Y18232320D01*
X16500200Y18241080D01*
X16506760Y18247890D01*
X16514630Y18252760D01*
X16527760Y18256660D01*
X16539570Y18257630D01*
X16551380Y18255680D01*
X16559250Y18252760D01*
X16567130Y18246920D01*
X16572380Y18240110D01*
X16575000Y18233290D01*
X16575000Y18226470D01*
X16572380Y18219660D01*
X16568440Y18213820D01*
X16563190Y18208950D01*
G01X16575000Y18154550D02*
X16496260Y18154550D01*
X16512010Y18166230D01*
G01X16575000Y18166230D02*
X16575000Y18142870D01*
G01X16565820Y18092360D02*
X16572380Y18085550D01*
X16575000Y18077760D01*
X16572380Y18069970D01*
X16564500Y18063150D01*
X16552690Y18058280D01*
X16540880Y18056340D01*
X16526440Y18056340D01*
X16514630Y18058280D01*
X16504130Y18063150D01*
X16498880Y18068990D01*
X16496260Y18075810D01*
X16498880Y18083600D01*
X16504130Y18089440D01*
X16512010Y18093340D01*
X16522510Y18095280D01*
X16531690Y18093340D01*
X16540880Y18088470D01*
X16546130Y18082630D01*
X16547440Y18075810D01*
X16544820Y18068020D01*
X16538260Y18062180D01*
X16526440Y18056340D01*
G01X16761870Y21872180D02*
X16767710Y21876120D01*
X16774530Y21878740D01*
X16782320Y21878740D01*
X16791080Y21874800D01*
X16797890Y21868240D01*
X16802760Y21860370D01*
X16806660Y21847240D01*
X16807630Y21835430D01*
X16805680Y21823620D01*
X16802760Y21815750D01*
X16796920Y21807870D01*
X16790110Y21802620D01*
X16783290Y21800000D01*
X16776470Y21800000D01*
X16769660Y21802620D01*
X16763820Y21806560D01*
X16758950Y21811810D01*
G01X16704550Y21800000D02*
X16704550Y21878740D01*
X16716230Y21862990D01*
G01X16716230Y21800000D02*
X16692870Y21800000D01*
G01X16625810Y21800000D02*
X16618990Y21801310D01*
X16611210Y21805250D01*
X16606340Y21811810D01*
X16604390Y21821000D01*
X16606340Y21830180D01*
X16612180Y21838060D01*
X16620940Y21842000D01*
X16630680Y21842000D01*
X16636520Y21844620D01*
X16641390Y21851180D01*
X16643340Y21860370D01*
X16640410Y21869550D01*
X16633600Y21876120D01*
X16625810Y21878740D01*
X16618020Y21876120D01*
X16611210Y21869550D01*
X16608280Y21860370D01*
X16610230Y21851180D01*
X16615100Y21844620D01*
X16620940Y21842000D01*
X16630680Y21842000D01*
X16639440Y21838060D01*
X16645280Y21830180D01*
X16647230Y21821000D01*
X16645280Y21811810D01*
X16640410Y21805250D01*
X16632630Y21801310D01*
X16625810Y21800000D01*
G01X16761870Y21622180D02*
X16767710Y21626120D01*
X16774530Y21628740D01*
X16782320Y21628740D01*
X16791080Y21624800D01*
X16797890Y21618240D01*
X16802760Y21610370D01*
X16806660Y21597240D01*
X16807630Y21585430D01*
X16805680Y21573620D01*
X16802760Y21565750D01*
X16796920Y21557870D01*
X16790110Y21552620D01*
X16783290Y21550000D01*
X16776470Y21550000D01*
X16769660Y21552620D01*
X16763820Y21556560D01*
X16758950Y21561810D01*
G01X16704550Y21550000D02*
X16704550Y21628740D01*
X16716230Y21612990D01*
G01X16716230Y21550000D02*
X16692870Y21550000D01*
G01X16644310Y21582810D02*
X16637490Y21592000D01*
X16631650Y21597240D01*
X16623860Y21599870D01*
X16617050Y21597240D01*
X16612180Y21592000D01*
X16608280Y21584120D01*
X16607310Y21574930D01*
X16608280Y21567060D01*
X16612180Y21559180D01*
X16618020Y21552620D01*
X16624840Y21550000D01*
X16632630Y21552620D01*
X16639440Y21560500D01*
X16643340Y21572310D01*
X16644310Y21585430D01*
X16642360Y21602490D01*
X16639440Y21611680D01*
X16634570Y21620870D01*
X16627760Y21627430D01*
X16620940Y21628740D01*
X16614130Y21626120D01*
X16609260Y21619550D01*
G01X16761870Y22122180D02*
X16767710Y22126120D01*
X16774530Y22128740D01*
X16782320Y22128740D01*
X16791080Y22124800D01*
X16797890Y22118240D01*
X16802760Y22110370D01*
X16806660Y22097240D01*
X16807630Y22085430D01*
X16805680Y22073620D01*
X16802760Y22065750D01*
X16796920Y22057870D01*
X16790110Y22052620D01*
X16783290Y22050000D01*
X16776470Y22050000D01*
X16769660Y22052620D01*
X16763820Y22056560D01*
X16758950Y22061810D01*
G01X16704550Y22050000D02*
X16704550Y22128740D01*
X16716230Y22112990D01*
G01X16716230Y22050000D02*
X16692870Y22050000D01*
G01X16627760Y22050000D02*
X16625810Y22067060D01*
X16622890Y22081490D01*
X16618990Y22094620D01*
X16614130Y22109050D01*
X16606340Y22128740D01*
X16645280Y22128740D01*
G01X16912500Y17958290D02*
X16877070Y17958290D01*
X16833760Y17977760D01*
G01X16833760Y17938820D02*
X16877070Y17958290D01*
G01X16912500Y17879550D02*
X16833760Y17879550D01*
X16849510Y17891230D01*
G01X16912500Y17891230D02*
X16912500Y17867870D01*
G01X17174370Y21872180D02*
X17180210Y21876120D01*
X17187030Y21878740D01*
X17194820Y21878740D01*
X17203580Y21874800D01*
X17210390Y21868240D01*
X17215260Y21860370D01*
X17219160Y21847240D01*
X17220130Y21835430D01*
X17218180Y21823620D01*
X17215260Y21815750D01*
X17209420Y21807870D01*
X17202610Y21802620D01*
X17195790Y21800000D01*
X17188970Y21800000D01*
X17182160Y21802620D01*
X17176320Y21806560D01*
X17171450Y21811810D01*
G01X17117050Y21800000D02*
X17117050Y21878740D01*
X17128730Y21862990D01*
G01X17128730Y21800000D02*
X17105370Y21800000D01*
G01X17026630Y21800000D02*
X17026630Y21878740D01*
X17062650Y21822310D01*
X17013970Y21822310D01*
G01X17186870Y22122180D02*
X17192710Y22126120D01*
X17199530Y22128740D01*
X17207320Y22128740D01*
X17216080Y22124800D01*
X17222890Y22118240D01*
X17227760Y22110370D01*
X17231660Y22097240D01*
X17232630Y22085430D01*
X17230680Y22073620D01*
X17227760Y22065750D01*
X17221920Y22057870D01*
X17215110Y22052620D01*
X17208290Y22050000D01*
X17201470Y22050000D01*
X17194660Y22052620D01*
X17188820Y22056560D01*
X17183950Y22061810D01*
G01X17129550Y22050000D02*
X17129550Y22128740D01*
X17141230Y22112990D01*
G01X17141230Y22050000D02*
X17117870Y22050000D01*
G01X17072230Y22061810D02*
X17066390Y22055250D01*
X17059570Y22051310D01*
X17050810Y22050000D01*
X17042050Y22052620D01*
X17035230Y22057870D01*
X17030360Y22067060D01*
X17029390Y22077560D01*
X17031340Y22088060D01*
X17036210Y22094620D01*
X17043020Y22099870D01*
X17049840Y22101180D01*
X17056650Y22099870D01*
X17065410Y22094620D01*
X17062490Y22128740D01*
X17036210Y22128740D01*
G01X17186870Y22384680D02*
X17192710Y22388620D01*
X17199530Y22391240D01*
X17207320Y22391240D01*
X17216080Y22387300D01*
X17222890Y22380740D01*
X17227760Y22372870D01*
X17231660Y22359740D01*
X17232630Y22347930D01*
X17230680Y22336120D01*
X17227760Y22328250D01*
X17221920Y22320370D01*
X17215110Y22315120D01*
X17208290Y22312500D01*
X17201470Y22312500D01*
X17194660Y22315120D01*
X17188820Y22319060D01*
X17183950Y22324310D01*
G01X17129550Y22312500D02*
X17129550Y22391240D01*
X17141230Y22375490D01*
G01X17141230Y22312500D02*
X17117870Y22312500D01*
G01X17072230Y22328250D02*
X17066390Y22319060D01*
X17058600Y22313810D01*
X17049840Y22312500D01*
X17042050Y22313810D01*
X17034260Y22320370D01*
X17029390Y22328250D01*
X17028420Y22336120D01*
X17030360Y22345310D01*
X17037180Y22351870D01*
X17043990Y22354500D01*
X17052760Y22354500D01*
G01X17043990Y22354500D02*
X17038150Y22358430D01*
X17033280Y22364990D01*
X17031340Y22372870D01*
X17033280Y22380740D01*
X17038150Y22387300D01*
X17046920Y22391240D01*
X17055680Y22389930D01*
X17064440Y22384680D01*
G01X16936870Y22759680D02*
X16942710Y22763620D01*
X16949530Y22766240D01*
X16957320Y22766240D01*
X16966080Y22762300D01*
X16972890Y22755740D01*
X16977760Y22747870D01*
X16981660Y22734740D01*
X16982630Y22722930D01*
X16980680Y22711120D01*
X16977760Y22703250D01*
X16971920Y22695370D01*
X16965110Y22690120D01*
X16958290Y22687500D01*
X16951470Y22687500D01*
X16944660Y22690120D01*
X16938820Y22694060D01*
X16933950Y22699310D01*
G01X16898050Y22720310D02*
X16891230Y22729500D01*
X16885390Y22734740D01*
X16877600Y22737370D01*
X16870790Y22734740D01*
X16865920Y22729500D01*
X16862020Y22721620D01*
X16861050Y22712430D01*
X16862020Y22704560D01*
X16865920Y22696680D01*
X16871760Y22690120D01*
X16878580Y22687500D01*
X16886370Y22690120D01*
X16893180Y22698000D01*
X16897080Y22709810D01*
X16898050Y22722930D01*
X16896100Y22739990D01*
X16893180Y22749180D01*
X16888310Y22758370D01*
X16881500Y22764930D01*
X16874680Y22766240D01*
X16867870Y22763620D01*
X16863000Y22757050D01*
G01X16936870Y23009680D02*
X16942710Y23013620D01*
X16949530Y23016240D01*
X16957320Y23016240D01*
X16966080Y23012300D01*
X16972890Y23005740D01*
X16977760Y22997870D01*
X16981660Y22984740D01*
X16982630Y22972930D01*
X16980680Y22961120D01*
X16977760Y22953250D01*
X16971920Y22945370D01*
X16965110Y22940120D01*
X16958290Y22937500D01*
X16951470Y22937500D01*
X16944660Y22940120D01*
X16938820Y22944060D01*
X16933950Y22949310D01*
G01X16881500Y22937500D02*
X16879550Y22954560D01*
X16876630Y22968990D01*
X16872730Y22982120D01*
X16867870Y22996550D01*
X16860080Y23016240D01*
X16899020Y23016240D01*
G01X16840320Y23511870D02*
X16836380Y23517710D01*
X16833760Y23524530D01*
X16833760Y23532320D01*
X16837700Y23541080D01*
X16844260Y23547890D01*
X16852130Y23552760D01*
X16865260Y23556660D01*
X16877070Y23557630D01*
X16888880Y23555680D01*
X16896750Y23552760D01*
X16904630Y23546920D01*
X16909880Y23540110D01*
X16912500Y23533290D01*
X16912500Y23526470D01*
X16909880Y23519660D01*
X16905940Y23513820D01*
X16900690Y23508950D01*
G01X16900690Y23475970D02*
X16907250Y23470130D01*
X16911190Y23463310D01*
X16912500Y23454550D01*
X16909880Y23445790D01*
X16904630Y23438970D01*
X16895440Y23434100D01*
X16884940Y23433130D01*
X16874440Y23435080D01*
X16867880Y23439950D01*
X16862630Y23446760D01*
X16861320Y23453580D01*
X16862630Y23460390D01*
X16867880Y23469150D01*
X16833760Y23466230D01*
X16833760Y23439950D01*
G01X17490320Y22724370D02*
X17486380Y22730210D01*
X17483760Y22737030D01*
X17483760Y22744820D01*
X17487700Y22753580D01*
X17494260Y22760390D01*
X17502130Y22765260D01*
X17515260Y22769160D01*
X17527070Y22770130D01*
X17538880Y22768180D01*
X17546750Y22765260D01*
X17554630Y22759420D01*
X17559880Y22752610D01*
X17562500Y22745790D01*
X17562500Y22738970D01*
X17559880Y22732160D01*
X17555940Y22726320D01*
X17550690Y22721450D01*
G01X17496880Y22685550D02*
X17489010Y22679710D01*
X17485070Y22672890D01*
X17483760Y22665100D01*
X17486380Y22655370D01*
X17492950Y22648550D01*
X17500820Y22646600D01*
X17508700Y22647580D01*
X17515260Y22651470D01*
X17528380Y22670940D01*
X17537570Y22679710D01*
X17550690Y22685550D01*
X17562500Y22687500D01*
X17562500Y22646600D01*
G01X17562500Y22576630D02*
X17483760Y22576630D01*
X17540190Y22612650D01*
X17540190Y22563970D01*
G01X17490320Y23536870D02*
X17486380Y23542710D01*
X17483760Y23549530D01*
X17483760Y23557320D01*
X17487700Y23566080D01*
X17494260Y23572890D01*
X17502130Y23577760D01*
X17515260Y23581660D01*
X17527070Y23582630D01*
X17538880Y23580680D01*
X17546750Y23577760D01*
X17554630Y23571920D01*
X17559880Y23565110D01*
X17562500Y23558290D01*
X17562500Y23551470D01*
X17559880Y23544660D01*
X17555940Y23538820D01*
X17550690Y23533950D01*
G01X17496880Y23498050D02*
X17489010Y23492210D01*
X17485070Y23485390D01*
X17483760Y23477600D01*
X17486380Y23467870D01*
X17492950Y23461050D01*
X17500820Y23459100D01*
X17508700Y23460080D01*
X17515260Y23463970D01*
X17528380Y23483440D01*
X17537570Y23492210D01*
X17550690Y23498050D01*
X17562500Y23500000D01*
X17562500Y23459100D01*
G01X17550690Y23422230D02*
X17557250Y23416390D01*
X17561190Y23409570D01*
X17562500Y23400810D01*
X17559880Y23392050D01*
X17554630Y23385230D01*
X17545440Y23380360D01*
X17534940Y23379390D01*
X17524440Y23381340D01*
X17517880Y23386210D01*
X17512630Y23393020D01*
X17511320Y23399840D01*
X17512630Y23406650D01*
X17517880Y23415410D01*
X17483760Y23412490D01*
X17483760Y23386210D01*
G01X17752820Y22711870D02*
X17748880Y22717710D01*
X17746260Y22724530D01*
X17746260Y22732320D01*
X17750200Y22741080D01*
X17756760Y22747890D01*
X17764630Y22752760D01*
X17777760Y22756660D01*
X17789570Y22757630D01*
X17801380Y22755680D01*
X17809250Y22752760D01*
X17817130Y22746920D01*
X17822380Y22740110D01*
X17825000Y22733290D01*
X17825000Y22726470D01*
X17822380Y22719660D01*
X17818440Y22713820D01*
X17813190Y22708950D01*
G01X17759380Y22673050D02*
X17751510Y22667210D01*
X17747570Y22660390D01*
X17746260Y22652600D01*
X17748880Y22642870D01*
X17755450Y22636050D01*
X17763320Y22634100D01*
X17771200Y22635080D01*
X17777760Y22638970D01*
X17790880Y22658440D01*
X17800070Y22667210D01*
X17813190Y22673050D01*
X17825000Y22675000D01*
X17825000Y22634100D01*
G01X17809250Y22597230D02*
X17818440Y22591390D01*
X17823690Y22583600D01*
X17825000Y22574840D01*
X17823690Y22567050D01*
X17817130Y22559260D01*
X17809250Y22554390D01*
X17801380Y22553420D01*
X17792190Y22555360D01*
X17785630Y22562180D01*
X17783000Y22568990D01*
X17783000Y22577760D01*
G01X17783000Y22568990D02*
X17779070Y22563150D01*
X17772510Y22558280D01*
X17764630Y22556340D01*
X17756760Y22558280D01*
X17750200Y22563150D01*
X17746260Y22571920D01*
X17747570Y22580680D01*
X17752820Y22589440D01*
G01X17740320Y23536870D02*
X17736380Y23542710D01*
X17733760Y23549530D01*
X17733760Y23557320D01*
X17737700Y23566080D01*
X17744260Y23572890D01*
X17752130Y23577760D01*
X17765260Y23581660D01*
X17777070Y23582630D01*
X17788880Y23580680D01*
X17796750Y23577760D01*
X17804630Y23571920D01*
X17809880Y23565110D01*
X17812500Y23558290D01*
X17812500Y23551470D01*
X17809880Y23544660D01*
X17805940Y23538820D01*
X17800690Y23533950D01*
G01X17746880Y23498050D02*
X17739010Y23492210D01*
X17735070Y23485390D01*
X17733760Y23477600D01*
X17736380Y23467870D01*
X17742950Y23461050D01*
X17750820Y23459100D01*
X17758700Y23460080D01*
X17765260Y23463970D01*
X17778380Y23483440D01*
X17787570Y23492210D01*
X17800690Y23498050D01*
X17812500Y23500000D01*
X17812500Y23459100D01*
G01X17779690Y23419310D02*
X17770500Y23412490D01*
X17765260Y23406650D01*
X17762630Y23398860D01*
X17765260Y23392050D01*
X17770500Y23387180D01*
X17778380Y23383280D01*
X17787570Y23382310D01*
X17795440Y23383280D01*
X17803320Y23387180D01*
X17809880Y23393020D01*
X17812500Y23399840D01*
X17809880Y23407630D01*
X17802000Y23414440D01*
X17790190Y23418340D01*
X17777070Y23419310D01*
X17760010Y23417360D01*
X17750820Y23414440D01*
X17741630Y23409570D01*
X17735070Y23402760D01*
X17733760Y23395940D01*
X17736380Y23389130D01*
X17742950Y23384260D01*
G01X19677820Y16274370D02*
X19673880Y16280210D01*
X19671260Y16287030D01*
X19671260Y16294820D01*
X19675200Y16303580D01*
X19681760Y16310390D01*
X19689630Y16315260D01*
X19702760Y16319160D01*
X19714570Y16320130D01*
X19726380Y16318180D01*
X19734250Y16315260D01*
X19742130Y16309420D01*
X19747380Y16302610D01*
X19750000Y16295790D01*
X19750000Y16288970D01*
X19747380Y16282160D01*
X19743440Y16276320D01*
X19738190Y16271450D01*
G01X19750000Y16217050D02*
X19748690Y16210230D01*
X19744750Y16202450D01*
X19738190Y16197580D01*
X19729000Y16195630D01*
X19719820Y16197580D01*
X19711940Y16203420D01*
X19708000Y16212180D01*
X19708000Y16221920D01*
X19705380Y16227760D01*
X19698820Y16232630D01*
X19689630Y16234580D01*
X19680450Y16231650D01*
X19673880Y16224840D01*
X19671260Y16217050D01*
X19673880Y16209260D01*
X19680450Y16202450D01*
X19689630Y16199520D01*
X19698820Y16201470D01*
X19705380Y16206340D01*
X19708000Y16212180D01*
X19708000Y16221920D01*
X19711940Y16230680D01*
X19719820Y16236520D01*
X19729000Y16238470D01*
X19738190Y16236520D01*
X19744750Y16231650D01*
X19748690Y16223870D01*
X19750000Y16217050D01*
G01X19574370Y18534680D02*
X19580210Y18538620D01*
X19587030Y18541240D01*
X19594820Y18541240D01*
X19603580Y18537300D01*
X19610390Y18530740D01*
X19615260Y18522870D01*
X19619160Y18509740D01*
X19620130Y18497930D01*
X19618180Y18486120D01*
X19615260Y18478250D01*
X19609420Y18470370D01*
X19602610Y18465120D01*
X19595790Y18462500D01*
X19588970Y18462500D01*
X19582160Y18465120D01*
X19576320Y18469060D01*
X19571450Y18474310D01*
G01X19505370Y18462500D02*
X19505370Y18541240D01*
X19541390Y18484810D01*
X19492710Y18484810D01*
G01X19574370Y19134680D02*
X19580210Y19138620D01*
X19587030Y19141240D01*
X19594820Y19141240D01*
X19603580Y19137300D01*
X19610390Y19130740D01*
X19615260Y19122870D01*
X19619160Y19109740D01*
X19620130Y19097930D01*
X19618180Y19086120D01*
X19615260Y19078250D01*
X19609420Y19070370D01*
X19602610Y19065120D01*
X19595790Y19062500D01*
X19588970Y19062500D01*
X19582160Y19065120D01*
X19576320Y19069060D01*
X19571450Y19074310D01*
G01X19538470Y19078250D02*
X19532630Y19069060D01*
X19524840Y19063810D01*
X19516080Y19062500D01*
X19508290Y19063810D01*
X19500500Y19070370D01*
X19495630Y19078250D01*
X19494660Y19086120D01*
X19496600Y19095310D01*
X19503420Y19101870D01*
X19510230Y19104500D01*
X19519000Y19104500D01*
G01X19510230Y19104500D02*
X19504390Y19108430D01*
X19499520Y19114990D01*
X19497580Y19122870D01*
X19499520Y19130740D01*
X19504390Y19137300D01*
X19513160Y19141240D01*
X19521920Y19139930D01*
X19530680Y19134680D01*
G01X19686870Y22222180D02*
X19692710Y22226120D01*
X19699530Y22228740D01*
X19707320Y22228740D01*
X19716080Y22224800D01*
X19722890Y22218240D01*
X19727760Y22210370D01*
X19731660Y22197240D01*
X19732630Y22185430D01*
X19730680Y22173620D01*
X19727760Y22165750D01*
X19721920Y22157870D01*
X19715110Y22152620D01*
X19708290Y22150000D01*
X19701470Y22150000D01*
X19694660Y22152620D01*
X19688820Y22156560D01*
X19683950Y22161810D01*
G01X19646100Y22159180D02*
X19639290Y22152620D01*
X19631500Y22150000D01*
X19623710Y22152620D01*
X19616890Y22160500D01*
X19612020Y22172310D01*
X19610080Y22184120D01*
X19610080Y22198560D01*
X19612020Y22210370D01*
X19616890Y22220870D01*
X19622730Y22226120D01*
X19629550Y22228740D01*
X19637340Y22226120D01*
X19643180Y22220870D01*
X19647080Y22212990D01*
X19649020Y22202490D01*
X19647080Y22193310D01*
X19642210Y22184120D01*
X19636370Y22178870D01*
X19629550Y22177560D01*
X19621760Y22180180D01*
X19615920Y22186740D01*
X19610080Y22198560D01*
G01X19749370Y22834680D02*
X19755210Y22838620D01*
X19762030Y22841240D01*
X19769820Y22841240D01*
X19778580Y22837300D01*
X19785390Y22830740D01*
X19790260Y22822870D01*
X19794160Y22809740D01*
X19795130Y22797930D01*
X19793180Y22786120D01*
X19790260Y22778250D01*
X19784420Y22770370D01*
X19777610Y22765120D01*
X19770790Y22762500D01*
X19763970Y22762500D01*
X19757160Y22765120D01*
X19751320Y22769060D01*
X19746450Y22774310D01*
G01X19692050Y22762500D02*
X19692050Y22841240D01*
X19703730Y22825490D01*
G01X19703730Y22762500D02*
X19680370Y22762500D01*
G01X19613310Y22841240D02*
X19621100Y22838620D01*
X19626940Y22832050D01*
X19630840Y22824180D01*
X19633760Y22813680D01*
X19634730Y22801870D01*
X19633760Y22790060D01*
X19630840Y22779560D01*
X19626940Y22771680D01*
X19621100Y22765120D01*
X19613310Y22762500D01*
X19605520Y22765120D01*
X19599680Y22771680D01*
X19595780Y22779560D01*
X19592860Y22790060D01*
X19591890Y22801870D01*
X19592860Y22813680D01*
X19595780Y22824180D01*
X19599680Y22832050D01*
X19605520Y22838620D01*
X19613310Y22841240D01*
G01X20749370Y22634680D02*
X20755210Y22638620D01*
X20762030Y22641240D01*
X20769820Y22641240D01*
X20778580Y22637300D01*
X20785390Y22630740D01*
X20790260Y22622870D01*
X20794160Y22609740D01*
X20795130Y22597930D01*
X20793180Y22586120D01*
X20790260Y22578250D01*
X20784420Y22570370D01*
X20777610Y22565120D01*
X20770790Y22562500D01*
X20763970Y22562500D01*
X20757160Y22565120D01*
X20751320Y22569060D01*
X20746450Y22574310D01*
G01X20692050Y22562500D02*
X20692050Y22641240D01*
X20703730Y22625490D01*
G01X20703730Y22562500D02*
X20680370Y22562500D01*
G01X20613310Y22562500D02*
X20613310Y22641240D01*
X20624990Y22625490D01*
G01X20624990Y22562500D02*
X20601630Y22562500D01*
G01X20749370Y22897180D02*
X20755210Y22901120D01*
X20762030Y22903740D01*
X20769820Y22903740D01*
X20778580Y22899800D01*
X20785390Y22893240D01*
X20790260Y22885370D01*
X20794160Y22872240D01*
X20795130Y22860430D01*
X20793180Y22848620D01*
X20790260Y22840750D01*
X20784420Y22832870D01*
X20777610Y22827620D01*
X20770790Y22825000D01*
X20763970Y22825000D01*
X20757160Y22827620D01*
X20751320Y22831560D01*
X20746450Y22836810D01*
G01X20692050Y22825000D02*
X20692050Y22903740D01*
X20703730Y22887990D01*
G01X20703730Y22825000D02*
X20680370Y22825000D01*
G01X20631810Y22890620D02*
X20625970Y22898490D01*
X20619150Y22902430D01*
X20611360Y22903740D01*
X20601630Y22901120D01*
X20594810Y22894550D01*
X20592860Y22886680D01*
X20593840Y22878800D01*
X20597730Y22872240D01*
X20617200Y22859120D01*
X20625970Y22849930D01*
X20631810Y22836810D01*
X20633760Y22825000D01*
X20592860Y22825000D01*
M02*
