M48
METRIC
T01C.3
T02C.9144
T03C1.
T04C1.016
T05C1.1
T06C1.1684
T07C1.2
T08C1.2901
T09C3.2
T10C4.4
;LEADER: 12 
;HEADER: 
;CODE  : ASCII 
;FILE  : byggernnode1-1-4.drl for board c:/users/benja/appdata/roaming/spb_data/cdssetup/workspace/projects/byggernnode1/allegro/#Taaaagy44684.tmp ... layers TOP and BOTTOM
;T01 Holesize 1. = 0.300000 Tolerance = +0.000000/-0.000000 PLATED MM Quantity = 103
;T02 Holesize 2. = 0.914400 Tolerance = +0.000000/-0.000000 PLATED MM Quantity = 6
;T03 Holesize 3. = 1.000000 Tolerance = +0.000000/-0.000000 PLATED MM Quantity = 69
;T04 Holesize 4. = 1.016000 Tolerance = +0.000000/-0.000000 PLATED MM Quantity = 10
;T05 Holesize 5. = 1.100000 Tolerance = +0.000000/-0.000000 PLATED MM Quantity = 74
;T06 Holesize 6. = 1.168400 Tolerance = +0.000000/-0.000000 PLATED MM Quantity = 16
;T07 Holesize 7. = 1.200000 Tolerance = +0.000000/-0.000000 PLATED MM Quantity = 40
;T08 Holesize 8. = 1.290100 Tolerance = +0.000000/-0.000000 PLATED MM Quantity = 3
;T09 Holesize 9. = 3.200000 Tolerance = +0.000000/-0.000000 PLATED MM Quantity = 2
;T10 Holesize 10. = 4.400000 Tolerance = +0.000000/-0.000000 PLATED MM Quantity = 3
%
G90
T01
X13075000Y20923000
X13579000Y21508000
X13208000Y21780500
X13462000Y21780500
X13081000Y23650000
X13157250Y24142750
X15176500Y23622000
X15049500Y23495000
X14732000Y22810930
X14033500Y22606000
X13970000Y22542500
X13906500Y22479000
X15113000Y22288500
X14859000Y22288500
X14859000Y21272500
X14478000Y19748500
X14478000Y19304000
X14478000Y18288000
X14478000Y17843500
X14650000Y16100000
X14350000Y16100000
X14650000Y16000000
X14350000Y16000000
X14650000Y15900000
X14350000Y15900000
X16628080Y15811500
X16625790Y15871740
X16623790Y15938500
X16623790Y16002000
R03Y00063500
X16626280Y16256000
X16700500Y16278200
X16700500Y16450000
X16758200Y16450000
X16600000Y16500000
X16598320Y16557680
X16600000Y16900000
X16600000Y16957700
X16700500Y16974200
X16383000Y17462500
X15367000Y18161000
X16383000Y18351500
X15367000Y20066000
X16573500Y21590000
X16573500Y21844000
X16573500Y22098000
X15653000Y22415500
X15938500Y22606000
X17780000Y23558500
X17526000Y23558500
X16954500Y22987000
X17780000Y22733000
X17526000Y22733000
X17350000Y22733000
X16954500Y22733000
X17208500Y22352000
X17208500Y22098000
X17208500Y21844000
X17481000Y21672000
X18097500Y19748500
X16850000Y16974200
X16764000Y16974200
X16900000Y16950000
X16906210Y16900000
X16906210Y16823060
R03Y-00057700
X16906210Y16550000
X18034000Y16510000
X16900000Y16500000
X16827500Y16450000
X16827500Y16278200
X16764000Y16278200
X16901720Y16256000
X16904210Y16192500
X16904210Y16129000
X16904210Y16065500
X18034000Y16002000
X16904210Y16002000
X16904210Y15938500
X16906210Y15875000
X16903920Y15811500
X19558000Y16065500
X19558000Y16446500
X19558000Y17018000
X19640000Y18351500
X19367500Y18669000
X19367500Y18923000
X19431000Y19939000
X19494500Y22606000
X18732500Y22733000
X19767000Y22815000
X21037000Y22987000
X20764500Y22860000
X20764500Y22606000
X21145500Y22352000
X20725000Y21844000
X20725000Y21590000
X20725000Y21336000
X20725000Y20828000
T02
X12446000Y20828000
R02Y00254000
X12446000Y21971000
R02Y00254000
T03
X12700000Y16383000
X12700000Y16764000
X12954000Y20828000
R03Y00254000
X13716000Y21590000
R03Y-00254000
X14859000Y19812000
X14605000Y20574000
X14605000Y20828000
R07Y00254000
X14986000Y23241000
X14986000Y24003000
X15748000Y24003000
R02X-00254000
X15748000Y23241000
R02X-00254000
X15367000Y22606000
R08Y-00254000
X16002000Y23241000
R02X00254000
X16002000Y24003000
R02X00254000
X16764000Y23241000
R02X00254000
X16764000Y24003000
R02X00254000
X17780000Y24003000
X17526000Y24003000
X17780000Y23241000
X17526000Y23241000
X19304000Y22352000
X19177000Y18923000
X19177000Y18669000
R05Y-00254000
X19939000Y17399000
R06Y00254000
X20510500Y22606000
T04
X18351500Y18034000
X18605500Y18034000
X18605500Y18288000
X18351500Y18288000
X18351500Y18542000
X18605500Y18542000
X18605500Y18796000
X18351500Y18796000
X18351500Y19050000
X18605500Y19050000
T05
X13559000Y18426500
R03Y00277000
X13843000Y19396000
R04Y-00277000
X14859000Y17526000
R08Y00254000
X15621000Y19812000
R09Y-00254000
X19304000Y20066000
R08Y00254000
X20066000Y22352000
R09Y-00254000
X20510500Y19304000
R12Y00254000
X21272500Y22606000
R13Y-00254000
T06
X18351500Y20066000
R11Y00254000
X12446000Y23241000
R03Y00254000
T07
X16129000Y17526000
R19Y00254000
X17673000Y22352000
R19Y-00254000
T08
X15367000Y16256000
R02Y00254000
T09
X13701000Y17592000
X13701000Y20092000
T10
X20700000Y16600000
X20700000Y23600000
X13700000Y23600000
M30
