G04 ================== begin FILE IDENTIFICATION RECORD ==================*
G04 Layout Name:  byggernnode1.brd*
G04 Film Name:    Soldermask_bot*
G04 File Format:  Gerber RS274X*
G04 File Origin:  Cadence Allegro 24.1-P001*
G04 Origin Date:  Wed Nov  6 06:11:47 2024*
G04 *
G04 Layer:  PACKAGE GEOMETRY/SOLDERMASK_BOTTOM*
G04 Layer:  BOARD GEOMETRY/SOLDERMASK_BOTTOM*
G04 Layer:  PIN/SOLDERMASK_BOTTOM*
G04 Layer:  VIA CLASS/SOLDERMASK_BOTTOM*
G04 *
G04 Offset:    (0.0000 0.0000)*
G04 Mirror:    No*
G04 Mode:      Positive*
G04 Rotation:  0*
G04 FullContactRelief:  No*
G04 UndefLineWidth:     0.1500*
G04 ================== end FILE IDENTIFICATION RECORD ====================*
%FSAX35Y35*MOMM*%
%IR0*IPPOS*OFA0.00000B0.00000*MIA0B0*SFA1.00000B1.00000*%
%ADD27O,2.2X1.8*%
%ADD15R,1.6X1.25*%
%ADD16R,1.25X1.6*%
%ADD22R,2.2X5.7001*%
%ADD18C,5.*%
%ADD14C,1.6*%
%ADD13C,1.7*%
%ADD29R,2.X2.*%
%ADD19C,1.7001*%
%ADD26R,.8X.75*%
%ADD24C,2.135*%
%ADD21C,7.4*%
%ADD10C,1.4224*%
%ADD31C,1.724*%
%ADD20R,1.6X1.6*%
%ADD23R,1.7001X1.7001*%
%ADD25R,2.135X2.135*%
%ADD11R,1.6224X1.6224*%
%ADD12C,1.8764*%
%ADD17R,1.6699X1.1901*%
%ADD28R,1.1901X1.6699*%
%ADD30R,2.3001X5.7999*%
%LPD*%
G75*
G54D10*
X12446000Y21082000D03*
X12446000Y21336000D03*
X12446000Y22225000D03*
X12446000Y22479000D03*
G54D11*
X12446000Y20828000D03*
X12446000Y21971000D03*
G54D20*
X13716000Y20828000D03*
X14605000Y22606000D03*
X17780000Y24003000D03*
X19177000Y18923000D03*
G54D30*
X16891000Y17432000D03*
X16891000Y18382000D03*
G54D12*
X12446000Y23241000D03*
X12446000Y23495000D03*
X12446000Y24003000D03*
X12446000Y23749000D03*
X18351500Y20066000D03*
X18351500Y20574000D03*
X18351500Y20320000D03*
X18351500Y21082000D03*
X18351500Y20828000D03*
X18351500Y21590000D03*
X18351500Y21336000D03*
X18351500Y21844000D03*
X18351500Y22352000D03*
X18351500Y22098000D03*
X18351500Y22860000D03*
X18351500Y22606000D03*
G54D21*
X13700000Y23600000D03*
X20700000Y16600000D03*
X20700000Y23600000D03*
G54D31*
X18351500Y18034000D03*
X18351500Y18542000D03*
X18351500Y18288000D03*
X18351500Y18796000D03*
X18351500Y19050000D03*
X18605500Y18034000D03*
X18605500Y18542000D03*
X18605500Y18288000D03*
X18605500Y18796000D03*
X18605500Y19050000D03*
G54D13*
X12700000Y16383000D03*
X12700000Y16764000D03*
G54D22*
X14224000Y20607000D03*
X14224000Y21557000D03*
G54D23*
X14859000Y19812000D03*
X19304000Y22352000D03*
X20510500Y22606000D03*
G54D14*
X12954000Y20828000D03*
X12954000Y21082000D03*
X12954000Y21336000D03*
X12954000Y21590000D03*
X13716000Y21082000D03*
X13716000Y21336000D03*
X13716000Y21590000D03*
X14605000Y20574000D03*
X14605000Y20828000D03*
X14605000Y21082000D03*
X14605000Y21336000D03*
X14605000Y21590000D03*
X14605000Y21844000D03*
X14605000Y22098000D03*
X14605000Y22352000D03*
X14986000Y23241000D03*
X14986000Y24003000D03*
X15367000Y20574000D03*
X15367000Y21082000D03*
X15367000Y20828000D03*
X15367000Y21336000D03*
X15367000Y21844000D03*
X15367000Y21590000D03*
X15367000Y22352000D03*
X15367000Y22098000D03*
X15367000Y22606000D03*
X15494000Y23241000D03*
X15240000Y23241000D03*
X15240000Y24003000D03*
X15494000Y24003000D03*
X15748000Y23241000D03*
X15748000Y24003000D03*
X16256000Y23241000D03*
X16002000Y23241000D03*
X16002000Y24003000D03*
X16256000Y24003000D03*
X16764000Y23241000D03*
X16510000Y23241000D03*
X16510000Y24003000D03*
X16764000Y24003000D03*
X17272000Y23241000D03*
X17018000Y23241000D03*
X17018000Y24003000D03*
X17272000Y24003000D03*
X17526000Y23241000D03*
X17526000Y24003000D03*
X17780000Y23241000D03*
X19177000Y17399000D03*
X19177000Y17653000D03*
X19177000Y17907000D03*
X19177000Y18161000D03*
X19177000Y18415000D03*
X19177000Y18669000D03*
X19939000Y17653000D03*
X19939000Y17399000D03*
X19939000Y17907000D03*
X19939000Y18415000D03*
X19939000Y18161000D03*
X19939000Y18923000D03*
X19939000Y18669000D03*
G54D24*
X15367000Y16256000D03*
X15367000Y16510000D03*
G54D15*
X12700000Y20860000D03*
X12700000Y21050000D03*
X13208000Y21114000D03*
X13208000Y20923000D03*
X13208000Y20733000D03*
X13208000Y21304000D03*
X14478000Y17939000D03*
X14478000Y18129000D03*
X14478000Y19463000D03*
X14478000Y19653000D03*
X19558000Y16669000D03*
X19558000Y16859000D03*
G54D25*
X15367000Y16764000D03*
G54D16*
X12732000Y21971000D03*
X12922000Y21971000D03*
X12732000Y22225000D03*
X12922000Y22225000D03*
X12922000Y23241000D03*
X12732000Y23241000D03*
X12922000Y23749000D03*
X12732000Y23749000D03*
X15653000Y22606000D03*
X15843000Y22606000D03*
X20860000Y20828000D03*
X21050000Y20828000D03*
X20860000Y21336000D03*
X21050000Y21336000D03*
X20860000Y21844000D03*
X21050000Y21844000D03*
X20860000Y21590000D03*
X21050000Y21590000D03*
X21050000Y22352000D03*
X20860000Y22352000D03*
G54D17*
X13208000Y21508000D03*
X13208000Y21672000D03*
X13462000Y21127000D03*
X13462000Y21508000D03*
X13462000Y21291000D03*
X13462000Y21672000D03*
X15113000Y18497000D03*
X15113000Y18333000D03*
X14859000Y20619000D03*
X14859000Y20783000D03*
X14859000Y21000000D03*
X14859000Y21164000D03*
X14859000Y22397000D03*
X15113000Y22397000D03*
X14859000Y22561000D03*
X15113000Y22561000D03*
X15367000Y18497000D03*
X15367000Y18333000D03*
X16383000Y17571000D03*
X16383000Y17735000D03*
X16383000Y18079000D03*
X16383000Y18243000D03*
X17018000Y23413000D03*
X17018000Y23577000D03*
X17526000Y22841500D03*
X17526000Y23005500D03*
X17526000Y23667000D03*
X17526000Y23831000D03*
X17780000Y22841500D03*
X17780000Y23005500D03*
X17780000Y23667000D03*
X17780000Y23831000D03*
X19558000Y16174000D03*
X19558000Y16338000D03*
G54D26*
X15621000Y16340500D03*
X15621000Y16425500D03*
X18034000Y16213500D03*
X18034000Y16298500D03*
G54D18*
X13701000Y17592000D03*
X13701000Y20092000D03*
G54D27*
X16129000Y17526000D03*
X16129000Y17780000D03*
X16129000Y18034000D03*
X16129000Y18288000D03*
X16129000Y18542000D03*
X16129000Y18796000D03*
X16129000Y19050000D03*
X16129000Y19304000D03*
X16129000Y19558000D03*
X16129000Y19812000D03*
X16129000Y20066000D03*
X16129000Y20320000D03*
X16129000Y20574000D03*
X16129000Y20828000D03*
X16129000Y21082000D03*
X16129000Y21336000D03*
X16129000Y21590000D03*
X16129000Y21844000D03*
X16129000Y22098000D03*
X17673000Y17526000D03*
X17673000Y18034000D03*
X17673000Y17780000D03*
X17673000Y18542000D03*
X17673000Y18288000D03*
X17673000Y18796000D03*
X17673000Y19304000D03*
X17673000Y19050000D03*
X17673000Y19812000D03*
X17673000Y19558000D03*
X17673000Y20066000D03*
X17673000Y20574000D03*
X17673000Y20320000D03*
X17673000Y21082000D03*
X17673000Y20828000D03*
X17673000Y21336000D03*
X17673000Y21844000D03*
X17673000Y21590000D03*
X17673000Y22352000D03*
X17673000Y22098000D03*
G54D28*
X16301000Y21844000D03*
X16301000Y21590000D03*
X16301000Y22098000D03*
X16465000Y21844000D03*
X16465000Y21590000D03*
X16465000Y22098000D03*
X17063000Y22733000D03*
X17227000Y22733000D03*
X17063000Y22987000D03*
X17227000Y22987000D03*
X17317000Y21844000D03*
X17481000Y21844000D03*
X17317000Y22098000D03*
X17481000Y22098000D03*
X17317000Y22352000D03*
X17481000Y22352000D03*
X19476000Y18669000D03*
X19640000Y18669000D03*
X19476000Y18923000D03*
X19640000Y18923000D03*
X19603000Y22352000D03*
X19767000Y22352000D03*
X19603000Y22606000D03*
X19767000Y22606000D03*
X20873000Y22860000D03*
X21037000Y22860000D03*
X20873000Y22606000D03*
X21037000Y22606000D03*
G54D19*
X13559000Y18426500D03*
X13843000Y18565000D03*
X13843000Y18288000D03*
X13559000Y18980500D03*
X13559000Y18703500D03*
X13843000Y18842000D03*
X13559000Y19257500D03*
X13843000Y19396000D03*
X13843000Y19119000D03*
X14859000Y17526000D03*
X14859000Y17780000D03*
X14859000Y18034000D03*
X14859000Y18288000D03*
X14859000Y18542000D03*
X14859000Y18796000D03*
X14859000Y19050000D03*
X14859000Y19304000D03*
X14859000Y19558000D03*
X15621000Y17526000D03*
X15621000Y18034000D03*
X15621000Y17780000D03*
X15621000Y18542000D03*
X15621000Y18288000D03*
X15621000Y18796000D03*
X15621000Y19304000D03*
X15621000Y19050000D03*
X15621000Y19812000D03*
X15621000Y19558000D03*
X19304000Y20066000D03*
X19304000Y20320000D03*
X19304000Y20574000D03*
X19304000Y20828000D03*
X19304000Y21082000D03*
X19304000Y21336000D03*
X19304000Y21590000D03*
X19304000Y21844000D03*
X19304000Y22098000D03*
X20066000Y20066000D03*
X20066000Y20574000D03*
X20066000Y20320000D03*
X20066000Y21082000D03*
X20066000Y20828000D03*
X20066000Y21336000D03*
X20066000Y21844000D03*
X20066000Y21590000D03*
X20066000Y22352000D03*
X20066000Y22098000D03*
X20510500Y19304000D03*
X20510500Y19558000D03*
X20510500Y19812000D03*
X20510500Y20066000D03*
X20510500Y20320000D03*
X20510500Y20574000D03*
X20510500Y20828000D03*
X20510500Y21082000D03*
X20510500Y21336000D03*
X20510500Y21590000D03*
X20510500Y21844000D03*
X20510500Y22098000D03*
X20510500Y22352000D03*
X21272500Y19304000D03*
X21272500Y19812000D03*
X21272500Y19558000D03*
X21272500Y20066000D03*
X21272500Y20574000D03*
X21272500Y20320000D03*
X21272500Y21082000D03*
X21272500Y20828000D03*
X21272500Y21336000D03*
X21272500Y21844000D03*
X21272500Y21590000D03*
X21272500Y22352000D03*
X21272500Y22098000D03*
X21272500Y22606000D03*
G54D29*
X16129000Y22352000D03*
M02*
